/* XPM */
static char * accessories_calculator_24x24_xpm[] = {
"24 24 73 1",
" 	c None",
".	c #CACACA",
"+	c #E2E2E2",
"@	c #C9C9C9",
"#	c #E8E8E8",
"$	c #EBEBEB",
"%	c #ECECEC",
"&	c #E9E9E9",
"*	c #F8F8F8",
"=	c #F3F3F3",
"-	c #EAEAEA",
";	c #F0F0F0",
">	c #A0A0A0",
",	c #DDDDDD",
"'	c #E6E6E6",
")	c #9D9D9D",
"!	c #959595",
"~	c #B1B1B1",
"{	c #CECECE",
"]	c #B0B0B0",
"^	c #BBBBBB",
"/	c #939393",
"(	c #F1F1F1",
"_	c #D5D5D5",
":	c #E5E5E5",
"<	c #E7E7E7",
"[	c #A9AAAD",
"}	c #A0A1A5",
"|	c #BBBBBE",
"1	c #DADADB",
"2	c #707278",
"3	c #86888D",
"4	c #73757B",
"5	c #808186",
"6	c #D9D9DA",
"7	c #7E8085",
"8	c #BCBDBF",
"9	c #A4A5A9",
"0	c #72747A",
"a	c #7F8186",
"b	c #7D7F85",
"c	c #929398",
"d	c #75777D",
"e	c #E4E4E4",
"f	c #8A8C91",
"g	c #808287",
"h	c #A1A2A6",
"i	c #ACBEE9",
"j	c #89A6E9",
"k	c #94AEE9",
"l	c #E7E7E8",
"m	c #83858A",
"n	c #898A8F",
"o	c #999B9F",
"p	c #5E87EA",
"q	c #4979EA",
"r	c #D5DBE8",
"s	c #717379",
"t	c #CDCDCF",
"u	c #B2B3B6",
"v	c #5D87EA",
"w	c #4C7BEA",
"x	c #99B4F3",
"y	c #608AED",
"z	c #D4DAE8",
"A	c #85868C",
"B	c #A0A2A6",
"C	c #4A7AEA",
"D	c #7398EF",
"E	c #5582EB",
"F	c #5E88EA",
"G	c #6C91EA",
"H	c #E3E4E8",
"                        ",
"                        ",
"   .++++++++++++++++@   ",
"   ##$%%%%%%%%%%%%$##   ",
"   #&*******=**=*=*&#   ",
"   #-******;>,')$!*-#   ",
"   #-******;~{=]^/(-#   ",
"   #&******;_-;:*:*&#   ",
"   ##$%%%%%%%%%%%%$##   ",
"   #<[}}}}|##|}}}}[<#   ",
"   #1223425##5222221#   ",
"   #627890a##a0}}b26#   ",
"   #622cd2a##a222226#   ",
"   #efggggh##}ggggfe#   ",
"   ##################   ",
"   #<[}}}}|##ijjjjkl#   ",
"   #12mno05##pqqqqqr#   ",
"   #62stu2a##vwxxyqz#   ",
"   #62ABu0a##vCDDEqz#   ",
"   #efggggh##jFFFFGH#   ",
"   ##################   ",
"   @++++++++++++++++@   ",
"                        ",
"                        "};
