/* XPM */
static char * accessories_character_map_xpm[] = {
"24 24 112 2",
"  	c None",
". 	c #488DD8",
"+ 	c #498CD7",
"@ 	c #478BDA",
"# 	c #488BD9",
"$ 	c #498CD8",
"% 	c #488DD7",
"& 	c #4F90D9",
"* 	c #7FAEE4",
"= 	c #98BEE9",
"- 	c #8EB7E7",
"; 	c #5F9ADD",
"> 	c #7CACE3",
", 	c #DAE8F7",
"' 	c #A6C7EC",
") 	c #8DB7E7",
"! 	c #9FC2EA",
"~ 	c #DDE9F8",
"{ 	c #A0C3EB",
"] 	c #4587CF",
"^ 	c #70A4E0",
"/ 	c #D0E1F5",
"( 	c #5392DA",
"_ 	c #5493DA",
": 	c #4A8DD8",
"< 	c #4E8FD9",
"[ 	c #CDDFF4",
"} 	c #82B0E4",
"| 	c #FBFBFB",
"1 	c #FDFDFD",
"2 	c #B2CEED",
"3 	c #CEE0F4",
"4 	c #619BDD",
"5 	c #D7E6F6",
"6 	c #C7DBF3",
"7 	c #E4EEF9",
"8 	c #8AB5E6",
"9 	c #68A0DF",
"0 	c #CEE0F5",
"a 	c #E1E1E1",
"b 	c #FFFFFF",
"c 	c #BAD4F0",
"d 	c #5292DA",
"e 	c #E2EDF9",
"f 	c #C2D9F2",
"g 	c #85B2E5",
"h 	c #B0CDEE",
"i 	c #8BB5E6",
"j 	c #E5EFF9",
"k 	c #EEEEEE",
"l 	c #F7F7F7",
"m 	c #649DDE",
"n 	c #CBDEF4",
"o 	c #5C98DC",
"p 	c #BED6F1",
"q 	c #81B0E4",
"r 	c #DEEAF8",
"s 	c #FCFCFC",
"t 	c #D0D0D0",
"u 	c #D8D8D8",
"v 	c #A3BDD9",
"w 	c #5E99DC",
"x 	c #D8E7F7",
"y 	c #C9DDF4",
"z 	c #81AFE4",
"A 	c #5895DB",
"B 	c #E8F1FA",
"C 	c #94BBE8",
"D 	c #AFCCEE",
"E 	c #DCDCDC",
"F 	c #EAEAEA",
"G 	c #E4E4E4",
"H 	c #ABC5E1",
"I 	c #4A8CD8",
"J 	c #659EDE",
"K 	c #C2D8F2",
"L 	c #679FDE",
"M 	c #C8DCF3",
"N 	c #BAD3F0",
"O 	c #F3F3F3",
"P 	c #FAFAFA",
"Q 	c #E3E3E3",
"R 	c #B7D1ED",
"S 	c #92BAE8",
"T 	c #C6DBF3",
"U 	c #5594DB",
"V 	c #4D8ED9",
"W 	c #DFDFDF",
"X 	c #EFEFEF",
"Y 	c #A8C2DE",
"Z 	c #E1ECF9",
"` 	c #CADEF4",
" .	c #B6D1EF",
"..	c #EBEBEB",
"+.	c #CCCCCC",
"@.	c #B5CFEB",
"#.	c #629CDD",
"$.	c #5694DB",
"%.	c #DBDBDB",
"&.	c #CADDF3",
"*.	c #E0E7EF",
"=.	c #DBE4EE",
"-.	c #D0D9E3",
";.	c #E7F0FA",
">.	c #E8E8E8",
",.	c #E0E0E0",
"'.	c #E7E7E7",
").	c #F0F0F0",
"!.	c #FEFEFE",
"~.	c #F2F2F2",
"{.	c #F4F4F4",
"].	c #EDEDED",
"                                                ",
"                                                ",
"                  . + + + + + + + + + + + @     ",
"                # $ $ $ $ $ $ $ $ $ $ $ $ $     ",
"                % $ $ $ $ & * = - ; $ $ $ $     ",
"                % $ $ $ > , ' ) ! ~ { $ $ $     ",
"                ] $ $ ^ / ( $ _ : < [ } $ $     ",
"      | 1 1 1 1 2 $ $ 3 4 4 5 6 7 8 9 0 $ $     ",
"    a b b b b b c $ d e $ f g $ h i : j $ $     ",
"    a b b b k l c $ m n $ e o $ p q : r $ $     ",
"    a b b s t u v $ w x $ y z A B C } D $ $     ",
"    a b b E F G H $ I 7 _ J y K L M N d $ $     ",
"    a b b O P Q R $ $ S T U $ $ $ V $ $ $ $     ",
"    a b b b W X Y $ $ $ C Z ` c /  .$ $ $ $     ",
"    a b b ..+.| @.$ $ $ $ : #.9 $.$ $ $ $ $     ",
"    a b 1 %.u | &.$ $ $ $ $ $ $ $ $ $ $ $ $     ",
"    a b b b %.| b *.=.=.-.;.;.;.                ",
"    a b b b %.| b b >.,.'.b b b                 ",
"    a b b b ).!.b b ~.k s b b b                 ",
"    a b b b b b b b b b b b b b                 ",
"      ~.{.{.{.{.{.{.{.{.{.{.{.].                ",
"                                                ",
"                                                ",
"                                                "};
