/* XPM */
static char * ccsm_xpm[] = {
"24 24 45 1",
" 	c None",
".	c #17546F",
"+	c #2F8AB9",
"@	c #38A0D4",
"#	c #308BB8",
"$	c #3496C7",
"%	c #379ED2",
"&	c #369DCF",
"*	c #86B8D0",
"=	c #379DD0",
"-	c #2F83AE",
";	c #7E9FAF",
">	c #318BB9",
",	c #389FD3",
"'	c #369BCE",
")	c #93BFD5",
"!	c #3187B3",
"~	c #CCDEE7",
"{	c #FFFFFF",
"]	c #97BDD0",
"^	c #3390BF",
"/	c #3C89AE",
"(	c #D9E7EE",
"_	c #3089B6",
":	c #96BBCD",
"<	c #E5EBEE",
"[	c #6DA2BD",
"}	c #3495C6",
"|	c #318CBA",
"1	c #7EA4B7",
"2	c #3D98C7",
"3	c #9BBBCB",
"4	c #389ECF",
"5	c #399DCE",
"6	c #DFEDF4",
"7	c #ADD1E3",
"8	c #429BC9",
"9	c #FDFEFF",
"0	c #D7E9F2",
"a	c #389FD2",
"b	c #81B7D2",
"c	c #D8E5EB",
"d	c #61AACE",
"e	c #86B7D0",
"f	c #379DD2",
"                        ",
"                        ",
"   ..................   ",
"  +@@@@@@@@@@@@@@@@@@#  ",
"  $@@@@@@@@@@@@@@@@@@$  ",
"  $@@@@@@%@@@@@%@@@@@$  ",
"  $@@@@@&*@@@@&*@@@@@$  ",
"  $@@@@=-;>,@@')@@@@@$  ",
"  $@@@@!~{]^@@')@@@@@$  ",
"  $@@@@/{{(_@@')@@@@@$  ",
"  $@@@@>:<[}@@')@@@@@$  ",
"  $@@@@,|1}@@@')@@@@@$  ",
"  $@@@@@')@@@@234@@@@$  ",
"  $@@@@@')@@@56{7@@@@$  ",
"  $@@@@@')@@@89{0a@@@$  ",
"  $@@@@@')@@@,bcd@@@@$  ",
"  $@@@@@')@@@@')@@@@@$  ",
"  $@@@@@&e@@@@&e@@@@@$  ",
"  $@@@@@@f@@@@@f@@@@@$  ",
"  $@@@@@@@@@@@@@@@@@@$  ",
"  #@@@@@@@@@@@@@@@@@@#  ",
"   ..................   ",
"                        ",
"                        "};
