/* XPM */
static char * dconf_editor_xpm[] = {
"24 24 42 1",
" 	c None",
".	c #CACACA",
"+	c #F1F1F1",
"@	c #F2F2F2",
"#	c #F8F8F8",
"$	c #F4F4F4",
"%	c #FAFAFA",
"&	c #F3F3F3",
"*	c #EBEBEB",
"=	c #F7F0F0",
"-	c #F2DAD9",
";	c #F2D9D8",
">	c #F8F3F3",
",	c #E2877E",
"'	c #E7746B",
")	c #EB776D",
"!	c #E3867E",
"~	c #E8BEBA",
"{	c #E2A8A3",
"]	c #DE857D",
"^	c #E38F89",
"/	c #EE756C",
"(	c #EE756B",
"_	c #E48D86",
":	c #FEFDFD",
"<	c #FFFFFF",
"[	c #F0DCDA",
"}	c #E39089",
"|	c #E4736A",
"1	c #F0D8D6",
"2	c #DA7F77",
"3	c #E4918A",
"4	c #E48B84",
"5	c #EFDBDA",
"6	c #E28F89",
"7	c #F9F4F4",
"8	c #E1867E",
"9	c #E8746A",
"0	c #E8BDBA",
"a	c #DE847D",
"b	c #F8F1F1",
"c	c #C9C9C9",
"                        ",
"                        ",
"  .+@@@@@@@@@@@@@@@@+.  ",
"  +#$%%%%%%%%%%%%%%&#+  ",
"  @$*%%%%%%%%%%%%%%*$@  ",
"  @%%%%%%%%%%%%%%%%%%@  ",
"  @%%%%%%%%%%%%%%%%%%@  ",
"  @%%%%%%%%%%%%%%%%%%@  ",
"  @%%%%%=-;;;;-=%%%%%@  ",
"  @%%%>,'))))!~{]>%%%@  ",
"  @%%%^/((((_:<<[}%%%@  ",
"  @%%%|(((((1<<<<2%%%@  ",
"  @%%%|(((((1<<<<2%%%@  ",
"  @%%%3/((((4:<<56%%%@  ",
"  @%%%789))))!0{a7%%%@  ",
"  @%%%%%b-;;;;-b%%%%%@  ",
"  @%%%%%%%%%%%%%%%%%%@  ",
"  @%%%%%%%%%%%%%%%%%%@  ",
"  @%%%%%%%%%%%%%%%%%%@  ",
"  @&*%%%%%%%%%%%%%%*$@  ",
"  +#$%%%%%%%%%%%%%%$#+  ",
"  .+@@@@@@@@@@@@@@@@+c  ",
"                        ",
"                        "};
