/* XPM */
static char * default_folder_xpm[] = {
"24 24 33 1",
" 	c None",
".	c #DADADA",
"+	c #E7E7E7",
"@	c #F9F9F9",
"#	c #FBFBFB",
"$	c #CECECE",
"%	c #CDCDCD",
"&	c #FCFCFC",
"*	c #F3F3F3",
"=	c #FFFFFF",
"-	c #EBEFF4",
";	c #C6D2E1",
">	c #BBC7D7",
",	c #F2F5F8",
"'	c #7BA5D8",
")	c #6BA4E7",
"!	c #2F66AA",
"~	c #477FC0",
"{	c #7CA4D3",
"]	c #82A9D7",
"^	c #7DA5D6",
"/	c #6CA5E7",
"(	c #356BAD",
"_	c #6BA3E6",
":	c #3468AA",
"<	c #669CDB",
"[	c #659BDA",
"}	c #669CDC",
"|	c #659AD9",
"1	c #69A1E2",
"2	c #6499D8",
"3	c #689FE1",
"4	c #3066A8",
"                        ",
"                        ",
"                        ",
"    .+++++.             ",
"  +@#$%%%$&@@@@@@@@@@+  ",
"  *========-;;;;;;;;;>  ",
"  *=======,')))))))))))!",
" ~{]]]]]]]^/)))))))))))(",
"())))))))))))))))))))))(",
"())))))))))))))))))))))(",
"())))))))))))))))))))))(",
"())))))))))))))))))))))(",
"())))))))))))))))))))))(",
"())))))))))))))))))))))(",
"())))))))))))))))))))))(",
"())))))))))))))))))))))(",
"()))))))))))))))))))))_:",
"())))))))))))))))))))_<:",
"()))))))))))))))))))_[}(",
"())))))))))))))))))_|[1(",
"!)))))))))))))))))_2|3)4",
"                        ",
"                        ",
"                        "};
