/* XPM */
static char * default_user_desktop_xpm[] = {
"24 24 42 1",
" 	c None",
".	c #3B3D47",
"+	c #4C525C",
"@	c #474E56",
"#	c #4C535C",
"$	c #464D55",
"%	c #444A53",
"&	c #4B515B",
"*	c #4A505A",
"=	c #5D626C",
"-	c #4D535D",
";	c #393D47",
">	c #424950",
",	c #4D525D",
"'	c #444852",
")	c #424650",
"!	c #3F434C",
"~	c #4B505A",
"{	c #474B56",
"]	c #41454E",
"^	c #71757D",
"/	c #515661",
"(	c #3D454C",
"_	c #636A78",
":	c #848A95",
"<	c #999EA7",
"[	c #6F7683",
"}	c #7D838F",
"|	c #777C89",
"1	c #646B79",
"2	c #757C88",
"3	c #888E99",
"4	c #959AA3",
"5	c #7E848F",
"6	c #858B96",
"7	c #818793",
"8	c #373942",
"9	c #515863",
"0	c #515964",
"a	c #535B66",
"b	c #636A75",
"c	c #343942",
"                        ",
"                        ",
"                        ",
".+@@######$%%$####&*$=-;",
">,'',,,,,,)!!),,,,~{]^/>",
"(______________________(",
"(______________________(",
"(______________________(",
"(______________________(",
"(______________________(",
"(______________________(",
"(______________________(",
"(______________________(",
"(______________________(",
"(______________________(",
"(______________________(",
"(______________________(",
"(______________________(",
"(_____:<[}<||<}[<:_____(",
"(___1234564774654321___(",
"8900abbbbbbbbbbbbbba009c",
"                        ",
"                        ",
"                        "};
