/* XPM */
static char * firefox_xpm[] = {
"24 24 197 2",
"  	c None",
". 	c #CB7A04",
"+ 	c #C67A0D",
"@ 	c #F3970E",
"# 	c #D07E07",
"$ 	c #2B4BA7",
"% 	c #395FC7",
"& 	c #406BDA",
"* 	c #426EE0",
"= 	c #3F6BDA",
"- 	c #B98038",
"; 	c #FFA012",
"> 	c #ED9311",
", 	c #CE7D05",
"' 	c #CD7B06",
") 	c #2A49A3",
"! 	c #3F6AD9",
"~ 	c #4370E2",
"{ 	c #5170C7",
"] 	c #EA9318",
"^ 	c #F29811",
"/ 	c #F0960F",
"( 	c #E07406",
"_ 	c #D36E0B",
": 	c #3154B5",
"< 	c #4270E2",
"[ 	c #5370C7",
"} 	c #827A88",
"| 	c #5E72B5",
"1 	c #6772A6",
"2 	c #F99B10",
"3 	c #D9880C",
"4 	c #EB7108",
"5 	c #E77611",
"6 	c #927A6D",
"7 	c #957C6A",
"8 	c #937A69",
"9 	c #DC8E22",
"0 	c #A47D54",
"a 	c #4470DF",
"b 	c #5471C4",
"c 	c #EB9418",
"d 	c #F9A211",
"e 	c #C87D0B",
"f 	c #E67A0F",
"g 	c #F79912",
"h 	c #6D729D",
"i 	c #B28147",
"j 	c #FFC809",
"k 	c #E4B010",
"l 	c #98641C",
"m 	c #EF9614",
"n 	c #FE9910",
"o 	c #DC6F1C",
"p 	c #C47038",
"q 	c #A3715D",
"r 	c #5871BF",
"s 	c #D48C2A",
"t 	c #FFB80D",
"u 	c #FEE802",
"v 	c #D8A80A",
"w 	c #B67727",
"x 	c #FF9D11",
"y 	c #F97809",
"z 	c #EF740C",
"A 	c #A2735A",
"B 	c #70749C",
"C 	c #E7941E",
"D 	c #FEB30D",
"E 	c #FEE203",
"F 	c #EECF09",
"G 	c #DB8C1C",
"H 	c #E3821B",
"I 	c #7A7190",
"J 	c #85777C",
"K 	c #F89B14",
"L 	c #FFBB0B",
"M 	c #FEDC04",
"N 	c #FADE04",
"O 	c #D5891C",
"P 	c #F39915",
"Q 	c #CA8728",
"R 	c #4470E1",
"S 	c #4370E0",
"T 	c #BF873A",
"U 	c #FFB60C",
"V 	c #FFC00A",
"W 	c #FED605",
"X 	c #FEDB04",
"Y 	c #DC9E04",
"Z 	c #D38B23",
"` 	c #FE9911",
" .	c #FA7E0B",
"..	c #A0725B",
"+.	c #6370AA",
"@.	c #C19F3D",
"#.	c #FEC308",
"$.	c #FFC409",
"%.	c #FFCF06",
"&.	c #FED405",
"*.	c #E1AA04",
"=.	c #CC8727",
"-.	c #FC8B0D",
";.	c #F87709",
">.	c #CB6F2B",
",.	c #4E70CE",
"'.	c #4D72D2",
").	c #7A708D",
"!.	c #5670C3",
"~.	c #5078D2",
"{.	c #D6AC27",
"].	c #FEC109",
"^.	c #FEC408",
"/.	c #FFC907",
"(.	c #E2A704",
"_.	c #BE8131",
":.	c #FD8F0E",
"<.	c #FA800B",
"[.	c #E37215",
"}.	c #CC702B",
"|.	c #E57113",
"1.	c #F67508",
"2.	c #E47113",
"3.	c #6671AC",
"4.	c #5B72BA",
"5.	c #788499",
"6.	c #F0B010",
"7.	c #FEBB0A",
"8.	c #FEC009",
"9.	c #FDC707",
"0.	c #DC9D05",
"a.	c #A5753B",
"b.	c #FF9F12",
"c.	c #FD930F",
"d.	c #FC8D0E",
"e.	c #FD900E",
"f.	c #FA9410",
"g.	c #BD843D",
"h.	c #79738D",
"i.	c #476FDB",
"j.	c #A87F52",
"k.	c #D49A2A",
"l.	c #FEB30B",
"m.	c #FFB70B",
"n.	c #FEBF09",
"o.	c #F0BA0A",
"p.	c #8D6332",
"q.	c #F09817",
"r.	c #FD9F12",
"s.	c #CC8320",
"t.	c #99795E",
"u.	c #777591",
"v.	c #4670DE",
"w.	c #8F786F",
"x.	c #F49C15",
"y.	c #FEAC0D",
"z.	c #FEAF0C",
"A.	c #FEB20C",
"B.	c #FFB60B",
"C.	c #FEBA0A",
"D.	c #E2A60B",
"E.	c #B37C33",
"F.	c #D98E24",
"G.	c #AE824F",
"H.	c #A87F56",
"I.	c #C68834",
"J.	c #FC9F10",
"K.	c #FFA70F",
"L.	c #FFA90E",
"M.	c #FFB20C",
"N.	c #F3AE0D",
"O.	c #DC9406",
"P.	c #D98D23",
"Q.	c #FFA211",
"R.	c #FEA410",
"S.	c #FDAD0C",
"T.	c #D7940E",
"U.	c #946A3A",
"V.	c #E5941D",
"W.	c #FFA60F",
"X.	c #FDA70E",
"Y.	c #D08D16",
"Z.	c #9A6B37",
"`.	c #DA8E21",
" +	c #F09C14",
".+	c #C6811A",
"++	c #B37B31",
"@+	c #EA9519",
"#+	c #F39814",
"$+	c #C17F28",
"%+	c #BF770E",
"&+	c #AE752B",
"*+	c #B77D31",
"=+	c #BE822F",
"-+	c #C2832D",
";+	c #B77D32",
">+	c #B27527",
"                                                ",
"                              .                 ",
"                            + @ #               ",
"                $ % & * * = - ; > , '           ",
"            ) ! ~ ~ ~ ~ ~ { ] ; ; ^ /           ",
"      ( _ : < ~ [ } | ~ ~ 1 2 ; ; ; ; 3         ",
"      4 5 6 7 8 9 0 a ~ ~ b c ; ; ; ; d e       ",
"      f ; ; ; ; g h ~ ~ ~ ~ i ; ; ; ; j k       ",
"    l m ; ; ; ; n o p q ~ ~ r s ; ; ; t u v     ",
"    w ; ; ; ; ; x y z A ~ ~ ~ B C ; ; D E F     ",
"    G ; ; ; ; ; ; H I ~ ~ ~ ~ ~ J K ; L M N     ",
"    O ; ; ; ; ; P Q R ~ ~ ~ ~ ~ S T U V W X Y   ",
"    Z ; ; ; `  ...+.S ~ ~ ~ ~ ~ ~ @.#.$.%.&.*.  ",
"    =.; ; ; -.;.>.,.~ '.).!.~ ~ ~.{.].^./.%.(.  ",
"    _.; ; ; :.<.;.[.}.|.1.2.3.4.5.6.7.8.#.9.0.  ",
"    a.; ; ; ; b.c.d.e.f.g.h.i.j.k.l.m.7.n.o.    ",
"    p.q.; ; ; ; r.s.t.u.v.v.w.x.y.z.A.B.C.D.    ",
"      E.; ; ; ; ; b.F.G.H.I.J.K.L.y.z.M.N.O.    ",
"        P.; ; ; ; ; ; ; ; ; Q.R.K.L.y.S.T.      ",
"        U.V.; ; ; ; ; ; ; ; ; Q.R.W.X.Y.        ",
"          Z.`.; ; ; ; ; ; ; ; ; Q. +.+          ",
"              ++@+; ; ; ; ; ; #+$+%+            ",
"                  &+*+=+-+;+>+                  ",
"                                                "};
