/* XPM */
static char * gnome_power_manager_xpm[] = {
"24 24 53 1",
" 	c None",
".	c #5A9534",
"+	c #65A93A",
"@	c #579030",
"#	c #579032",
"$	c #63A639",
"%	c #6DB63F",
"&	c #71BB42",
"*	c #71BC42",
"=	c #558E2F",
"-	c #589832",
";	c #64A639",
">	c #71BB41",
",	c #518E2D",
"'	c #6AB23E",
")	c #6BB13E",
"!	c #528D2E",
"~	c #69B13E",
"{	c #6CB23E",
"]	c #599733",
"^	c #64A63A",
"/	c #6BB33E",
"(	c #C2DCB1",
"_	c #C3DDB3",
":	c #71BC41",
"<	c #85BD61",
"[	c #AED198",
"}	c #FFFFFF",
"|	c #70BB42",
"1	c #539031",
"2	c #B4D59F",
"3	c #F6FEE7",
"4	c #E7FDC0",
"5	c #C0F957",
"6	c #6DB53F",
"7	c #579533",
"8	c #538E30",
"9	c #F3FEDF",
"0	c #DFFCAB",
"a	c #528E30",
"b	c #539131",
"c	c #71BA42",
"d	c #599432",
"e	c #63A539",
"f	c #62A63A",
"g	c #568F30",
"h	c #579232",
"i	c #8FC16F",
"j	c #CDE3BF",
"k	c #62A53B",
"l	c #5A9833",
"m	c #538F31",
"n	c #64A93B",
"                        ",
"         .+@@@@         ",
"       #$%&**&%$=       ",
"     -;&********>$=     ",
"    ,'************)!    ",
"   #~**************{]   ",
"   ^****/(____(/****$   ",
"  #:***<[}}}}}}[<***|1  ",
"  $****2344444432****$  ",
" #%****2455555542****67 ",
" 8&****2900000092****|+ ",
" #*****2344444432*****a ",
" a*****2455555542*****b ",
" +|****2900000092****ca ",
" d%****2344444432****6b ",
"  e****2455555542****f  ",
"  g>***2900000092***&h  ",
"   $***ijjjjjjjji***k   ",
"   ]~**************{h   ",
"    !)************~!    ",
"     =$>********:fl     ",
"       =$6|**|6fg       ",
"         mmmmnd         ",
"                        "};
