/* XPM */
static char * gnome_mines_xpm[] = {
"24 24 70 1",
" 	c None",
".	c #000000",
"+	c #0F0F0F",
"@	c #202020",
"#	c #323232",
"$	c #393939",
"%	c #3A3A3A",
"&	c #212121",
"*	c #3C3C3C",
"=	c #3E3E3E",
"-	c #0D0D0D",
";	c #2D2D2D",
">	c #3B3B3B",
",	c #434343",
"'	c #4B4B4B",
")	c #4E4E4E",
"!	c #4A4A4A",
"~	c #2C2C2C",
"{	c #3D3D3D",
"]	c #4D4D4D",
"^	c #B8B8B8",
"/	c #B5B5B5",
"(	c #565656",
"_	c #CACACA",
":	c #CCCCCC",
"<	c #616161",
"[	c #C1C1C1",
"}	c #787878",
"|	c #A5A5A5",
"1	c #D7D7D7",
"2	c #6F6F6F",
"3	c #707070",
"4	c #A1A1A1",
"5	c #C3C3C3",
"6	c #424242",
"7	c #646464",
"8	c #EEEEEE",
"9	c #ECECEC",
"0	c #858585",
"a	c #FFFFFF",
"b	c #878787",
"c	c #5F5F5F",
"d	c #6E6E6E",
"e	c #BEBEBE",
"f	c #FEFEFE",
"g	c #BFBFBF",
"h	c #6A6A6A",
"i	c #9F9F9F",
"j	c #BCBCBC",
"k	c #989898",
"l	c #949494",
"m	c #C0C0C0",
"n	c #9E9E9E",
"o	c #0B0B0B",
"p	c #A0A0A0",
"q	c #0C0C0C",
"r	c #7C7C7C",
"s	c #636363",
"t	c #5D5D5D",
"u	c #E9E9E9",
"v	c #EDEDED",
"w	c #E4E4E4",
"x	c #5A5A5A",
"y	c #7D7D7D",
"z	c #ADADAD",
"A	c #6D6D6D",
"B	c #ACACAC",
"C	c #5B5B5B",
"D	c #D2D2D2",
"E	c #BDBDBD",
"                        ",
"          .++.          ",
"       +@#$%%$#@+       ",
"      &$%%*==*%%$@      ",
"    -;%>,'))))!,>%~-    ",
"    ~%{'))))))))'{%;    ",
"   &%{]))))^/))))]{%@   ",
"  +$>'))))(_:())))'>$+  ",
"  @%,)<[}|12314}5<)6%@  ",
"  #%')7890aaaab987)!%#  ",
" .$*)))cdefegfeh<)))*$. ",
" +%=)))ifajklmaan)))=%o ",
" o%=)))paa5llmaai)))=%q ",
" .$*)))7rgf[[feds)))*$. ",
"  #%!)tuvbaaaabwut)!%#  ",
"  @%,)xmyz13A1Bymx)6%@  ",
"  +$>'))))CD_x))))'>$+  ",
"   @%{]))))E/))))]{%@   ",
"    ~%{'))))))))'{%~    ",
"    -~%>6!))))!6>%~-    ",
"      @$%%*==*%%$@      ",
"       +@#$%%$#@+       ",
"          .oo.          ",
"                        "};
