/* XPM */
static char * gwenview_xpm[] = {
"24 24 76 1",
" 	c None",
".	c #3B484F",
"+	c #3C4D56",
"@	c #3C4F56",
"#	c #3E5059",
"$	c #868693",
"%	c #A98EA4",
"&	c #9F97AC",
"*	c #9D99AD",
"=	c #818A96",
"-	c #3F515A",
";	c #D37AA7",
">	c #F4416B",
",	c #E64178",
"'	c #A541B2",
")	c #A341B4",
"!	c #BF9DCB",
"~	c #F4416C",
"{	c #B741A2",
"]	c #BE9BCB",
"^	c #D64186",
"/	c #A242B6",
"(	c #9450C9",
"_	c #AC85D0",
":	c #F0416F",
"<	c #AB41AC",
"[	c #9C49BE",
"}	c #8D59D4",
"|	c #8A5CD8",
"1	c #AB85D0",
"2	c #C54195",
"3	c #A243B7",
"4	c #9451CA",
"5	c #A441B3",
"6	c #9B49BE",
"7	c #8C59D4",
"8	c #B641A4",
"9	c #A143B7",
"0	c #9352CB",
"a	c #D44187",
"b	c #9B4AC0",
"c	c #8C59D5",
"d	c #EF4170",
"e	c #AA41AE",
"f	c #A144B7",
"g	c #9253CD",
"h	c #C54197",
"i	c #8C5BD6",
"j	c #E4417A",
"k	c #A044B8",
"l	c #9155CE",
"m	c #8660D8",
"n	c #796FD8",
"o	c #6B7FD7",
"p	c #948DD1",
"q	c #F3416B",
"r	c #B541A4",
"s	c #994CC2",
"t	c #8B5AD6",
"u	c #8760D8",
"v	c #7A6ED7",
"w	c #6C7ED7",
"x	c #5E8DD7",
"y	c #519CD7",
"z	c #46A9D6",
"A	c #8593D3",
"B	c #D34189",
"C	c #9F44B9",
"D	c #9055CF",
"E	c #CE82AF",
"F	c #9851BF",
"G	c #7A6ED6",
"H	c #858E9C",
"I	c #989DBF",
"J	c #979DBF",
"K	c #828FA0",
"                        ",
"                        ",
"                        ",
" .+@@@@@@@@@@@@@@@@@@+  ",
" #$%%%%%%%%&*********=# ",
" -;>>>>>>>,')))))))))!- ",
" -;>>>>>>~{))))))))))]- ",
" -;>>>>>>^)))))))))/(_- ",
" -;>>>>>:<))))))))[}|1- ",
" -;>>>>>2)))))))34|||1- ",
" -;>>>>,5))))))67||||1- ",
" -;>>>~8)))))90||||||1- ",
" -;>>>a)))))bc|||||||1- ",
" -;>>de)))fg|||||||||1- ",
" -;>>h)))bi||||||||||1- ",
" -;>j5)kl|||||||||mnop- ",
" -;qr)st|||||uvwxyzzzA- ",
" -;BCD||uvwxyzzzzzzzzA- ",
" -EFGwxyzzzzzzzzzzzzzA- ",
" #HIJJJJJJJJJJJJJJJJJK# ",
"  +@@@@@@@@@@@@@@@@@@+  ",
"                        ",
"                        ",
"                        "};
