/* XPM */
static char * hb_icon_xpm[] = {
"24 24 119 2",
"  	c None",
". 	c #48AB80",
"+ 	c #2C9668",
"@ 	c #39A373",
"# 	c #3DA377",
"$ 	c #249A66",
"% 	c #0D7B4A",
"& 	c #0A8F53",
"* 	c #279A66",
"= 	c #38A172",
"- 	c #129359",
"; 	c #09804B",
"> 	c #C7C7C7",
", 	c #C8C8C8",
"' 	c #09834D",
") 	c #0A8F54",
"! 	c #109258",
"~ 	c #E1C0C0",
"{ 	c #DD4545",
"] 	c #CF4141",
"^ 	c #C26B6B",
"/ 	c #329F6E",
"( 	c #1D935F",
"_ 	c #37A072",
": 	c #339F6F",
"< 	c #38A073",
"[ 	c #E15F5F",
"} 	c #D41717",
"| 	c #A51414",
"1 	c #C79B9B",
"2 	c #097042",
"3 	c #0A884F",
"4 	c #208E5D",
"5 	c #D4AAAA",
"6 	c #D51C1C",
"7 	c #C11515",
"8 	c #B65454",
"9 	c #6E6A29",
"0 	c #9E902B",
"a 	c #15844E",
"b 	c #0C8C53",
"c 	c #E16E6E",
"d 	c #D31717",
"e 	c #A11515",
"f 	c #BD9898",
"g 	c #8F8228",
"h 	c #8C8026",
"i 	c #7E7322",
"j 	c #73691F",
"k 	c #6E651E",
"l 	c #69601D",
"m 	c #118E57",
"n 	c #218A5A",
"o 	c #C3A5A5",
"p 	c #D62323",
"q 	c #BB1414",
"r 	c #BB6161",
"s 	c #9A8C2A",
"t 	c #6F651E",
"u 	c #756B20",
"v 	c #7B7021",
"w 	c #5E5519",
"x 	c #5D5519",
"y 	c #72681F",
"z 	c #796E21",
"A 	c #DD7777",
"B 	c #D21717",
"C 	c #A21D1D",
"D 	c #837723",
"E 	c #766C20",
"F 	c #665D1B",
"G 	c #6E641E",
"H 	c #6B611D",
"I 	c #786D20",
"J 	c #62591A",
"K 	c #D82D2D",
"L 	c #B51414",
"M 	c #BD6B6B",
"N 	c #635A1B",
"O 	c #827623",
"P 	c #70661E",
"Q 	c #665D1C",
"R 	c #D88B8B",
"S 	c #C81717",
"T 	c #AA3535",
"U 	c #69601C",
"V 	c #7D7222",
"W 	c #6C631D",
"X 	c #645B1B",
"Y 	c #6F661E",
"Z 	c #71671F",
"` 	c #807522",
" .	c #675E1C",
"..	c #E0B1B1",
"+.	c #CEBABA",
"@.	c #756A1F",
"#.	c #5F571A",
"$.	c #685E1C",
"%.	c #DDDDDD",
"&.	c #746A1F",
"*.	c #61581A",
"=.	c #DCDCDC",
"-.	c #6B621D",
";.	c #807523",
">.	c #5F561A",
",.	c #5A5218",
"'.	c #796F21",
").	c #7C7222",
"!.	c #61591A",
"~.	c #575018",
"{.	c #E7E7E7",
"].	c #5E5619",
"^.	c #6A601D",
"/.	c #5C5419",
"(.	c #514916",
"_.	c #D2D2D2",
":.	c #CACACA",
"<.	c #CECECE",
"[.	c #BABABA",
"                                                ",
"                                        .       ",
"                            + @     # $ %       ",
"                              & * = - ;         ",
"  > , , , , , , , , , ,       ' ) ! )           ",
"  ~ { { { { { { { { ] ^     / ( ) ) ) _ : <     ",
"    [ } } } } } } } | 1     2 ) ) ) ) ) & 3 4   ",
"    5 6 } } } } } 7 8         9 0 a ) b         ",
"      c } } } } d e f   g h i j k l i m n       ",
"      o p } } } q r   s t u v w x u y z         ",
"        A } } B C     D E w F G H I j J         ",
"          K } L M   D N j w F O H x P Q i       ",
"          R S T     U x H V W X Y w Z `  .      ",
"            ..+.  X @.P Z E #.x E I F G $.      ",
"            %.    k I &.x *.E y k j x #.V       ",
"            =.    y x Z X k V  .x W Z j -.      ",
"            =.    G x k ;.N >.j X @.V w ,.      ",
"            =.    j I U Y X #.'.I >.F W         ",
"            =.    X j x >.V &.X j w X ).        ",
"            =.      -.k j j U x U v Y           ",
"            =.      !.i w x @.k y I ~.          ",
"            {.        ].^.F '.@./.(.            ",
"        _._.:.<._.[.      ,.(.                  ",
"                                                "};
