/* XPM */
static char * hexchat_24x24_xpm[] = {
"24 24 109 2",
"  	c None",
". 	c #120F15",
"+ 	c #1A1922",
"@ 	c #1D1D25",
"# 	c #1F1E28",
"$ 	c #1F1E29",
"% 	c #201F29",
"& 	c #0D0D11",
"* 	c #262532",
"= 	c #0D0D12",
"- 	c #060606",
"; 	c #22212E",
"> 	c #282734",
", 	c #2E2D39",
"' 	c #2F2E3B",
") 	c #302F3C",
"! 	c #15141D",
"~ 	c #353440",
"{ 	c #3A3945",
"] 	c #403C45",
"^ 	c #14141C",
"/ 	c #0A0A0F",
"( 	c #252431",
"_ 	c #3C3A45",
": 	c #C08639",
"< 	c #F9A834",
"[ 	c #FFAB34",
"} 	c #2E2D3A",
"| 	c #262531",
"1 	c #0B0A0F",
"2 	c #1C1B25",
"3 	c #393944",
"4 	c #966E3D",
"5 	c #F8A734",
"6 	c #84643F",
"7 	c #7C5F3F",
"8 	c #86653E",
"9 	c #FAA835",
"0 	c #282733",
"a 	c #1C1B24",
"b 	c #33323E",
"c 	c #534843",
"d 	c #F7A635",
"e 	c #E89E36",
"f 	c #A2753C",
"g 	c #AA7A3C",
"h 	c #E39B37",
"i 	c #201E29",
"j 	c #2A2936",
"k 	c #C1873A",
"l 	c #EA9F35",
"m 	c #494244",
"n 	c #DE9837",
"o 	c #FDAA34",
"p 	c #655241",
"q 	c #6B5541",
"r 	c #FDAA35",
"s 	c #D79437",
"t 	c #474043",
"u 	c #201F2A",
"v 	c #0F0F16",
"w 	c #6B5641",
"x 	c #82623F",
"y 	c #615041",
"z 	c #FBA934",
"A 	c #E29A36",
"B 	c #E59C36",
"C 	c #5B4C42",
"D 	c #34333F",
"E 	c #0F0F14",
"F 	c #CB8D38",
"G 	c #D89438",
"H 	c #3B3A45",
"I 	c #9C723D",
"J 	c #976E3D",
"K 	c #1F1E27",
"L 	c #292835",
"M 	c #715940",
"N 	c #6F5841",
"O 	c #443F44",
"P 	c #E69D36",
"Q 	c #453F44",
"R 	c #B07E3B",
"S 	c #946D3E",
"T 	c #B37F3B",
"U 	c #1F1F29",
"V 	c #0C0C11",
"W 	c #544843",
"X 	c #CD8E39",
"Y 	c #FEAA34",
"Z 	c #D29138",
"` 	c #3C3A44",
" .	c #D19038",
"..	c #CE8F38",
"+.	c #0D0C11",
"@.	c #DB9637",
"#.	c #9B713C",
"$.	c #1B1B24",
"%.	c #0A0A0C",
"&.	c #483D3A",
"*.	c #252430",
"=.	c #0A0A0D",
"-.	c #15141C",
";.	c #7F5C32",
">.	c #A8773A",
",.	c #2D2932",
"'.	c #21212D",
").	c #1A1921",
"!.	c #1E1E28",
"                                                ",
"                                                ",
"            . + @ # $ % % $ # @ + .             ",
"          & * * * * * * * * * * * * =           ",
"        - ; * > , ' ' ) ) ' ' , > * ; -         ",
"        ! * * ~ { { { ] ] { { { ~ * * ^         ",
"      / ( * ' _ : < [ [ [ [ < : _ } * | 1       ",
"      2 * > 3 4 [ 5 6 7 7 8 9 [ 4 3 0 * a       ",
"    = * * b c d e [ f { { g [ h d c b * * &     ",
"    i * j { k l m n o p q r s t l k { j * u     ",
"  v * * ~ w [ x { y z A B 9 C { x [ w D * * E   ",
"  # * j { F G H { { I [ [ J { { H G F { j * #   ",
"  K * L { F G H { { M [ [ N { { H G F { j * #   ",
"  v * * ~ w [ x { O P < < P Q { x [ w D * * E   ",
"    $ * L { k l O R [ S S [ T O l k { j * U     ",
"    V * * b W 5 X Y Z _ `  .[ ..d c b * * +.    ",
"      2 * > 3 @.[ [ I 7 7 #.[ [ 4 3 0 * $.      ",
"      %.( * &.Y d < [ [ [ [ < : _ } * *.=.      ",
"        -.* ;.>.m { { ] ] { { { ~ * * ^         ",
"        - ; ,.> , ' ' ' ' ' ' , > * '.-         ",
"          +.* * * * * * * * * * * * V           ",
"            . ).@ !.$ i i $ !.@ )..             ",
"                                                ",
"                                                "};
