/* XPM */
static char * imagemagick_xpm[] = {
"24 24 78 1",
" 	c None",
".	c #0F0F0F",
"+	c #111111",
"@	c #141414",
"#	c #101010",
"$	c #050505",
"%	c #080808",
"&	c #202020",
"*	c #323232",
"=	c #393939",
"-	c #3A3A3A",
";	c #151515",
">	c #212121",
",	c #3C3C3C",
"'	c #3E3E3E",
")	c #070707",
"!	c #121212",
"~	c #2D2D2D",
"{	c #3B3B3B",
"]	c #434343",
"^	c #4B4B4B",
"/	c #4E4E4E",
"(	c #4A4A4A",
"_	c #2C2C2C",
":	c #3D3D3D",
"<	c #4D4D4D",
"[	c #575757",
"}	c #919191",
"|	c #A1A1A1",
"1	c #939393",
"2	c #6F6F6F",
"3	c #6C6C6C",
"4	c #EDEDED",
"5	c #FFFFFF",
"6	c #909090",
"7	c #424242",
"8	c #525252",
"9	c #E3E3E3",
"0	c #D8D8D8",
"a	c #BCBCBC",
"b	c #040404",
"c	c #9B9B9B",
"d	c #F4F4F4",
"e	c #B3B3B3",
"f	c #F0F0F0",
"g	c #F9F9F9",
"h	c #5D5D5D",
"i	c #515151",
"j	c #545454",
"k	c #F1F1F1",
"l	c #F7F7F7",
"m	c #565656",
"n	c #AAAAAA",
"o	c #CBCBCB",
"p	c #D6D6D6",
"q	c #E5E5E5",
"r	c #FCFCFC",
"s	c #DEDEDE",
"t	c #C2C2C2",
"u	c #0E0E0E",
"v	c #D1D1D1",
"w	c #B9B9B9",
"x	c #DADADA",
"y	c #5F5F5F",
"z	c #E0E0E0",
"A	c #B8B8B8",
"B	c #969696",
"C	c #CACACA",
"D	c #FEFEFE",
"E	c #060606",
"F	c #858585",
"G	c #888888",
"H	c #555555",
"I	c #868686",
"J	c #9F9F9F",
"K	c #878787",
"L	c #666666",
"M	c #0D0D0D",
"                        ",
"         .+@#$%         ",
"       +&*=--=*&;       ",
"     +>=--,'',--=&)     ",
"    !~-{]^////(]{-_+    ",
"   )_-:^////////^:-~@   ",
"   >-:<//////////<:-&   ",
"  ;={^/////[}|12//^{=+  ",
"  &-]/////3455556//7-&  ",
" %*-^////8955550a//(-*. ",
" b=,/////c5defghi///,=+ ",
" #-'////jk5lmno/////'-! ",
" !-'////6pqrskt/////'-u ",
" +=,////vwoxynz/////,=b ",
" .*-(//A5555BCD6///(-*E ",
"  &-]//Fd55555qG///7-&  ",
"  !={^//HI|JKL////^{=;  ",
"   &-:<//////////<:-&   ",
"   !_-:^////////^:-_)   ",
"    !_-{7(////(7{-_!    ",
"     )&=--,'',--=&!     ",
"       ;&*=--=*&!       ",
"         EbM!+.         ",
"                        "};
