/* XPM */
static char * inkscape_xpm[] = {
"24 24 88 1",
" 	c None",
".	c #37434E",
"+	c #36434E",
"@	c #33404B",
"#	c #A9AFB7",
"$	c #AFB4BC",
"%	c #35414C",
"&	c #303D49",
"*	c #9EA5AE",
"=	c #ECEFF1",
"-	c #A3AAB2",
";	c #323F49",
">	c #323E49",
",	c #959DA7",
"'	c #939AA4",
")	c #313D48",
"!	c #323E48",
"~	c #88909B",
"{	c #A7ADB6",
"]	c #EBEEF0",
"^	c #858C97",
"/	c #303D47",
"(	c #313E49",
"_	c #7C8490",
":	c #CDD2D6",
"<	c #3F495C",
"[	c #DBDFE2",
"}	c #E5E8EB",
"|	c #D9DDE1",
"1	c #495364",
"2	c #303C47",
"3	c #323D48",
"4	c #394555",
"5	c #9DA3AC",
"6	c #E0E4E7",
"7	c #C7CBD1",
"8	c #6E7785",
"9	c #3D485B",
"0	c #9097A2",
"a	c #434D61",
"b	c #747C8A",
"c	c #3E495C",
"d	c #384555",
"e	c #323D49",
"f	c #384353",
"g	c #3A4354",
"h	c #303C48",
"i	c #313B47",
"j	c #384352",
"k	c #394353",
"l	c #303E45",
"m	c #343948",
"n	c #374251",
"o	c #364352",
"p	c #313E47",
"q	c #36414F",
"r	c #2F3B44",
"s	c #35414F",
"t	c #3D475A",
"u	c #35424E",
"v	c #2E3A45",
"w	c #2A393E",
"x	c #394656",
"y	c #3C475A",
"z	c #34404C",
"A	c #2D3941",
"B	c #2D373E",
"C	c #2F3C46",
"D	c #333E4A",
"E	c #333F4B",
"F	c #333C48",
"G	c #3A4557",
"H	c #2E3A42",
"I	c #3C485B",
"J	c #2E3C44",
"K	c #374454",
"L	c #2D3A43",
"M	c #394454",
"N	c #3A4657",
"O	c #3B4759",
"P	c #303C45",
"Q	c #2B393F",
"R	c #3C4659",
"S	c #394654",
"T	c #2C3940",
"U	c #394455",
"V	c #2C393E",
"W	c #29373B",
"                        ",
"                        ",
"           .+           ",
"          @#$%          ",
"         &*==-;         ",
"        >,====')        ",
"       !~=={]==^/       ",
"      (_]=:<[}=|12      ",
"     34567890abc9de     ",
"    (f999999999999gh    ",
"   ij99999999999999kl   ",
"  mn9999999999999999op  ",
"  q999999999999999999q  ",
"  rst99999999999999tuv  ",
"    w!x9999999999yzA    ",
"      BC999999999DEF    ",
"      eG9999999999yH    ",
"      /I999999999I)     ",
"       Jy9999999KL      ",
"        rMN999OP        ",
"          QR9SH         ",
"          TUnV          ",
"           W            ",
"                        "};
