/* XPM */
static char * kwrite_xpm[] = {
"24 24 61 1",
" 	c None",
".	c #939393",
"+	c #A2A2A2",
"@	c #BABABA",
"#	c #FFFFFF",
"$	c #F7F7F7",
"%	c #F9F9F9",
"&	c #FDFDFD",
"*	c #BFBFBF",
"=	c #E2E2E2",
"-	c #DDDDDD",
";	c #E9E9E9",
">	c #E7E7E7",
",	c #E8E8E8",
"'	c #EDEDED",
")	c #F3F3F3",
"!	c #DADADA",
"~	c #D5D5D5",
"{	c #D9D9D9",
"]	c #E1E1E1",
"^	c #DBDBDB",
"/	c #DEDEDE",
"(	c #DFDFDF",
"_	c #ECECEC",
":	c #E6E6E6",
"<	c #EFEFEF",
"[	c #EEEEEE",
"}	c #F1F1F1",
"|	c #BCBCBC",
"1	c #B6B6B6",
"2	c #F0F0F0",
"3	c #474747",
"4	c #F4F4F4",
"5	c #FEFEFE",
"6	c #616161",
"7	c #4C4C4C",
"8	c #444444",
"9	c #777777",
"0	c #595959",
"a	c #4D4D4D",
"b	c #AAAAAA",
"c	c #5E5E5E",
"d	c #818181",
"e	c #EAEAEA",
"f	c #676767",
"g	c #A5A5A5",
"h	c #B5B5B5",
"i	c #F2F2F2",
"j	c #666666",
"k	c #ABABAB",
"l	c #A1A1A1",
"m	c #656565",
"n	c #A4A4A4",
"o	c #919191",
"p	c #D7D7D7",
"q	c #AFAFAF",
"r	c #898989",
"s	c #E5E5E5",
"t	c #D8D8D8",
"u	c #B4B4B4",
"v	c #B2B2B2",
"                        ",
"                        ",
"    .++++++++++++++.    ",
"    @#$########%&&&*    ",
"    @#$=-;=>-,=')&&*    ",
"    @#$!~{]^/~(>_)&*    ",
"    @#$;:<;__;:,[}$|    ",
"    @#$;<::<#######1    ",
"    @#$;::;_:2}:<<#1    ",
"    @#$;<:::<:}::<#1 3  ",
"    @#$;:_!4######5678  ",
"    @#$;::;__;:<:[90a   ",
"    @#$;:_;<::}:<bcd    ",
"    @#$=>(/-e;_:bfgh    ",
"    @#$2[i2[i##hjk#1    ",
"    @#$;::;_:[lmn<#1    ",
"    @#$=>(/]:ojl]e#1    ",
"    @#$!/{p^qrl~^s#1    ",
"    @#$;:_;:lt#####1    ",
"    @#$############1    ",
"    u=~{{{{{{{{{{{{v    ",
"    .++++++++++++++.    ",
"                        ",
"                        "};
