/* XPM */
static char * nemo_xpm[] = {
"24 24 60 1",
" 	c None",
".	c #DADADA",
"+	c #E7E7E7",
"@	c #F9F9F9",
"#	c #FBFBFB",
"$	c #CECECE",
"%	c #CDCDCD",
"&	c #FCFCFC",
"*	c #F3F3F3",
"=	c #FFFFFF",
"-	c #EBF4EC",
";	c #C6E1CA",
">	c #BBD7BF",
",	c #F2F8F3",
"'	c #67CB97",
")	c #6BE79C",
"!	c #63D998",
"~	c #47B67C",
"{	c #69C797",
"]	c #6CC99A",
"^	c #69C996",
"/	c #6BE69D",
"(	c #64D99C",
"_	c #66DB9D",
":	c #61D699",
"<	c #62D79B",
"[	c #5FD197",
"}	c #5FD297",
"|	c #5ACC91",
"1	c #5BCD92",
"2	c #58C88D",
"3	c #58C98E",
"4	c #53C38B",
"5	c #53C38A",
"6	c #51C087",
"7	c #4FBF85",
"8	c #4DBB82",
"9	c #4BBA80",
"0	c #49B87C",
"a	c #46B57A",
"b	c #6AE59B",
"c	c #43B076",
"d	c #43B376",
"e	c #65DA93",
"f	c #42AC72",
"g	c #3FAD71",
"h	c #65D993",
"i	c #66DD95",
"j	c #3CAC70",
"k	c #38A667",
"l	c #64D892",
"m	c #66DC95",
"n	c #69E39A",
"o	c #37A669",
"p	c #2C9D5B",
"q	c #6BE69C",
"r	c #63D791",
"s	c #68E298",
"t	c #6AE59C",
"u	c #2F9D57",
"                        ",
"                        ",
"                        ",
"    .+++++.             ",
"  +@#$%%%$&@@@@@@@@@@+  ",
"  *========-;;;;;;;;;>  ",
"  *=======,'))))))))))! ",
" ~{]]]]]]]^/))))))))))( ",
" _)))))))))))))))))))): ",
" <))))))))))))))))))))[ ",
" }))))))))))))))))))))| ",
" 1))))))))))))))))))))2 ",
" 3))))))))))))))))))))4 ",
" 5))))))))))))))))))))6 ",
" 7))))))))))))))))))))8 ",
" 9))))))))))))))))))))0 ",
" a)))))))))))))))))))bc ",
" d))))))))))))))))))bef ",
" g)))))))))))))))))bhij ",
" k))))))))))))))))blmno ",
" pq))))))))))))))brestu ",
"                        ",
"                        ",
"                        "};
