/* XPM */
static char * network_workgroup_xpm[] = {
"24 24 126 2",
"  	c None",
". 	c #3981B8",
"+ 	c #3B82BA",
"@ 	c #3E86BB",
"# 	c #3A83B9",
"$ 	c #337DB4",
"% 	c #357EB4",
"& 	c #3D83BD",
"* 	c #498FC7",
"= 	c #569BD1",
"- 	c #5BA1D6",
"; 	c #5CA0D6",
"> 	c #4990C6",
", 	c #3E82BC",
"' 	c #3E80BC",
") 	c #4A90C7",
"! 	c #5B9FD6",
"~ 	c #5C9FD5",
"{ 	c #367AB8",
"] 	c #3C85BD",
"^ 	c #5398CD",
"/ 	c #5298CD",
"( 	c #3A86BC",
"_ 	c #387DBA",
": 	c #5297CD",
"< 	c #5398CF",
"[ 	c #3E87C0",
"} 	c #60A3D7",
"| 	c #A3C9E8",
"1 	c #CAE0F2",
"2 	c #E7F1F9",
"3 	c #DCEBF6",
"4 	c #C8DFF1",
"5 	c #A2C9E8",
"6 	c #3E84BE",
"7 	c #6EAADA",
"8 	c #E2EEF8",
"9 	c #FCFEFE",
"0 	c #7AB2DE",
"a 	c #88BAE1",
"b 	c #63A4D8",
"c 	c #F9FBFD",
"d 	c #E0EDF7",
"e 	c #6DAADA",
"f 	c #5B9FD5",
"g 	c #3C83BB",
"h 	c #FFFFFF",
"i 	c #C7DEF1",
"j 	c #5FA2D7",
"k 	c #69A7D9",
"l 	c #ABCEEA",
"m 	c #FEFFFF",
"n 	c #4990C7",
"o 	c #347EB6",
"p 	c #FBFCFE",
"q 	c #99C4E5",
"r 	c #9BC5E6",
"s 	c #F3F8FC",
"t 	c #A9CDE9",
"u 	c #A1C8E7",
"v 	c #569BD0",
"w 	c #3A80B7",
"x 	c #337EB5",
"y 	c #89BAE1",
"z 	c #74AEDC",
"A 	c #C2DBF0",
"B 	c #91BFE3",
"C 	c #80B5DF",
"D 	c #BBD7EE",
"E 	c #DBEAF6",
"F 	c #5BA0D5",
"G 	c #3983BB",
"H 	c #3984BA",
"I 	c #F7FBFD",
"J 	c #E9F2FA",
"K 	c #BCD8EE",
"L 	c #DEECF7",
"M 	c #E5F0F8",
"N 	c #F0F6FB",
"O 	c #3D85BB",
"P 	c #A4CAE8",
"Q 	c #F2F7FC",
"R 	c #EDF5FA",
"S 	c #CEE2F3",
"T 	c #3981B9",
"U 	c #5BA0D6",
"V 	c #D7E8F5",
"W 	c #70ACDB",
"X 	c #82B6DF",
"Y 	c #D0E3F3",
"Z 	c #327BB5",
"` 	c #3982B8",
" .	c #559AD1",
"..	c #FBFDFE",
"+.	c #D4E6F4",
"@.	c #98C3E5",
"#.	c #8EBDE3",
"$.	c #357BB3",
"%.	c #498FC6",
"&.	c #FDFEFF",
"*.	c #BBD8EE",
"=.	c #BED9EF",
"-.	c #60A2D7",
";.	c #3C85BC",
">.	c #B9D6ED",
",.	c #B8D6ED",
"'.	c #A7CCE9",
").	c #78B0DD",
"!.	c #C4DDF0",
"~.	c #3F87BB",
"{.	c #3D82BC",
"].	c #5197CE",
"^.	c #387EB8",
"/.	c #3B86BC",
"(.	c #3B85BE",
"_.	c #377EB8",
":.	c #488EC5",
"<.	c #3D7FBB",
"[.	c #3E87BC",
"}.	c #3C84BB",
"|.	c #367CB2",
"1.	c #327CB4",
"2.	c #3A81B7",
"3.	c #3D84B9",
"4.	c #3A82BB",
"5.	c #3881B8",
"                                                ",
"                  . + @ # $ %                   ",
"              & * = - ; ; - = > ,               ",
"          ' ) ! ; ; ; ; ; ; ; ; ~ * {           ",
"        ] ^ ; ; ; ; ; ; ; ; ; ; ; ; / (         ",
"      _ : ; ; ; ; ; ; ; ; ; ; ; ; ; ; < [       ",
"      > ; ; ; ; } | 1 2 3 4 5 } ; ; ; ; *       ",
"    6 ~ ; ; ; 7 8 9 0 a ; b c d e ; ; ; f g     ",
"    * ; ; ; } 8 h h i j ; k l m d } ; ; ; n     ",
"  o = ; ; ; 5 h h p q ; ; r s c t u ; ; ; v w   ",
"  x - ; ; ; 3 h m y ; ; z A B C D E ; ; ; F G   ",
"  H ; ; ; ; I h J ; ; ; K h c L M N ; ; ; ; O   ",
"  O ; ; ; ; I h P ; ; ; Q h h h R S ; ; ; ; T   ",
"  G U ; ; ; 3 V W ; ; ; X Y s h h E ; ; ; f Z   ",
"  `  .; ; ; 5 ..+.@.; ; ; ; #.h h u ; ; ; v $.  ",
"    %.; ; ; } d h &.*.; ; ; =.h d -.; ; ; *     ",
"    ;.~ ; ; ; e d ..>.,.'.).!.d e ; ; ; ! ~.    ",
"      > ; ; ; ; -.u E I s E u -.; ; ; ; %.      ",
"      {.: ; ; ; ; ; ; ; ; ; ; ; ; ; ; ].^.      ",
"        /.: ; ; ; ; ; ; ; ; ; ; ; ; ].(.        ",
"          _.> ~ ; ; ; ; ; ; ; ; ~ :.<.          ",
"              [.%.v U ; ; U v %.}.              ",
"                  |.1.2.3.4.5.                  ",
"                                                "};
