/* XPM */
static char * office_calendar_xpm[] = {
"24 24 23 1",
" 	c None",
".	c #89BF60",
"+	c #9AD25F",
"@	c #89C061",
"#	c #99D25D",
"$	c #97DA46",
"%	c #95D945",
"&	c #ABD08F",
"*	c #B6D999",
"=	c #E7E7E7",
"-	c #F7F7F7",
";	c #E8E7E5",
">	c #EBEAE8",
",	c #E6E5E3",
"'	c #E9E8E6",
")	c #E1DFDC",
"!	c #E8E7E4",
"~	c #DFDDD9",
"{	c #E2E1DD",
"]	c #E1E0DC",
"^	c #E6E5E2",
"/	c #BBBBBB",
"(	c #E4E4E4",
"                        ",
"                        ",
"  .++++++++++++++++++@  ",
"  #$$$$$$$$$$$$$$$$$$#  ",
"  #$$%$$$$$$$$$$$$$%$#  ",
"  #$$$$$$$$$$$$$$$$$$#  ",
"  &******************&  ",
"  =------------------=  ",
"  =------------------=  ",
"  =-;>>,>>,>>,>>,>>;-=  ",
"  =-'--'--'--'--'--'-=  ",
"  =-'--'--'--'--'--'-=  ",
"  =-)!!~!!~!!~!!~!!)-=  ",
"  =-'--'--'--'--'--'-=  ",
"  =-{>>]>>]>>]>>]>>{-=  ",
"  =-'--'--'--'--'--'-=  ",
"  =-{>>]>>]>>]>>]>>{-=  ",
"  =-'--'--'--'--'--'-=  ",
"  =-'--'--'--'--'--'-=  ",
"  =-!!!^!!^!!^!!^!!!-=  ",
"  =------------------=  ",
"  /((((((((((((((((((/  ",
"                        ",
"                        "};
