/* XPM */
static char * onboard_xpm[] = {
"24 24 24 1",
" 	c None",
".	c #4A5A6E",
"+	c #4B5A70",
"@	c #5D6C82",
"#	c #4C5B70",
"$	c #4E5D6F",
"%	c #5F6E83",
"&	c #717E92",
"*	c #627186",
"=	c #707D91",
"-	c #FFFFFF",
";	c #8691A1",
">	c #647287",
",	c #9AA3B1",
"'	c #6C7A8E",
")	c #6E7B8F",
"!	c #EBEDF0",
"~	c #818C9D",
"{	c #68768B",
"]	c #C3C8D0",
"^	c #768396",
"/	c #657388",
"(	c #738093",
"_	c #606E84",
"                        ",
"                        ",
"                        ",
"  ....................  ",
" +@@@@@@@@@@@@@@@@@@@@# ",
" $@@@@@@@@@@@@@@@@@@@@$ ",
" $@@@@@@@@@@@@@@@@@@@@$ ",
" $@@%&&*&&*&&*&&*&&%@@$ ",
" $@@=--;--;--;--;--=@@$ ",
" $@@>,,',,',,',,',,>@@$ ",
" $@@)!!~!!~!!~!!~!!)@@$ ",
" $@@{]]^]]^]]^]]^]]{@@$ ",
" $@@{]]^]]^]]^]]^]]{@@$ ",
" $@@)!!~!!~!!~!!~!!)@@$ ",
" $@@@@@>,,,,,,,,/@@@@@$ ",
" $@@@@@=--------(@@@@@$ ",
" $@@@@@%&&&&&&&&_@@@@@$ ",
" $@@@@@@@@@@@@@@@@@@@@$ ",
" $@@@@@@@@@@@@@@@@@@@@$ ",
" #@@@@@@@@@@@@@@@@@@@@# ",
"  ....................  ",
"                        ",
"                        ",
"                        "};
