/* XPM */
static char * preferences_system_search_xpm[] = {
"24 24 112 2",
"  	c None",
". 	c #3787C5",
"+ 	c #2C7EBC",
"@ 	c #2F83BF",
"# 	c #2E83BF",
"$ 	c #287CB9",
"% 	c #2D82BE",
"& 	c #3785C5",
"* 	c #3585C3",
"= 	c #3E8FCE",
"- 	c #4B9BD7",
"; 	c #51A1DD",
"> 	c #51A0DD",
", 	c #4091CD",
"' 	c #3483C2",
") 	c #3583C4",
"! 	c #3F8FCD",
"~ 	c #519FDD",
"{ 	c #3F90CE",
"] 	c #3381C4",
"^ 	c #3586C2",
"/ 	c #4998D5",
"( 	c #3688C2",
"_ 	c #3381C5",
": 	c #4897D4",
"< 	c #4897D6",
"[ 	c #3587C7",
"} 	c #4190CE",
"| 	c #52A1DD",
"1 	c #70B1E3",
"2 	c #77B5E4",
"3 	c #58A4DE",
"4 	c #3F8FCE",
"5 	c #3789C8",
"6 	c #3485C3",
"7 	c #83BCE7",
"8 	c #EBF4FB",
"9 	c #FFFFFF",
"0 	c #F7FBFD",
"a 	c #A2CCED",
"b 	c #52A0DD",
"c 	c #509FDC",
"d 	c #3585C4",
"e 	c #287EBB",
"f 	c #7AB6E5",
"g 	c #FCFDFE",
"h 	c #E1EFF9",
"i 	c #92C3EA",
"j 	c #8ABFE8",
"k 	c #C9E2F4",
"l 	c #97C6EB",
"m 	c #3F8FCC",
"n 	c #2E83BD",
"o 	c #D3E7F6",
"p 	c #5BA6DF",
"q 	c #F5FAFD",
"r 	c #57A3DE",
"s 	c #4C9BD8",
"t 	c #3787C6",
"u 	c #FAFCFE",
"v 	c #B7D8F1",
"w 	c #76B4E4",
"x 	c #50A0DD",
"y 	c #2D7FBE",
"z 	c #2F84BD",
"A 	c #EFF6FC",
"B 	c #BFDCF2",
"C 	c #93C4EA",
"D 	c #3082BF",
"E 	c #3082C0",
"F 	c #BBDAF2",
"G 	c #F9FCFE",
"H 	c #E2EFF9",
"I 	c #E6F1FA",
"J 	c #3080C0",
"K 	c #2C80BF",
"L 	c #B8D8F1",
"M 	c #BEDCF2",
"N 	c #ECF5FB",
"O 	c #7BB7E5",
"P 	c #2A7ABB",
"Q 	c #378AC3",
"R 	c #B3D6F0",
"S 	c #EEF6FC",
"T 	c #D1E6F6",
"U 	c #78B5E5",
"V 	c #2F7FBF",
"W 	c #3F90CC",
"X 	c #B4D6F0",
"Y 	c #B3D5F0",
"Z 	c #3F90CD",
"` 	c #3488C1",
" .	c #6CAFE2",
"..	c #3587C5",
"+.	c #3684C4",
"@.	c #6BAEE2",
"#.	c #3481C3",
"$.	c #4898D6",
"%.	c #3487C5",
"&.	c #4898D5",
"*.	c #3689C2",
"=.	c #3382C5",
"-.	c #3583C3",
";.	c #3E8FCC",
">.	c #3488C3",
",.	c #3786C4",
"'.	c #297CBA",
").	c #2D80BD",
"!.	c #2E81BD",
"~.	c #2F81BE",
"{.	c #2D7EBE",
"].	c #368AC5",
"                                                ",
"                  . + @ # $ % $                 ",
"            & * = - ; > > ; - , '               ",
"          ) ! ~ > > > > > > > > ~ { ]           ",
"        ^ / > > > > > > > > > > > > / (         ",
"      _ : > > > > > > > > > > > > > > < [       ",
"      } > > > > > > > | 1 2 3 > > > > > 4 5     ",
"    6 ~ > > > > > > 7 8 9 9 0 a b > > > c d     ",
"  e { > > > > > > f g h i j k 9 l > > > > m     ",
"  n - > > > > > > o 8 p > > > k q r > > > s t   ",
"  e ; > > > > > > u v > > > > j 9 w > > > x y   ",
"  z > > > > > > > A B > > > > C 9 1 > > > > D   ",
"  E > > > > > > > F G 1 > > p H I | > > > > J   ",
"  K x > > > > > b L 9 G M v N g O > > > > c P   ",
"  Q - > > > > b R 9 L F S G T U > > > > > s V   ",
"    W > > > b X 9 Y > > > > > > > > > > > Z P   ",
"    ` ~ > >  .9 Y > > > > > > > > > > > ~ ..    ",
"    +.4 > > > @.> > > > > > > > > > > > Z       ",
"      #.: > > > > > > > > > > > > > > $.%.      ",
"        ( &.> > > > > > > > > > > > : *.        ",
"          =.{ ~ > > > > > > > > ~ m -.          ",
"              ' , s x > > x s ;.>.,.            ",
"                '.).'.!.~.{.].                  ",
"                                                "};
