/* XPM */
static char * preferences_desktop_wallpaper_xpm[] = {
"24 24 42 1",
" 	c None",
".	c #3072CB",
"+	c #3377CE",
"@	c #3D86DA",
"#	c #5CB1F9",
"$	c #5DB3FB",
"%	c #3D86D8",
"&	c #4B98E8",
"*	c #4B99E7",
"=	c #67B7FB",
"-	c #D2E8FD",
";	c #D8EBFD",
">	c #A3D2FC",
",	c #A3D3FC",
"'	c #CFE6FD",
")	c #6BB9FB",
"!	c #85C5FB",
"~	c #E8F1FD",
"{	c #EFF5FD",
"]	c #DCEDFD",
"^	c #7BC1FC",
"/	c #98CEFC",
"(	c #C9E5FD",
"_	c #ECF4FE",
":	c #EDF4FD",
"<	c #E7F1FD",
"[	c #C8E5FE",
"}	c #E8F2FD",
"|	c #D0E8FE",
"1	c #D0E9FE",
"2	c #C8E4FD",
"3	c #C4E3FE",
"4	c #D6EBFE",
"5	c #D2E9FE",
"6	c #CFE8FE",
"7	c #4B97E7",
"8	c #367AD1",
"9	c #53A4EF",
"0	c #A7CDF3",
"a	c #AACFF3",
"b	c #367BD2",
"c	c #2263BE",
"                        ",
"                        ",
"  .++++++++++++++++++.  ",
" @#$$$$$$$$$$$$$$$$$$#% ",
" &$$$$$$$$$$$$$$$$$$$$& ",
" *$$$$$$$$$$$$$$$$$$$$* ",
" *$$$$$$$$$$$$$$$$$$$$* ",
" *$$$$$$$$$$$$$$$$$$$$* ",
" *$$$$$$$$$$$$$$$$$$$$* ",
" *$$$$$$$$$$$$$$$$$$$$* ",
" *$$$$$$$$$$$$$$$$$$$$* ",
" *$$$$$$$$$$$$$$$$$$$$* ",
" *$$$$$$$$$$$$$$$$$$$$* ",
" *$$$$$$$$$$$$$$$$$$$$* ",
" *$$$$$$$$$$$$$$$$$$$$* ",
" *$$$$$$$$$$$$$$$$$$$$* ",
" *$$$$$$$$$$$$$$$$$$$$* ",
" *$=-;>$,;')=-;>$,;')$* ",
" *$!~{]^]{~//~{]^]{~!$* ",
" *$(_:<[}:_|1_:<[}:_2$* ",
" &$34;565;4664;565;43$7 ",
" 890aaaaaaaaaaaaaaaa09b ",
"   cccccccccccccccccc   ",
"                        "};
