/* XPM */
static char * preferences_desktop_display_xpm[] = {
"24 24 70 1",
" 	c None",
".	c #111116",
"+	c #121214",
"@	c #1C1D23",
"#	c #353741",
"$	c #363842",
"%	c #1E1F25",
"&	c #222328",
"*	c #23242A",
"=	c #454750",
"-	c #707178",
";	c #9B9CA1",
">	c #D5D6D8",
",	c #3E4049",
"'	c #E9E9EA",
")	c #FBFBFB",
"!	c #676870",
"~	c #3A3C46",
"{	c #929399",
"]	c #CFCFD2",
"^	c #393B45",
"/	c #7E7F85",
"(	c #BFBFC3",
"_	c #3F414A",
":	c #3F414B",
"<	c #383A44",
"[	c #43444E",
"}	c #43454F",
"|	c #72747B",
"1	c #ABACB0",
"2	c #484A53",
"3	c #54565E",
"4	c #919297",
"5	c #44464F",
"6	c #4C4E56",
"7	c #7B7D83",
"8	c #53555D",
"9	c #41424B",
"0	c #4E5058",
"a	c #6D6E76",
"b	c #4A4C55",
"c	c #40424C",
"d	c #44454E",
"e	c #50525B",
"f	c #5E6068",
"g	c #595B63",
"h	c #8C8D93",
"i	c #B4B5B9",
"j	c #585A62",
"k	c #474851",
"l	c #53555E",
"m	c #5A5C64",
"n	c #75777E",
"o	c #98999E",
"p	c #BEBFC2",
"q	c #D9D9DB",
"r	c #EBEBEC",
"s	c #FDFDFD",
"t	c #FFFFFF",
"u	c #E2E2E4",
"v	c #595A63",
"w	c #575961",
"x	c #4B4D56",
"y	c #5B5C64",
"z	c #373943",
"A	c #4E4F58",
"B	c #565760",
"C	c #797A81",
"D	c #1B1D21",
"E	c #1F1F24",
"                        ",
"                        ",
"  .++++++++++++++++++.  ",
" @#$$$$$$$$$$$$$$$$$$#% ",
" &$$$$$$$$$$$$$$$$$$$$* ",
" &$$$$$$$$$$$$$$$$$$$$* ",
" &$$$$$$$$$$$$$$$$$$$$* ",
" &$$=-$$$$$$$$$$$$$$$$* ",
" &$$;>$$$$$$$$$$$$$$$$* ",
" &$,')!$$$$$$$$$$$$$$$* ",
" &$~{]^$$$$$$$$$$$$$$$* ",
" &$$/(^_:<[$$$$$$$$$$$* ",
" &$}|1^_:<2$$$$$$$$$$$* ",
" &$$34$$$$,$$$$$$$$$$$* ",
" &$567$$$$8$$$$$$$$$$$* ",
" &$90abc$$$$$$$$$$$$$$* ",
" &$de0bc$$fghij$$$$$$$* ",
" &$klbmnopqrstuv$$$$$$* ",
" &$~wwxyzA}$BC<$$$$$$$* ",
" &$$$$$$$$$$$$$$$$$$$$* ",
" D#$$$$$$$$$$$$$$$$$$#E ",
"  ++++++++++++++++++++  ",
"                        ",
"                        "};
