/* XPM */
static char * preferences_desktop_font_xpm[] = {
"24 24 116 2",
"  	c None",
". 	c #A8A8A8",
"+ 	c #E9E9E9",
"@ 	c #EBEBEB",
"# 	c #A9A9A9",
"$ 	c #EAEAEA",
"% 	c #FAFAFA",
"& 	c #E8E8E8",
"* 	c #CCCCCC",
"= 	c #F9F9F9",
"- 	c #C1C1C1",
"; 	c #A4A4A4",
"> 	c #A3A3A3",
", 	c #E1E1E1",
"' 	c #F6F6F6",
") 	c #A6A6A6",
"! 	c #C2C2C2",
"~ 	c #ECECEC",
"{ 	c #D2D2D2",
"] 	c #C8C8C8",
"^ 	c #F1F1F1",
"/ 	c #DBDBDB",
"( 	c #DEDEDE",
"_ 	c #BFBFBF",
": 	c #A7A7A7",
"< 	c #F7F7F7",
"[ 	c #BEBEBE",
"} 	c #AAAAAA",
"| 	c #B5B5B5",
"1 	c #A5A5A5",
"2 	c #ABABAB",
"3 	c #F4F4F4",
"4 	c #BCBCBC",
"5 	c #F5F5F5",
"6 	c #DCDCDC",
"7 	c #CDCDCD",
"8 	c #E2E2E2",
"9 	c #F3F3F3",
"0 	c #ADADAD",
"a 	c #D1D1D1",
"b 	c #CBCBCB",
"c 	c #BDBDBD",
"d 	c #CFCFCF",
"e 	c #B1B1B1",
"f 	c #979A9B",
"g 	c #86898A",
"h 	c #848788",
"i 	c #A9ACAD",
"j 	c #E4E6E6",
"k 	c #D7D7D7",
"l 	c #D9D9D9",
"m 	c #9B9C9D",
"n 	c #85898A",
"o 	c #7E7F7F",
"p 	c #8A8A8A",
"q 	c #858585",
"r 	c #7F8182",
"s 	c #9A9D9F",
"t 	c #B8B8B8",
"u 	c #CECECE",
"v 	c #C8C9C9",
"w 	c #787B7D",
"x 	c #959595",
"y 	c #E5E5E5",
"z 	c #919191",
"A 	c #62676A",
"B 	c #F0F0F0",
"C 	c #B2B2B2",
"D 	c #A4A7A9",
"E 	c #888888",
"F 	c #A0A0A0",
"G 	c #E0E0E0",
"H 	c #C7C7C7",
"I 	c #878787",
"J 	c #D5D5D5",
"K 	c #808181",
"L 	c #575E64",
"M 	c #EEEEEE",
"N 	c #F2F2F2",
"O 	c #E9EAEA",
"P 	c #858789",
"Q 	c #8F8F8F",
"R 	c #8C8C8C",
"S 	c #9E9E9E",
"T 	c #868686",
"U 	c #E3E3E3",
"V 	c #6A6F72",
"W 	c #E5E6E7",
"X 	c #7A7B7C",
"Y 	c #BBBBBB",
"Z 	c #D8D8D8",
"` 	c #C3C3C3",
" .	c #6F7274",
"..	c #E6E7E8",
"+.	c #DADADA",
"@.	c #6F7374",
"#.	c #F5F6F6",
"$.	c #858889",
"%.	c #DFDFDF",
"&.	c #A9ACAE",
"*.	c #909090",
"=.	c #DEDFDF",
"-.	c #848789",
";.	c #979797",
">.	c #D4D4D4",
",.	c #63686C",
"'.	c #666C6D",
").	c #7D7E7E",
"!.	c #949494",
"~.	c #9D9D9D",
"{.	c #8D8D8D",
"].	c #757879",
"^.	c #62676B",
"/.	c #62696B",
"(.	c #666C6E",
"_.	c #5D6466",
"                                                ",
"                                                ",
"    . + @ @ @ @ @ @ @ @ @ @ @ @ @ @ @ @ + #     ",
"    $ % % % % % % % % % % % % % % % % % % $     ",
"    $ % % % % % % % % % % % % % % % % % % $     ",
"    $ % % % % % % % % % % % % % % % % % % $     ",
"    $ % % % % % % % % % % % % % % % % % % $     ",
"    $ % % % % & * * = % % % % % % % % % % $     ",
"    $ % % % % - ; > , % % % % % % % % % % $     ",
"    $ % % % ' ) - . ! % % % ~ { ] { ^ % % $     ",
"    $ % % % / > ( _ : < % % [ } | 1 2 3 % $     ",
"    $ % % % 4 1 5 / > 6 % % 3 = % 7 > 8 % $     ",
"    $ % % 9 1 0 a b > c % = d e f g h i j $     ",
"    $ % % k > > > > > 1 9 l m n o p p q r s     ",
"    $ % % t > @ 3 3 u > k v w x / y z q ! p A   ",
"    $ % B ; C % % % $ > t D E F G H I I k J K L ",
"    $ % < M N % % % % M O P Q I I R S T k U } V ",
"    $ % % % % % % % % % W X d Y 4 Z k ` ( 8 !  .",
"    $ % % % % % % % % % ..X +.U U U 8 8 , , - @.",
"    $ % % % % % % % % % #.$.` 8 8 8 , , G %.. V ",
"    $ % % % % % % % % % % &.*.( , , G G %.a K L ",
"    # + @ @ @ @ @ @ @ @ @ =.-.;.>.G %.G ] E ,.  ",
"                              '.).!.~.{.].^.    ",
"                                  /.(._.        "};
