/* XPM */
static char * redshift_xpm[] = {
"24 24 83 1",
" 	c None",
".	c #D43E30",
"+	c #D32F1F",
"@	c #D83C29",
"#	c #D73A28",
"$	c #D33A2C",
"%	c #D94C3D",
"&	c #DF5C4A",
"*	c #E0604F",
"=	c #E06150",
"-	c #DA4B3A",
";	c #D13A2C",
">	c #D74333",
",	c #D94C3B",
"'	c #E16050",
")	c #D94C3C",
"!	c #D53A2A",
"~	c #DC5746",
"{	c #D83B2A",
"]	c #DC5646",
"^	c #D94433",
"/	c #DA4C3B",
"(	c #E77F59",
"_	c #F6BA6B",
":	c #FDD572",
"<	c #E77E59",
"[	c #DA4C3C",
"}	c #EC935E",
"|	c #FFDD75",
"1	c #FFDE75",
"2	c #EC915E",
"3	c #DF5F4E",
"4	c #D33E2C",
"5	c #D42E1F",
"6	c #E16451",
"7	c #FDD773",
"8	c #FDD673",
"9	c #D73927",
"0	c #E47155",
"a	c #FFDE76",
"b	c #FFF5D3",
"c	c #FFE180",
"d	c #FFF5D4",
"e	c #E47054",
"f	c #DE5B4A",
"g	c #D5412F",
"h	c #FFE79A",
"i	c #FFF5D5",
"j	c #E16350",
"k	c #D73B28",
"l	c #EB8C5D",
"m	c #FFF1C4",
"n	c #EB8F5E",
"o	c #D43A29",
"p	c #F3AD66",
"q	c #FFEDB5",
"r	c #F3AF67",
"s	c #D53B2A",
"t	c #E47156",
"u	c #FBDE84",
"v	c #FDECB5",
"w	c #FBDD84",
"x	c #E47055",
"y	c #D23020",
"z	c #D73F2E",
"A	c #E6958A",
"B	c #F2F2F2",
"C	c #E69389",
"D	c #D53A29",
"E	c #DA4B3C",
"F	c #DB4D3C",
"G	c #D63B29",
"H	c #E16857",
"I	c #F2F1F1",
"J	c #E16757",
"K	c #D53B2D",
"L	c #E1786A",
"M	c #E5CECB",
"N	c #E17769",
"O	c #D63C29",
"P	c #D33928",
"Q	c #D33A29",
"R	c #D7402E",
"                        ",
"         .+@@+#+        ",
"       $%&*==*&-;       ",
"     >,'=========);     ",
"    !~============~{    ",
"   $]==============~^   ",
"   /=====(_::_<=====[   ",
"  $=====}|1111|2====34  ",
" 5%====6711111186====-  ",
" 9&====01abccda1e====fg ",
" 5*====6:1hiih1:j====*+ ",
" k======l11mm11n======o ",
" o=======p1qq1r=======s ",
" +*======tuvvwx======*y ",
" z&======ABBBBC======fD ",
"  E======ABBBBC======Fy ",
"  G======HIBBIJ====='K  ",
"   )======LMMN======[   ",
"   ^]==============~K   ",
"    {~============]{    ",
"     ;)==========[^     ",
"       ;-f*==*f[O       ",
"        yPyQQyR         ",
"                        "};
