/* XPM */
static char * scanner_xpm[] = {
"24 24 59 1",
" 	c None",
".	c #BEBEBE",
"+	c #BFBFBF",
"@	c #D1D1D1",
"#	c #E8E8E8",
"$	c #CECECE",
"%	c #D2D2D2",
"&	c #ADADAD",
"*	c #595959",
"=	c #9D9D9D",
"-	c #484848",
";	c #4C4C4C",
">	c #545454",
",	c #A2A2A2",
"'	c #F9F9F9",
")	c #EFEFEF",
"!	c #E6E6E6",
"~	c #E7E7E7",
"{	c #E5E5E5",
"]	c #D9D9D9",
"^	c #DADADA",
"/	c #D8D8D8",
"(	c #E0E0E0",
"_	c #ECECEC",
":	c #E2E2E2",
"<	c #DFDFDF",
"[	c #E1E1E1",
"}	c #DCDCDC",
"|	c #F6F6F6",
"1	c #C9C9C9",
"2	c #C8C8C8",
"3	c #DDDDDD",
"4	c #E4E4E4",
"5	c #EDEDED",
"6	c #F0F0F0",
"7	c #F8F8F8",
"8	c #CBCBCB",
"9	c #CACACA",
"0	c #CDCDCD",
"a	c #C5C5C5",
"b	c #F7F7F7",
"c	c #F4F4F4",
"d	c #D4D4D4",
"e	c #D0D0D0",
"f	c #D3D3D3",
"g	c #9F9696",
"h	c #B15A5A",
"i	c #C77070",
"j	c #DA8383",
"k	c #D88181",
"l	c #D98282",
"m	c #DD8686",
"n	c #CFCFCF",
"o	c #D6D6D6",
"p	c #DBDBDB",
"q	c #4B4B4B",
"r	c #535353",
"s	c #B7B7B7",
"t	c #B9B9B9",
"                        ",
"    .++++++++++++++.    ",
"   @################$   ",
"   %&**************&%   ",
"   %=-;>>>>>>>>>>;-=%   ",
"   %=-,'''''''''',-=%   ",
"   %=-,)!~#!{{#'',-=%   ",
"   %=-,!]^^///('',-=%   ",
"   %=-,_:<:::[}]|,-=%   ",
"   %=-,<12/3]}[4',-=%   ",
"   %=-,)~456666)7,-=%   ",
"   %=-,<8908210ab,-=%   ",
"   %=-,_:<:::<:c',-=%   ",
"   %=-,4@dddef]4',-=%   ",
"   %ghijkkkkkklmmihg%   ",
"   %=-,<818888n]|,-=%   ",
"   %=-,!/]/o/^p5',-=%   ",
"   %=-,_::::{)''',-=%   ",
"   %=-,'''''''''',-=%   ",
"   %=-qrrrrrrrrrrq-=%   ",
"   %&**************&%   ",
"   $################$   ",
"    stttttttttttttts    ",
"                        "};
