/* XPM */
static char * system_reboot_xpm[] = {
"24 24 73 1",
" 	c None",
".	c #32C8DD",
"+	c #2DC8DC",
"@	c #2AC8DB",
"#	c #28C8DB",
"$	c #27C7DB",
"%	c #25C5DB",
"&	c #31C9DC",
"*	c #38CADE",
"=	c #44CEE0",
"-	c #4BCFE0",
";	c #4DD0E1",
">	c #3ACBDD",
",	c #30C8DB",
"'	c #31C9DD",
")	c #39CADD",
"!	c #4BCFE1",
"~	c #3ACBDE",
"{	c #2FC8DC",
"]	c #32C9DC",
"^	c #3FCDDF",
"/	c #40CDDF",
"(	c #33C8DB",
"_	c #30C8DD",
":	c #3FCDDE",
"<	c #67D7E5",
"[	c #41CCE0",
"}	c #31C7DD",
"|	c #CDF2F7",
"1	c #2FC9DC",
"2	c #8FE1EC",
"3	c #A1E6EF",
"4	c #D2F3F7",
"5	c #8EE1EC",
"6	c #31C9DB",
"7	c #38CBDE",
"8	c #FFFFFF",
"9	c #A6E8F0",
"0	c #83DEEA",
"a	c #28C6DB",
"b	c #43CEDF",
"c	c #AAE9F1",
"d	c #ABE9F1",
"e	c #43CDE0",
"f	c #30CADC",
"g	c #4BD0E1",
"h	c #2BC7DB",
"i	c #29C7DA",
"j	c #CBF1F6",
"k	c #D0F2F7",
"l	c #2BC7D9",
"m	c #4ACFE1",
"n	c #26C6D9",
"o	c #30C7DC",
"p	c #43CDDF",
"q	c #39CBDD",
"r	c #38CBDC",
"s	c #31C8DB",
"t	c #4ACFE0",
"u	c #30C9DC",
"v	c #39CBDE",
"w	c #39CADE",
"x	c #32CADD",
"y	c #40CCDE",
"z	c #40CCDF",
"A	c #32C8DC",
"B	c #2FC7DC",
"C	c #38CBDD",
"D	c #31C8DC",
"E	c #25C6DA",
"F	c #26C6DB",
"G	c #29C7DD",
"H	c #2AC7DD",
"                        ",
"         .+@#$%         ",
"       &*=-;;-=>,       ",
"     ')!;;;;;;;;-~{     ",
"    ]^;;;;;;;;;;;;/(    ",
"   _:;;;;;;<<;;;;;;[}   ",
"   );;;;;;;||;;;;;;;*   ",
"  1-;;;23;;44;;35;;;!6  ",
"  7;;;;389;00;983;;;;>  ",
" ab;;;;;9c;;;;d9;;;;;ef ",
" $-;;;;;;;;;;;;;;;;;;gh ",
" i;;;<jk0;;;;;;0kj<;;;l ",
" l;;;<jk0;;;;;;0kj<;;;# ",
" h!;;;;;;;;;;;;;;;;;;mn ",
" o=;;;;;9d;;;;d9;;;;;pn ",
"  q;;;;389;00;983;;;;r  ",
"  st;;;53;;44;;35;;;!u  ",
"   v;;;;;;;||;;;;;;;w   ",
"   xy;;;;;;<<;;;;;;[1   ",
"    (/;;;;;;;;;;;;zA    ",
"     Bw-;;;;;;;;t*&     ",
"       s>pg;;gpCD       ",
"         EFGHhu         ",
"                        "};
