/* XPM */
static char * system_log_out_xpm[] = {
"24 24 91 1",
" 	c None",
".	c #64A035",
"+	c #68AB3C",
"@	c #6FB340",
"#	c #72B944",
"$	c #74BA43",
"%	c #71B642",
"&	c #6CAF3D",
"*	c #64A436",
"=	c #64A03A",
"-	c #6FB141",
";	c #78C147",
">	c #79C147",
",	c #65A43B",
"'	c #77C045",
")	c #5F9D34",
"!	c #76BF45",
"~	c #6DAF3E",
"{	c #7DC34D",
"]	c #B5DD99",
"^	c #E4F3DA",
"/	c #FAFDF8",
"(	c #F9FCF7",
"_	c #E1F1D6",
":	c #B1DB94",
"<	c #7CC24B",
"[	c #78C047",
"}	c #89C95D",
"|	c #E8F4DF",
"1	c #FFFFFF",
"2	c #E3F2D9",
"3	c #C6E5B1",
"4	c #C4E4AD",
"5	c #E2F1D7",
"6	c #E5F3DB",
"7	c #87C75A",
"8	c #5E9C36",
"9	c #7EC34D",
"0	c #E9F5E1",
"a	c #F8FCF5",
"b	c #A0D37D",
"c	c #9ED27A",
"d	c #F6FBF2",
"e	c #67A73B",
"f	c #67A939",
"g	c #B5DD9A",
"h	c #9DD278",
"i	c #6DB13F",
"j	c #6EB040",
"k	c #A0D37C",
"l	c #A7D686",
"m	c #DDEFD1",
"n	c #74BB43",
"o	c #70B441",
"p	c #BEE1A6",
"q	c #F8FCF6",
"r	c #76BC45",
"s	c #70B43F",
"t	c #76BD45",
"u	c #6DB03F",
"v	c #A6D685",
"w	c #DEF0D2",
"x	c #74B944",
"y	c #67A93B",
"z	c #9BD175",
"A	c #9DD279",
"B	c #B1DB93",
"C	c #6EB13F",
"D	c #5F9E36",
"E	c #78C046",
"F	c #F7FBF3",
"G	c #F6FBF3",
"H	c #64A73B",
"I	c #88C85C",
"J	c #E7F4DE",
"K	c #E2F2D7",
"L	c #C4E4AE",
"M	c #E3F2D8",
"N	c #86C759",
"O	c #7DC34C",
"P	c #B3DC96",
"Q	c #E1F1D5",
"R	c #B0DB93",
"S	c #79C046",
"T	c #629F37",
"U	c #69AC3C",
"V	c #72B842",
"W	c #73B943",
"X	c #70B541",
"Y	c #6BAE3E",
"Z	c #64A439",
"                        ",
"                        ",
"        .+@#$%&*        ",
"     =-;;>>>>>>>;-=     ",
"    ,'>>>>>>>>>>>>',    ",
"   )!>>>>>>>>>>>>>>!)   ",
"   ~>>>>{]^/(_:<>>>>~   ",
"   [>>>}|12345167>>>[   ",
"  8[>>90ab>>>>cd6<>>>e  ",
"  f>>>g1c>>>>>>h1:>>>i  ",
"  j>>>kl>>>>>>>>m5>>>n  ",
"  o>>>666666>>>>pq>>>r  ",
"  s>>>666666>>>>pq>>>t  ",
"  u>>>kv>>>>>>>>w_>>>x  ",
"  y>>>g1z>>>>>>A1B>>>C  ",
"  DE>>{|Fc>>>>kG^<>>>H  ",
"   [>>>IJ1K3LM1^N>>>[   ",
"   ~>>>>OPK/qQR<>>>>~   ",
"   )!>>>>>>>>>>>>>>!)   ",
"    ,'>>>>>>>>>>>>',    ",
"     =-;;>>>>>>S;-=     ",
"        TU@VWXYZ        ",
"                        ",
"                        "};
