/* XPM */
static char * system_restart_xpm[] = {
"24 24 118 2",
"  	c None",
". 	c #3780C6",
"+ 	c #327CC0",
"@ 	c #327DC2",
"# 	c #347CC3",
"$ 	c #2F7BC0",
"% 	c #2C78BE",
"& 	c #377FC4",
"* 	c #3C85CA",
"= 	c #468DD2",
"- 	c #4A92D5",
"; 	c #4B92D6",
"> 	c #4B92D5",
", 	c #4890D3",
"' 	c #3F87CB",
") 	c #3880C6",
"! 	c #327BC3",
"~ 	c #367FC4",
"{ 	c #3B83C9",
"] 	c #4A91D5",
"^ 	c #4088CD",
"/ 	c #367FC3",
"( 	c #4189CE",
"_ 	c #478FD2",
": 	c #3881C6",
"< 	c #357FC5",
"[ 	c #4189CD",
"} 	c #488ED2",
"| 	c #3980C5",
"1 	c #3B84CA",
"2 	c #5095D7",
"3 	c #99C1E8",
"4 	c #D8E7F6",
"5 	c #F8FBFD",
"6 	c #D9E8F6",
"7 	c #4F95D7",
"8 	c #4288CE",
"9 	c #347EC6",
"0 	c #4991D5",
"a 	c #5F9EDA",
"b 	c #DFEBF8",
"c 	c #FFFFFF",
"d 	c #FCFDFE",
"e 	c #E1EDF8",
"f 	c #E2EDF8",
"g 	c #FDFEFF",
"h 	c #8BB9E5",
"i 	c #3882C7",
"j 	c #BDD7F0",
"k 	c #5C9CDA",
"l 	c #B4D2EE",
"m 	c #9BC3E8",
"n 	c #8AB8E4",
"o 	c #428BCF",
"p 	c #C1D9F1",
"q 	c #64A1DC",
"r 	c #83B4E3",
"s 	c #97C0E7",
"t 	c #357EC2",
"u 	c #2C75BB",
"v 	c #DAE9F7",
"w 	c #FEFEFF",
"x 	c #5B9CDA",
"y 	c #619FDB",
"z 	c #D7E7F6",
"A 	c #357FC4",
"B 	c #2D75BD",
"C 	c #F9FBFE",
"D 	c #E6F0F9",
"E 	c #F6F9FD",
"F 	c #2F78BE",
"G 	c #E4EFF9",
"H 	c #E3EEF9",
"I 	c #F7FAFD",
"J 	c #347BC1",
"K 	c #DAE8F6",
"L 	c #FBFDFE",
"M 	c #609FDB",
"N 	c #5D9DDA",
"O 	c #FEFFFF",
"P 	c #347EC3",
"Q 	c #438BCF",
"R 	c #98C1E8",
"S 	c #C2DAF1",
"T 	c #307ABE",
"U 	c #8BB8E4",
"V 	c #9AC2E8",
"W 	c #DDEAF7",
"X 	c #4188CE",
"Y 	c #367DC3",
"Z 	c #4990D4",
"` 	c #3981C7",
" .	c #3B83C8",
"..	c #4F94D7",
"+.	c #F4F9FD",
"@.	c #337CC2",
"#.	c #387FC4",
"$.	c #4188CD",
"%.	c #478ED3",
"&.	c #3880C3",
"*.	c #4289CE",
"=.	c #468ED3",
"-.	c #3681C5",
";.	c #377EC4",
">.	c #3C84C9",
",.	c #3F88CD",
"'.	c #357DC4",
").	c #3D84CA",
"!.	c #478FD3",
"~.	c #3F88CB",
"{.	c #3880C5",
"].	c #3680C5",
"^.	c #2C76BB",
"/.	c #2F79BE",
"(.	c #347DC2",
"_.	c #357CC4",
":.	c #347CC4",
"<.	c #367FC2",
"                                                ",
"                  . + @ # $ %                   ",
"              & * = - ; ; > , ' ) !             ",
"          ~ { ] ; ; ; ; ; ; ; ; ; ^ /           ",
"        ~ ( ; ; ; ; ; ; ; ; ; ; ; ; _ :         ",
"      < [ ; ; ; ; ; ; ; ; ; ; ; ; ; ; } |       ",
"      1 ; ; ; ; 2 3 4 5 5 6 3 7 ; ; ; ; 8 ~     ",
"    9 0 ; ; ; a b c d e f g c h ; ; ; ; ; i     ",
"    { ; ; ; 2 b c j k ; ; l m ; n 7 ; ; ; 8     ",
"    o ; ; ; 3 c p ; ; ; ; q ; r c s ; ; ; 0 t   ",
"  u 0 ; ; ; v w x ; ; ; ; ; ; y d z ; ; ; ; A   ",
"  B ; ; ; ; C e ; ; ; ; ; ; ; ; D E ; ; ; ; |   ",
"  F ] ; ; ; C G ; ; ; ; ; ; ; ; H I ; ; ; ; .   ",
"  J 0 ; ; ; K L M ; ; ; ; ; ; N O z ; ; ; ; P   ",
"    Q ; ; ; R c r ; q ; ; ; ; S c s ; ; ; 0 T   ",
"    { ; ; ; 7 U ; V l ; ; N j c W 7 ; ; ; X     ",
"    Y Z ; ; ; ; U c g H f g c W a ; ; ; ; `     ",
"       .; ; ; ; ..s z +.5 z s 7 ; ; ; ; 8 @.    ",
"      #.$.; ; ; ; ; ; ; ; ; ; ; ; ; ; %.&       ",
"        &.*.; ; ; ; ; ; ; ; ; ; ; ; =.-.        ",
"          ;.>.0 ; ; ; ; ; ; ; ; ; ,..           ",
"              '.).= ] ; ; ; !.~.{.].            ",
"                  ^./.(._.:.<.                  ",
"                                                "};
