/* XPM */
static char * terminal_xpm[] = {
"24 24 31 1",
" 	c None",
".	c #0B0D0E",
"+	c #111516",
"@	c #0C0D0E",
"#	c #121516",
"$	c #161A1C",
"%	c #181C1E",
"&	c #9B9C9D",
"*	c #A4A5A7",
"=	c #2A2D2F",
"-	c #585A5B",
";	c #CCCCCD",
">	c #898A8B",
",	c #1D1F21",
"'	c #1C1F21",
")	c #818384",
"!	c #CFCFD0",
"~	c #474A4B",
"{	c #202326",
"]	c #909294",
"^	c #C8C9C9",
"/	c #3E4042",
"(	c #626465",
"_	c #797B7C",
":	c #9D9E9F",
"<	c #969798",
"[	c #222628",
"}	c #2D3033",
"|	c #595B5D",
"1	c #4B4D4F",
"2	c #989A9B",
"                        ",
"                        ",
"  .++++++++++++++++++@  ",
"  #$$$$$$$$$$$$$$$$$$#  ",
"  #$$$$$$$$$$$$$$$$$$#  ",
"  #$$%$$$$$$$$$$$$$$$#  ",
"  #$$&*=$$$$$$$$$$$$$#  ",
"  #$$$-;>,$$$$$$$$$$$#  ",
"  #$$$$')!~$$$$$$$$$$#  ",
"  #$$$${]^/$$$$$$$$$$#  ",
"  #$$$(!_%$$$$$$$$$$$#  ",
"  #$$:<[$$$$$$$$$$$$$#  ",
"  #$$$$}|||||}$$$$$$$#  ",
"  #$$$$1222221$$$$$$$#  ",
"  #$$$$$$$$$$$$$$$$$$#  ",
"  #$$$$$$$$$$$$$$$$$$#  ",
"  #$$$$$$$$$$$$$$$$$$#  ",
"  #$$$$$$$$$$$$$$$$$$#  ",
"  #$$$$$$$$$$$$$$$$$$#  ",
"  #$$$$$$$$$$$$$$$$$$#  ",
"  #$$$$$$$$$$$$$$$$$$#  ",
"  @++++++++++++++++++@  ",
"                        ",
"                        "};
