/* XPM */
static char * usb_creator_xpm[] = {
"24 24 81 1",
" 	c None",
".	c #9499A0",
"+	c #9EA2A8",
"@	c #A6AAB2",
"#	c #B1B6BD",
"$	c #797D82",
"%	c #585B5E",
"&	c #6E7176",
"*	c #808489",
"=	c #63666A",
"-	c #777A7F",
";	c #34363E",
">	c #35373E",
",	c #686B73",
"'	c #6F727A",
")	c #464854",
"!	c #353640",
"~	c #3F414C",
"{	c #33353E",
"]	c #32343D",
"^	c #3C4149",
"/	c #434750",
"(	c #454753",
"_	c #3E404B",
":	c #32333C",
"<	c #31333B",
"[	c #30333A",
"}	c #33643F",
"|	c #3CA54B",
"1	c #42C854",
"2	c #3FA950",
"3	c #3F704D",
"4	c #34373F",
"5	c #454853",
"6	c #3E8C4D",
"7	c #45D057",
"8	c #4ED360",
"9	c #8FE39A",
"0	c #389047",
"a	c #444652",
"b	c #2F3038",
"c	c #2E2F37",
"d	c #31613C",
"e	c #45D157",
"f	c #5CD76C",
"g	c #FFFFFF",
"h	c #35A043",
"i	c #393B45",
"j	c #373942",
"k	c #363841",
"l	c #3DA64C",
"m	c #3EBC4E",
"n	c #42444F",
"o	c #3F444B",
"p	c #42C853",
"q	c #2A2B32",
"r	c #282C31",
"s	c #41C652",
"t	c #6BDA79",
"u	c #BEEFC4",
"v	c #434550",
"w	c #3F404B",
"x	c #3E3F4A",
"y	c #3EA74E",
"z	c #46D158",
"A	c #BAEEC0",
"B	c #BFEFC5",
"C	c #3DBC4E",
"D	c #33353C",
"E	c #49D25A",
"F	c #CDF3D2",
"G	c #D1F4D5",
"H	c #4AD25C",
"I	c #22252C",
"J	c #25252B",
"K	c #24272A",
"L	c #379C44",
"M	c #51D462",
"N	c #3AAD48",
"O	c #42C954",
"P	c #36A144",
"                        ",
"                        ",
"                        ",
"     .++++++++++++.     ",
"     @############@     ",
"     @############@     ",
"     @$%%&####&%%$@     ",
"     @*==-####-==*@     ",
"     @############@     ",
"   ;>,'''''''''''',>;   ",
"  ;))))))))))))))))));  ",
"  !))))))))))))))))))!  ",
"  !)))~{{{{{{{{{]^/()!  ",
"  !)))_:<<<<<<[}|11234  ",
"  !))))))))))567899870  ",
"  !))))abccccd7efggfe7h ",
"  !)))))ijjjkleefggfeem ",
"  !))))))(nno1eefggfeep ",
"  !)))))){qqrsetuggutep ",
"  !))))))vwwxyezAggBzeC ",
"  D()))))))))37eEFGHe7h ",
"   IJJJJJJJJJKL7eMMe7N  ",
"               hCOpCP   ",
"                        "};
