/* XPM */
static char * wine_winecfg_xpm[] = {
"24 24 71 1",
" 	c None",
".	c #1D84D6",
"+	c #1F8CE3",
"@	c #1D85D6",
"#	c #1F8DE4",
"$	c #2196F3",
"%	c #2C9BF4",
"&	c #4EABF5",
"*	c #72BCF7",
"=	c #96CDF9",
"-	c #329EF4",
";	c #2397F3",
">	c #3DA3F5",
",	c #5EB3F6",
"'	c #7FC2F8",
")	c #9DD0FA",
"!	c #5CB2F6",
"~	c #E6F3FE",
"{	c #FFFFFF",
"]	c #3EA4F5",
"^	c #F9FCFF",
"/	c #6DBAF7",
"(	c #A6D5FA",
"_	c #A3D3FA",
":	c #3CA3F4",
"<	c #FBDCDC",
"[	c #F37272",
"}	c #E65158",
"|	c #E45058",
"1	c #C0596F",
"2	c #4487D3",
"3	c #F7AAAA",
"4	c #FA5454",
"5	c #FF5555",
"6	c #F55154",
"7	c #786D9D",
"8	c #FBDDDD",
"9	c #FF5858",
"0	c #FA7A7A",
"a	c #FA7B7B",
"b	c #F55153",
"c	c #905775",
"d	c #45A7F5",
"e	c #67B7F7",
"f	c #88C7F9",
"g	c #A4D4FA",
"h	c #5DB2F6",
"i	c #ECF6FE",
"j	c #FAD7D7",
"k	c #F9E2E2",
"l	c #F9E1E1",
"m	c #E6484C",
"n	c #E65056",
"o	c #F9E0E0",
"p	c #E06868",
"q	c #E06969",
"r	c #F14B4C",
"s	c #E55056",
"t	c #E06A6A",
"u	c #BF596F",
"v	c #FAD6D6",
"w	c #F45154",
"x	c #8F5574",
"y	c #786C9D",
"z	c #786894",
"A	c #8B5777",
"B	c #E5484B",
"C	c #F04B4C",
"D	c #F04B4B",
"E	c #E4494D",
"F	c #895576",
"                        ",
"                        ",
"  .++++++++++++++++++@  ",
"  #$$$$$$$$$$$$$$$$$$#  ",
"  #$$$$$$$$$$$$$$$$$$#  ",
"  #$$$$$$$$$$$$$$$$$$#  ",
"  #$$$$$$$$$$%&*=-$$$#  ",
"  #$$$;>,')!~{{{{>$$$#  ",
"  #$$$]{{{^/{{{{{>$$$#  ",
"  #$$$>{{{^/{{{{{>$$$#  ",
"  #$$$>{{{^/{{{{{>$$$#  ",
"  #$$$-(((_&(((((-$$$#  ",
"  #$$$-(((_&(((((-$$$#  ",
"  #$$$:{{{^/{{{<[}|12#  ",
"  #$$$:{{{^/{{34555567  ",
"  #$$$:{{{^/{84590a95bc ",
"  #$$$;defghi[59jklj95m ",
"  #$$$$$$$$$$n50opqo05r ",
"  #$$$$$$$$$$s50oqto05r ",
"  #$$$$$$$$$$u59joov95m ",
"  #$$$$$$$$$$26590a95wx ",
"  @+++++++++++yb55556z  ",
"               ABCDEF   ",
"                        "};
