/* XPM */
static char * yakuake_xpm[] = {
"24 24 33 1",
" 	c None",
".	c #1F589B",
"+	c #2460AC",
"@	c #1F569B",
"#	c #2460AD",
"$	c #2569BB",
"%	c #2461AE",
"&	c #276ABC",
"*	c #A1BEE2",
"=	c #ABC5E5",
"-	c #3777C1",
";	c #6293CF",
">	c #CFDEF0",
",	c #90B3DC",
"'	c #2A6DBD",
")	c #296DBE",
"!	c #8AAFDA",
"~	c #D2E0F1",
"{	c #5289CA",
"]	c #2E6FBE",
"^	c #98B8DF",
"/	c #CBDBEF",
"(	c #4A83C6",
"_	c #6B99D1",
":	c #82A9D8",
"<	c #A3BFE3",
"[	c #9CBBE1",
"}	c #2F72BF",
"|	c #3A78C3",
"1	c #6394CF",
"2	c #568BCB",
"3	c #9EBDE2",
"4	c #1F579B",
"                        ",
"                        ",
"  .++++++++++++++++++@  ",
"  #$$$$$$$$$$$$$$$$$$%  ",
"  #$$$$$$$$$$$$$$$$$$#  ",
"  #$$&$$$$$$$$$$$$$$$#  ",
"  #$$*=-$$$$$$$$$$$$$#  ",
"  #$$$;>,'$$$$$$$$$$$#  ",
"  #$$$$)!~{$$$$$$$$$$#  ",
"  #$$$$]^/($$$$$$$$$$#  ",
"  #$$$_~:&$$$$$$$$$$$#  ",
"  #$$<[}$$$$$$$$$$$$$#  ",
"  #$$$$|11111|$$$$$$$#  ",
"  #$$$$2333332$$$$$$$#  ",
"  #$$$$$$$$$$$$$$$$$$#  ",
"  #$$$$$$$$$$$$$$$$$$#  ",
"  #$$$$$$$$$$$$$$$$$$#  ",
"  #$$$$$$$$$$$$$$$$$$#  ",
"  #$$$$$$$$$$$$$$$$$$#  ",
"  #$$$$$$$$$$$$$$$$$$#  ",
"  #$$$$$$$$$$$$$$$$$$#  ",
"  @++++++++++++++++++4  ",
"                        ",
"                        "};
