/* XPM */
static char * closeO_xpm[] = {
"26 50 21 1",
" 	c None",
".	c #33393B",
"+	c #41464A",
"@	c #494E52",
"#	c #4C5055",
"$	c #4C5155",
"%	c #3D4346",
"&	c #4B4F54",
"*	c #805E62",
"=	c #B86F71",
"-	c #D77B7B",
";	c #E88080",
">	c #EB8181",
",	c #C87577",
"'	c #2F343F",
")	c #45617F",
"!	c #5B8ABC",
"~	c #669FD9",
"{	c #6CA8E6",
"]	c #6DAAE9",
"^	c #6195CB",
"..........................",
"..........................",
"..........................",
"..........................",
".........+@#$$#@+.........",
".......%&*=-;;-=*&%.......",
"......+$=>>>>>>>>=$+......",
".....%$,>>>>>>>>>>,$%.....",
".....&=>>>>>>>>>>>>=&.....",
"....+*>>>>>>>>>>>>>>*+....",
"....@=>>>>''>>''>>>>=@....",
"....#->>>>''''''>>>>-#....",
"....$;>>>>>''''>>>>>;$....",
"....$;>>>>>''''>>>>>;$....",
"....#->>>>''''''>>>>-#....",
"....@=>>>>''>>''>>>>=@....",
"....+*>>>>>>>>>>>>>>*+....",
".....&=>>>>>>>>>>>>=&.....",
".....%$,>>>>>>>>>>,$%.....",
"......+$=>>>>>>>>=$+......",
".......%&*=-;;-=*&%.......",
".........+@#$$#@+.........",
"..........................",
"..........................",
"..........................",
"..........................",
"..........................",
"..........................",
"..........................",
"..........................",
".........)!~{{~!).........",
"........!]]]]]]]]!........",
".......^]]]]]]]]]]^.......",
"......!]]]]]]]]]]]]!......",
".....)]]]]]]]]]]]]]]).....",
".....!]]]]'']]'']]]]!.....",
".....~]]]]'''''']]]]~.....",
".....{]]]]]'''']]]]]{.....",
".....{]]]]]'''']]]]]{.....",
".....~]]]]'''''']]]]~.....",
".....!]]]]'']]'']]]]!.....",
".....)]]]]]]]]]]]]]]).....",
"......!]]]]]]]]]]]]!......",
".......^]]]]]]]]]]^.......",
"........!]]]]]]]]!........",
".........)!~{{~!).........",
"..........................",
"..........................",
"..........................",
".........................."};
