/* XPM */
static char * frameABR_xpm[] = {
"5 5 3 1",
" 	c None",
".	c #33393B",
"+	c #4F5257",
"...+ ",
"...+ ",
"..+  ",
"++   ",
"     "};
