/* XPM */
static char * frameAT_xpm[] = {
"1 29 3 1",
" 	c None",
".	c #4F5257",
"+	c #33393B",
" ",
" ",
" ",
".",
"+",
"+",
"+",
"+",
"+",
"+",
"+",
"+",
"+",
"+",
"+",
"+",
"+",
"+",
"+",
"+",
"+",
"+",
"+",
"+",
"+",
"+",
"+",
"+",
"+"};
