/* XPM */
static char * minimizeA_xpm[] = {
"26 50 12 1",
" 	c None",
".	c #33393B",
"+	c #3A4043",
"@	c #41474A",
"#	c #44494C",
"$	c #44494D",
"%	c #404548",
"&	c #393F41",
"*	c #343A3C",
"=	c #43484B",
"-	c #42474A",
";	c #90949E",
"..........................",
"..........................",
"..........................",
"..........................",
"..........................",
".........+@#$$#@+.........",
"........@#%&**&%#@........",
".......=-*......*-=.......",
"......@-..........-@......",
".....+#*..........*#+.....",
".....@%............%@.....",
".....#&............&#.....",
".....$*...;;;;;;...*$.....",
".....$*...;;;;;;...*$.....",
".....#&............&#.....",
".....@%............%@.....",
".....+#*..........*#+.....",
"......@-..........-@......",
".......=-*......*-=.......",
"........@#%&**&%#@........",
".........+@#$$#@+.........",
"..........................",
"..........................",
"..........................",
"..........................",
"..........................",
"..........................",
"..........................",
"..........................",
"..........................",
".........+@#$$#@+.........",
"........@#%&**&%#@........",
".......=-*......*-=.......",
"......@-..........-@......",
".....+#*..........*#+.....",
".....@%............%@.....",
".....#&............&#.....",
".....$*............*$.....",
".....$*...;;;;;;...*$.....",
".....#&...;;;;;;...&#.....",
".....@%............%@.....",
".....+#*..........*#+.....",
"......@-..........-@......",
".......=-*......*-=.......",
"........@#%&**&%#@........",
".........+@#$$#@+.........",
"..........................",
"..........................",
"..........................",
".........................."};
