/* XPM */
static char * minimizeI_xpm[] = {
"26 50 12 1",
" 	c None",
".	c #33393B",
"+	c #3E4346",
"@	c #474C50",
"#	c #4A4F53",
"$	c #4B4F54",
"%	c #454A4E",
"&	c #3C4144",
"*	c #353B3D",
"=	c #494E52",
"-	c #484D51",
";	c #767A82",
"..........................",
"..........................",
"..........................",
"..........................",
"..........................",
".........+@#$$#@+.........",
"........@$%&**&%$@........",
".......=-*......*-=.......",
"......@-..........-@......",
".....+$*..........*$+.....",
".....@%............%@.....",
".....#&............&#.....",
".....$*...;;;;;;...*$.....",
".....$*...;;;;;;...*$.....",
".....#&............&#.....",
".....@%............%@.....",
".....+$*..........*$+.....",
"......@-..........-@......",
".......=-*......*-=.......",
"........@$%&**&%$@........",
".........+@#$$#@+.........",
"..........................",
"..........................",
"..........................",
"..........................",
"..........................",
"..........................",
"..........................",
"..........................",
"..........................",
".........+@#$$#@+.........",
"........@$%&**&%$@........",
".......=-*......*-=.......",
"......@-..........-@......",
".....+$*..........*$+.....",
".....@%............%@.....",
".....#&............&#.....",
".....$*............*$.....",
".....$*...;;;;;;...*$.....",
".....#&...;;;;;;...&#.....",
".....@%............%@.....",
".....+$*..........*$+.....",
"......@-..........-@......",
".......=-*......*-=.......",
"........@$%&**&%$@........",
".........+@#$$#@+.........",
"..........................",
"..........................",
"..........................",
".........................."};
