/* XPM */
static char * desktop_xpm[] = {
"18 16 24 1",
" 	c None",
".	c #336BA3",
"+	c #336799",
"@	c #3770A5",
"#	c #346DA1",
"$	c #2B5B86",
"%	c #336A9D",
"&	c #306595",
"*	c #4188C9",
"=	c #4B98DF",
"-	c #4692D8",
";	c #53A8F6",
">	c #5BACF6",
",	c #D7EBFD",
"'	c #B0D7FB",
")	c #CAE4FC",
"!	c #BCDDFC",
"~	c #3C85C8",
"{	c #4D9EE9",
"]	c #74B3EF",
"^	c #9DC9F4",
"/	c #93C4F3",
"(	c #99C8F3",
"_	c #97C6F3",
"                  ",
"                  ",
" .++@@@#$$#@@%&%. ",
" *==============* ",
" -;;;;;;;;;;;;;;- ",
" -;;;;;;;;;;;;;;- ",
" -;;;;;;;;;;;;;;- ",
" -;;;;;;;;;;;;;;- ",
" -;;;;;;;;;;;;;;- ",
" -;;;;;;;;;;;;;;- ",
" -;;;;;;;;;;;;;;- ",
" -;;;;;;;;;;;;;;- ",
" -;;>,')!!)',>;;- ",
" ~{{]^/(__(/^]{{~ ",
"                  ",
"                  "};
