/* XPM */
static char * icewm_xpm[] = {
"32 20 20 1",
" 	c None",
".	c #E89289",
"+	c #EB6354",
"@	c #E9938A",
"#	c #6AA6E0",
"$	c #2382DD",
"%	c #6BA6E0",
"&	c #EB6253",
"*	c #2181DD",
"=	c #E08A81",
"-	c #E08B81",
";	c #629DD7",
">	c #629ED7",
",	c #CDCDCD",
"'	c #85B075",
")	c #4E9235",
"!	c #86B076",
"~	c #4D9133",
"{	c #7DA76D",
"]	c #7EA86E",
"                                ",
"                                ",
"        .++@  #$$%  #$$%        ",
"        +&&+  $**$  $**$        ",
"        +&&+  $**$  $**$        ",
"        =++-  ;$$>  ;$$>        ",
"         ,,    ,,    ,,         ",
"                                ",
"        '))!  .++@  #$$%        ",
"        )~~)  +&&+  $**$        ",
"        )~~)  +&&+  $**$        ",
"        {))]  =++-  ;$$>        ",
"         ,,    ,,    ,,         ",
"                                ",
"        '))!  '))!  .++@        ",
"        )~~)  )~~)  +&&+        ",
"        )~~)  )~~)  +&&+        ",
"        {))]  {))]  =++-        ",
"         ,,    ,,    ,,         ",
"                                "};
