/* XPM */
static char * windows_xpm[] = {
"18 16 20 1",
" 	c None",
".	c #F7F8F9",
"+	c #FDFDFE",
"@	c #7D9CF2",
"#	c #FBFCFD",
"$	c #FFFFFF",
"%	c #809EF4",
"&	c #FBFBFC",
"*	c #7F9EF4",
"=	c #7792D7",
"-	c #83A1EA",
";	c #6E92EE",
">	c #557ADF",
",	c #638DF5",
"'	c #7596EC",
")	c #E6EBF7",
"!	c #E7ECF7",
"~	c #4E74D5",
"{	c #557CE0",
"]	c #E0E4F0",
"                  ",
"                  ",
" .++++++@@++++++. ",
" #$$$$$$%%$$$$$$# ",
" #$$$$$$%%$$$$$$# ",
" #$$$$$$%%$$$$$$# ",
" &$$$$$$**$$$$$$& ",
" =------;;------= ",
" >,,,'------',,,> ",
" >,,,)$$$$$$),,,> ",
" >,,,!$$$$$$!,,,> ",
" >,,,!$$$$$$!,,,> ",
" >,,,!$$$$$$!,,,> ",
" ~{{{]++++++]{{{~ ",
"                  ",
"                  "};
