/* XPM */
static char * colon_xpm[] = {
"3 20 2 1",
" 	c None",
".	c #DBDBDB",
"   ",
"   ",
"   ",
"   ",
"   ",
"   ",
"   ",
" . ",
" . ",
"   ",
"   ",
"   ",
"   ",
" . ",
" . ",
"   ",
"   ",
"   ",
"   ",
"   "};
