/* XPM */
static char * m_xpm[] = {
"14 20 2 1",
" 	c None",
".	c #DBDBDB",
"              ",
"              ",
"              ",
"              ",
"              ",
"              ",
"              ",
"              ",
"  .... .....  ",
" . .. . ... . ",
" ..   ..   .. ",
" ..   ..   .. ",
" ..   ..   .. ",
" ..   ..   .. ",
" ..   ..   .. ",
" ..   .    .. ",
" .          . ",
"              ",
"              ",
"              "};
