/* XPM */
static char * n1_xpm[] = {
"9 20 2 1",
" 	c None",
".	c #DBDBDB",
"         ",
"         ",
"         ",
"         ",
"         ",
"    .    ",
"   ..    ",
"   ..    ",
"   ..    ",
"    .    ",
"         ",
"    .    ",
"   ..    ",
"   ..    ",
"   ..    ",
"    .    ",
"         ",
"         ",
"         ",
"         "};
