/* XPM */
static char * n2_xpm[] = {
"9 20 2 1",
" 	c None",
".	c #DBDBDB",
"         ",
"         ",
"         ",
"         ",
"  .....  ",
"   ... . ",
"      .. ",
"      .. ",
"      .. ",
"   ... . ",
"  .....  ",
" .       ",
" ..      ",
" ..      ",
" ..      ",
" . ...   ",
"  .....  ",
"         ",
"         ",
"         "};
