/* XPM */
static char * n4_xpm[] = {
"9 20 2 1",
" 	c None",
".	c #DBDBDB",
"         ",
"         ",
"         ",
"         ",
"         ",
" .     . ",
" ..   .. ",
" ..   .. ",
" ..   .. ",
" . ... . ",
"  .....  ",
"       . ",
"      .. ",
"      .. ",
"      .. ",
"       . ",
"         ",
"         ",
"         ",
"         "};
