/* XPM */
static char * percent_xpm[] = {
"10 20 14 1",
" 	c None",
".	c #000000",
"+	c #606060",
"@	c #D3DAE3",
"#	c #454545",
"$	c #575757",
"%	c #303030",
"&	c #636363",
"*	c #616161",
"=	c #717171",
"-	c #757575",
";	c #2D2D2D",
">	c #5E5E5E",
",	c #434343",
"..........",
"..........",
"..........",
"..........",
"..........",
"..........",
".+@+..@#..",
".@.@.$@...",
".@.@.@%...",
".&@*=-+@+.",
"...;@.@.@.",
"...@>.@.@.",
"..,@..*@*.",
"..........",
"..........",
"..........",
"..........",
"..........",
"..........",
".........."};
