/* XPM */
static char * slash_xpm[] = {
"8 20 2 1",
" 	c None",
".	c #DBDBDB",
"        ",
"        ",
"        ",
"      . ",
"      . ",
"     .. ",
"     .  ",
"    ..  ",
"    .   ",
"   ..   ",
"   .    ",
"  ..    ",
"  .     ",
" ..     ",
" .      ",
" .      ",
"        ",
"        ",
"        ",
"        "};
