/* XPM */
static char * closeA_xpm[] = {
"26 50 15 1",
" 	c None",
".	c #E7E6E4",
"+	c #E5D2D0",
"@	c #E2AAA8",
"#	c #DF8584",
"$	c #DE6B6B",
"%	c #DE6565",
"&	c #E19998",
"*	c #FFFFFF",
"=	c #E7D5D3",
"-	c #E8B3B1",
";	c #E89695",
">	c #E88383",
",	c #E87F7F",
"'	c #E8A5A4",
"..........................",
"..........................",
"..........................",
"..........................",
"..........................",
".........+@#$$#@+.........",
"........@%%%%%%%%@........",
".......&%%%%%%%%%%&.......",
"......@%%%%%%%%%%%%@......",
".....+%%%%%%%%%%%%%%+.....",
".....@%%%%**%%**%%%%@.....",
".....#%%%%******%%%%#.....",
".....$%%%%%****%%%%%$.....",
".....$%%%%%****%%%%%$.....",
".....#%%%%******%%%%#.....",
".....@%%%%**%%**%%%%@.....",
".....+%%%%%%%%%%%%%%+.....",
"......@%%%%%%%%%%%%@......",
".......&%%%%%%%%%%&.......",
"........@%%%%%%%%@........",
".........+@#$$#@+.........",
"..........................",
"..........................",
"..........................",
"..........................",
"..........................",
"..........................",
"..........................",
"..........................",
"..........................",
".........=-;>>;-=.........",
"........-,,,,,,,,-........",
".......',,,,,,,,,,'.......",
"......-,,,,,,,,,,,,-......",
".....=,,,,,,,,,,,,,,=.....",
".....-,,,,**,,**,,,,-.....",
".....;,,,,******,,,,;.....",
".....>,,,,,****,,,,,>.....",
".....>,,,,,****,,,,,>.....",
".....;,,,,******,,,,;.....",
".....-,,,,**,,**,,,,-.....",
".....=,,,,,,,,,,,,,,=.....",
"......-,,,,,,,,,,,,-......",
".......',,,,,,,,,,'.......",
"........-,,,,,,,,-........",
".........=-;>>;-=.........",
"..........................",
"..........................",
"..........................",
".........................."};
