/* XPM */
static char * maximizeO_xpm[] = {
"26 50 31 1",
" 	c None",
".	c #E7E6E4",
"+	c #E1E1DF",
"@	c #DDDDDC",
"#	c #DCDCDB",
"$	c #E3E2E1",
"%	c #DDDCDB",
"&	c #E0E0E0",
"*	c #EAEAEA",
"=	c #F3F3F3",
"-	c #F8F8F8",
";	c #FAF9F9",
">	c #EFEEEE",
",	c #A5A8B0",
"'	c #7A7F8B",
")	c #9498A2",
"!	c #A1A5AD",
"~	c #A8ABB3",
"{	c #9397A0",
"]	c #D4DBE5",
"^	c #ADC5E7",
"/	c #8AB5E8",
"(	c #73ACE9",
"_	c #6DAAE9",
":	c #9DBEE8",
"<	c #CFE3F8",
"[	c #FFFFFF",
"}	c #E2EEFB",
"|	c #D3E5F9",
"1	c #CCE1F7",
"2	c #E4EFFB",
"..........................",
"..........................",
"..........................",
"..........................",
".........+@####@+.........",
".......$%&*=--=*&%$.......",
"......+#*;;;;;;;;*#+......",
".....$#>;;;;;;;;;;>#$.....",
".....%*;;;;;;;;;;;;*%.....",
"....+&;;;;;;;;;;;;;;&+....",
"....@*;;;;;;,'');;;;*@....",
"....#=;;;;;;;,'';;;;=#....",
"....#-;;;;!;;;~';;;;-#....",
"....#-;;;;'!;;;~;;;;-#....",
"....#=;;;;'',;;;;;;;=#....",
"....@*;;;;{'',;;;;;;*@....",
"....+&;;;;;;;;;;;;;;&+....",
".....%*;;;;;;;;;;;;*%.....",
".....$#>;;;;;;;;;;>#$.....",
"......+#*;;;;;;;;*#+......",
".......$%&*=--=*&%$.......",
".........+@####@+.........",
"..........................",
"..........................",
"..........................",
"..........................",
"..........................",
"..........................",
"..........................",
"..........................",
".........]^/((/^].........",
"........^________^........",
".......:__________:.......",
"......^____________^......",
".....]______________].....",
".....^______<[[}____^.....",
"...../_______<[[____/.....",
".....(____|___1[____(.....",
".....(____[|___1____(.....",
"...../____[[<_______/.....",
".....^____2[[<______^.....",
".....]______________].....",
"......^____________^......",
".......:__________:.......",
"........^________^........",
".........]^/((/^].........",
"..........................",
"..........................",
"..........................",
".........................."};
