/* XPM */
static char * minimizeI_xpm[] = {
"26 50 11 1",
" 	c None",
".	c #E7E6E4",
"+	c #E3E2E1",
"@	c #DEDEDD",
"#	c #DDDCDC",
"$	c #DDDCDB",
"%	c #E0DFDE",
"&	c #E4E3E1",
"*	c #E6E5E3",
"=	c #DEDDDC",
"-	c #B9BBBE",
"..........................",
"..........................",
"..........................",
"..........................",
"..........................",
".........+@#$$#@+.........",
"........@$%&**&%$@........",
".......=@*......*@=.......",
"......@@..........@@......",
".....+$*..........*$+.....",
".....@%............%@.....",
".....#&............&#.....",
".....$*...------...*$.....",
".....$*...------...*$.....",
".....#&............&#.....",
".....@%............%@.....",
".....+$*..........*$+.....",
"......@@..........@@......",
".......=@*......*@=.......",
"........@$%&**&%$@........",
".........+@#$$#@+.........",
"..........................",
"..........................",
"..........................",
"..........................",
"..........................",
"..........................",
"..........................",
"..........................",
"..........................",
".........+@#$$#@+.........",
"........@$%&**&%$@........",
".......=@*......*@=.......",
"......@@..........@@......",
".....+$*..........*$+.....",
".....@%............%@.....",
".....#&............&#.....",
".....$*............*$.....",
".....$*...------...*$.....",
".....#&...------...&#.....",
".....@%............%@.....",
".....+$*..........*$+.....",
"......@@..........@@......",
".......=@*......*@=.......",
"........@$%&**&%$@........",
".........+@#$$#@+.........",
"..........................",
"..........................",
"..........................",
".........................."};
