/* XPM */
static char * minimizeO_xpm[] = {
"26 50 21 1",
" 	c None",
".	c #E7E6E4",
"+	c #E1E1DF",
"@	c #DDDDDC",
"#	c #DCDCDB",
"$	c #E3E2E1",
"%	c #DDDCDB",
"&	c #E0E0E0",
"*	c #EAEAEA",
"=	c #F3F3F3",
"-	c #F8F8F8",
";	c #FAF9F9",
">	c #EFEEEE",
",	c #7A7F8B",
"'	c #D4DBE5",
")	c #ADC5E7",
"!	c #8AB5E8",
"~	c #73ACE9",
"{	c #6DAAE9",
"]	c #9DBEE8",
"^	c #FFFFFF",
"..........................",
"..........................",
"..........................",
"..........................",
".........+@####@+.........",
".......$%&*=--=*&%$.......",
"......+#*;;;;;;;;*#+......",
".....$#>;;;;;;;;;;>#$.....",
".....%*;;;;;;;;;;;;*%.....",
"....+&;;;;;;;;;;;;;;&+....",
"....@*;;;;;;;;;;;;;;*@....",
"....#=;;;;;;;;;;;;;;=#....",
"....#-;;;;,,,,,,;;;;-#....",
"....#-;;;;,,,,,,;;;;-#....",
"....#=;;;;;;;;;;;;;;=#....",
"....@*;;;;;;;;;;;;;;*@....",
"....+&;;;;;;;;;;;;;;&+....",
".....%*;;;;;;;;;;;;*%.....",
".....$#>;;;;;;;;;;>#$.....",
"......+#*;;;;;;;;*#+......",
".......$%&*=--=*&%$.......",
".........+@####@+.........",
"..........................",
"..........................",
"..........................",
"..........................",
"..........................",
"..........................",
"..........................",
"..........................",
".........')!~~!)'.........",
"........){{{{{{{{)........",
".......]{{{{{{{{{{].......",
"......){{{{{{{{{{{{)......",
".....'{{{{{{{{{{{{{{'.....",
".....){{{{{{{{{{{{{{).....",
".....!{{{{{{{{{{{{{{!.....",
".....~{{{{^^^^^^{{{{~.....",
".....~{{{{^^^^^^{{{{~.....",
".....!{{{{{{{{{{{{{{!.....",
".....){{{{{{{{{{{{{{).....",
".....'{{{{{{{{{{{{{{'.....",
"......){{{{{{{{{{{{)......",
".......]{{{{{{{{{{].......",
"........){{{{{{{{)........",
".........')!~~!)'.........",
"..........................",
"..........................",
"..........................",
".........................."};
