/* XPM */
static char * restoreA_xpm[] = {
"26 50 12 1",
" 	c None",
".	c #E7E6E4",
"+	c #E3E2E1",
"@	c #DFDEDD",
"#	c #DEDDDC",
"$	c #DDDDDC",
"%	c #E0E0DE",
"&	c #E4E3E1",
"*	c #E6E5E4",
"=	c #DEDEDD",
"-	c #E6E5E3",
";	c #90949E",
"..........................",
"..........................",
"..........................",
"..........................",
"..........................",
".........+@#$$#@+.........",
"........@#%&**&%#@........",
".......=@-......-@=.......",
"......@@..........@@......",
".....+#-.....;....-#+.....",
".....@%......;;....%@.....",
".....#&......;;;...&#.....",
".....$*......;;;;..*$.....",
".....$*..;;;;......*$.....",
".....#&...;;;......&#.....",
".....@%....;;......%@.....",
".....+#-....;.....-#+.....",
"......@@..........@@......",
".......=@-......-@=.......",
"........@#%&**&%#@........",
".........+@#$$#@+.........",
"..........................",
"..........................",
"..........................",
"..........................",
"..........................",
"..........................",
"..........................",
"..........................",
"..........................",
".........+@#$$#@+.........",
"........@#%&**&%#@........",
".......=@-......-@=.......",
"......@@..........@@......",
".....+#-.....;....-#+.....",
".....@%......;;....%@.....",
".....#&......;;;...&#.....",
".....$*......;;;;..*$.....",
".....$*..;;;;......*$.....",
".....#&...;;;......&#.....",
".....@%....;;......%@.....",
".....+#-....;.....-#+.....",
"......@@..........@@......",
".......=@-......-@=.......",
"........@#%&**&%#@........",
".........+@#$$#@+.........",
"..........................",
"..........................",
"..........................",
".........................."};
