/* XPM */
static char * mail_xpm[] = {
"16 16 6 1",
" 	c None",
".	c #5D656B",
"+	c #5E666C",
"@	c #5E656B",
"#	c #5D666B",
"$	c #5E656A",
"                ",
"                ",
"   ..........   ",
"   .        .   ",
"  +. ...... .@  ",
" +..        ..+ ",
" ....      #... ",
" .   .$  $.   . ",
" .     ..     . ",
" .            . ",
" .            . ",
" .            . ",
" .            . ",
" .............. ",
"                ",
"                "};
