/* XPM */
static char * newmail_xpm[] = {
"16 16 7 1",
" 	c None",
".	c #5D656B",
"+	c #5E656C",
"@	c #C5C513",
"#	c #5D646A",
"$	c #5C656B",
"%	c #C0C01C",
"                ",
"                ",
" .............. ",
" ..          .. ",
" . .        . . ",
" .  .      .  . ",
" .   .    .   . ",
" .    .  .    . ",
" .   .+..       ",
" .  ..    @@@@@ ",
" . #$     @@@@% ",
" . .      @@@@% ",
" ..       @@@@@ ",
" ........       ",
"                ",
"                "};
