/* XPM */
static char * nomail_xpm[] = {
"16 16 7 1",
" 	c None",
".	c #5D656B",
"+	c #5E656C",
"@	c #2DCD2B",
"#	c #2DCE2B",
"$	c #5D646A",
"%	c #5C656B",
"                ",
"                ",
" .............. ",
" ..          .. ",
" . .        . . ",
" .  .      .  . ",
" .   .    .   . ",
" .    .  .    . ",
" .   .+..      @",
" .  ..        # ",
" . $%        #  ",
" . .     @# #@  ",
" ..       ###   ",
" ........  #    ",
"                ",
"                "};
