/* XPM */
static char * abiword_xpm[] = {
"24 24 51 1",
" 	c None",
".	c #C3C5C5",
"+	c #EAEBED",
"@	c #EBEDEE",
"#	c #C2C5C5",
"$	c #EAECED",
"%	c #F3F4F6",
"&	c #ECEDEE",
"*	c #F2F3F6",
"=	c #A4D6E0",
"-	c #92CFDB",
";	c #EBF1F3",
">	c #AFDAE3",
",	c #64BECE",
"'	c #65BECE",
")	c #93CFDB",
"!	c #DFEDF0",
"~	c #69C0D0",
"{	c #B8DEE6",
"]	c #C9E4EA",
"^	c #66BFCF",
"/	c #C7E3EA",
"(	c #8CCDD9",
"_	c #8DCDD9",
":	c #75C5D3",
"<	c #F1F3F5",
"[	c #D7EAEF",
"}	c #EDF2F4",
"|	c #75C4D3",
"1	c #99D2DD",
"2	c #97D1DC",
"3	c #C5E3E9",
"4	c #EAF1F4",
"5	c #68C0CF",
"6	c #D3E7ED",
"7	c #D5E8ED",
"8	c #C2E2E8",
"9	c #EBF1F4",
"0	c #85CAD7",
"a	c #E7F0F3",
"b	c #C3E2E8",
"c	c #76C5D3",
"d	c #B1DBE3",
"e	c #F0F3F5",
"f	c #D2E8EC",
"g	c #C6E2E9",
"h	c #B4DCE4",
"i	c #82CAD6",
"j	c #DDECF0",
"k	c #E9F0F4",
"l	c #C4C4C4",
"                        ",
"                        ",
"  .+@@@@@@@@@@@@@@@@+#  ",
"  $%%%%%%%%%%%%%%%%%%+  ",
"  &%%%%%%%%%%%%%%%%%%&  ",
"  &%%%%%%%%%%%%%%%%%%&  ",
"  &%%%%%%%%%%%%%%%%%%&  ",
"  &%%%%%%%*=-;%%%%%%%&  ",
"  &%%%%%%%>,')%%%%%%%&  ",
"  &%%%%%%!~{]^/%%%%%%&  ",
"  &%%%%%%(_%%=:<%%%%%&  ",
"  &%%%%%[^!%%}|/%%%%%&  ",
"  &%%%%%12%%%%3(%%%%%&  ",
"  &%%%%456%*7890a%%%%&  ",
"  &%%%%b,1(cde%fg%%%%&  ",
"  &%%%%h,ih}%%%%j%%%%&  ",
"  &%%%%<k%%%%%%%%%%%%&  ",
"  &%%%%%%%%%%%%%%%%%%&  ",
"  &%%%%%%%%%%%%%%%%%%&  ",
"  &%%%%%%%%%%%%%%%%%%&  ",
"  $%%%%%%%%%%%%%%%%%%+  ",
"  #+@@@@@@@@@@@@@@@@+l  ",
"                        ",
"                        "};
