/* XPM */
static char * accessories_camera_xpm[] = {
"24 24 56 1",
" 	c None",
".	c #CECECE",
"+	c #EAEAEA",
"@	c #F7F7F7",
"#	c #F9F9F9",
"$	c #CFCFCF",
"%	c #F6F6F6",
"&	c #E6E6E6",
"*	c #DBDCDD",
"=	c #C2C3C6",
"-	c #C5C6C9",
";	c #6A6D75",
">	c #4F535D",
",	c #6A6E76",
"'	c #C6C7CA",
")	c #CCCCCC",
"!	c #A8AAAE",
"~	c #50545E",
"{	c #595C66",
"]	c #62666F",
"^	c #A8AAAF",
"/	c #525660",
"(	c #6F727A",
"_	c #7B7E86",
":	c #6E717A",
"<	c #C7C8CB",
"[	c #CDCDCD",
"}	c #797C85",
"|	c #585C66",
"1	c #404550",
"2	c #414650",
"3	c #585D66",
"4	c #6B6E77",
"5	c #3A3F4A",
"6	c #60646D",
"7	c #757880",
"8	c #DCDDDF",
"9	c #C1C2C6",
"0	c #63676F",
"a	c #51565F",
"b	c #414550",
"c	c #C3C4C8",
"d	c #DCDCDE",
"e	c #DDDEDF",
"f	c #6C6F77",
"g	c #E9E9E9",
"h	c #C9CACD",
"i	c #F4F4F4",
"j	c #A9ABB0",
"k	c #585C65",
"l	c #AAACB0",
"m	c #C8C9CC",
"n	c #E2E2E2",
"o	c #C2C4C7",
"p	c #E4E4E4",
"q	c #F5F5F5",
"                        ",
"                        ",
"        .+@##@+.        ",
"      $%########%.      ",
"     &############&     ",
"    &#####*==*#####&    ",
"   $####-;>>>>,'####)   ",
"   %###!~>{]]{>~^###%   ",
"  .###-~/(____:/~<###[  ",
"  +###;>(}|123}:>4###+  ",
"  @##*>{_355673_{>8##@  ",
"  ###9>0_155a6b_0>=###  ",
"  ###=>0_25555b_]>c###  ",
"  @##d>{_35555{_{>e##@  ",
"  +###,>:}3223}:>f###g  ",
"  [###'~/:____:/~h###[  ",
"   i###j~>{]]k>~l###%   ",
"   )####<4>>>>fm####[   ",
"    n#####doo8#####p    ",
"     p############p     ",
"      )%########q[      ",
"        [+@##@g[        ",
"                        ",
"                        "};
