/* XPM */
static char * accessories_screenshot_xpm[] = {
"24 24 97 2",
"  	c None",
". 	c #070707",
"+ 	c #060606",
"@ 	c #181818",
"# 	c #272727",
"$ 	c #030303",
"% 	c #1E1E1E",
"& 	c #505050",
"* 	c #585858",
"= 	c #717171",
"- 	c #656565",
"; 	c #545454",
"> 	c #6D6D6D",
", 	c #666666",
"' 	c #8D8D8D",
") 	c #5B5B5B",
"! 	c #7C7C7C",
"~ 	c #5D5D5D",
"{ 	c #6C6C6C",
"] 	c #4F4F4F",
"^ 	c #4D4D4D",
"/ 	c #5A5A5A",
"( 	c #1F1F1F",
"_ 	c #636363",
": 	c #777777",
"< 	c #595959",
"[ 	c #AAAAAA",
"} 	c #4E4E4E",
"| 	c #606060",
"1 	c #ACACAC",
"2 	c #303030",
"3 	c #9E9E9E",
"4 	c #797979",
"5 	c #929292",
"6 	c #8A8A8A",
"7 	c #848484",
"8 	c #E3E3E3",
"9 	c #7B7B7B",
"0 	c #E1E1E1",
"a 	c #323232",
"b 	c #C6C6C6",
"c 	c #B9B9B9",
"d 	c #BDBDBD",
"e 	c #C0C0C0",
"f 	c #202020",
"g 	c #1D1D1D",
"h 	c #494949",
"i 	c #E5E5E5",
"j 	c #737373",
"k 	c #E4E4E4",
"l 	c #0D0D0D",
"m 	c #0F0F0F",
"n 	c #191919",
"o 	c #111111",
"p 	c #7E7E7E",
"q 	c #959595",
"r 	c #9B9B9B",
"s 	c #101010",
"t 	c #EDEDED",
"u 	c #F2F2F2",
"v 	c #ECECEC",
"w 	c #95241E",
"x 	c #A8312B",
"y 	c #744848",
"z 	c #7B4542",
"A 	c #A7302A",
"B 	c #EFEFEF",
"C 	c #A73B35",
"D 	c #C7453C",
"E 	c #B63B34",
"F 	c #B73B34",
"G 	c #BB3F36",
"H 	c #B53931",
"I 	c #C5453D",
"J 	c #A42E26",
"K 	c #D3D3D3",
"L 	c #C14F47",
"M 	c #9A2D29",
"N 	c #A9312B",
"O 	c #B93D35",
"P 	c #BE4138",
"Q 	c #992523",
"R 	c #A22D27",
"S 	c #BA3C35",
"T 	c #D2D2D2",
"U 	c #E8E8E8",
"V 	c #C37C78",
"W 	c #CD5147",
"X 	c #C8483E",
"Y 	c #A12E27",
"Z 	c #A9312C",
"` 	c #C6473D",
" .	c #CF4C42",
"..	c #982621",
"+.	c #94231F",
"@.	c #9B2623",
"#.	c #91231F",
"                                                ",
"                                                ",
"  . + + + + + + + + + + + + + + + + + + + + .   ",
"  @ # # # # # # # # # # # # # # # # # # # # @   ",
"$ % & & & & & & & & & & & & & & & & & & & & % $ ",
"$ % & * = - & ; = = > & & > = = ; & - = * & % $ ",
"$ % & , ' - & ; = = > & & > = = ; & - ' , & % $ ",
"$ % & ) , & & & & & & & & & & & & & & , ) & % $ ",
"$ % & & & & & & & & & & & & & & & & & & & & % $ ",
"$ % & , ! & & & & & & & & & & & & & & ! , & % $ ",
"$ % & , ! & & & & & & & & & & & & & & ! , & % $ ",
"$ % & ~ { & & & & & & & & & & & ] & & { ~ ] % $ ",
"$ % & & & & & & & & & & & & & ^ ) & & & & / ( $ ",
"$ % & _ : & & & & & & & & & & < [ } & : | 1 2 $ ",
"$ % & , 3 4 & * 5 5 6 & & 6 5 7 8 > 4 3 9 0 a $ ",
"$ % & & & & & & & & & & & & & } b c } ] d e f $ ",
"$ g h h h h h h h h h h h h h h : i j : k j g $ ",
"  l m m m m m m m @ n n n n @ m o p q r : s l   ",
"                  t u u u u v   w x y z A       ",
"                  B u u u u B C D E F G H I J   ",
"                K u u u u u u L M N O P Q R S   ",
"              T U U U U U U U V W X Y Z `  .R   ",
"                                ..+.    @.#.    ",
"                                                "};
