/* XPM */
static char * AppImageLauncher_xpm[] = {
"24 24 98 2",
"  	c None",
". 	c #002A3C",
"+ 	c #003345",
"@ 	c #003247",
"# 	c #004159",
"$ 	c #004B65",
"% 	c #004F6A",
"& 	c #004F6B",
"* 	c #00415A",
"= 	c #04526D",
"- 	c #075470",
"; 	c #002F44",
"> 	c #004763",
", 	c #01506C",
"' 	c #0F5A74",
") 	c #1B617A",
"! 	c #20657D",
"~ 	c #004864",
"{ 	c #05536F",
"] 	c #004863",
"^ 	c #1F657C",
"/ 	c #286A81",
"( 	c #8CACB7",
"_ 	c #CCD9DE",
": 	c #CFDCE1",
"< 	c #8BABB7",
"[ 	c #276980",
"} 	c #1E647C",
"| 	c #1D637B",
"1 	c #3E788D",
"2 	c #D0DDE1",
"3 	c #88A9B5",
"4 	c #2A6B82",
"5 	c #93B1BB",
"6 	c #91AFBB",
"7 	c #8AAAB6",
"8 	c #D0DCE1",
"9 	c #3C778C",
"0 	c #528597",
"a 	c #3B768B",
"b 	c #F3F6F7",
"c 	c #F4F6F8",
"d 	c #538697",
"e 	c #CFDBE0",
"f 	c #004157",
"g 	c #004B66",
"h 	c #8DACB8",
"i 	c #BBCDD4",
"j 	c #FCFDFD",
"k 	c #B9CBD2",
"l 	c #1A617A",
"m 	c #004A66",
"n 	c #002B39",
"o 	c #004E6B",
"p 	c #02506C",
"q 	c #608E9F",
"r 	c #FCFCFD",
"s 	c #6490A1",
"t 	c #2B6C83",
"u 	c #CBD8DD",
"v 	c #002A3B",
"w 	c #003245",
"x 	c #06546F",
"y 	c #CDDADF",
"z 	c #25687F",
"A 	c #DDE6E9",
"B 	c #FBFCFC",
"C 	c #DCE5E8",
"D 	c #91AEBA",
"E 	c #C9D8DD",
"F 	c #4F8395",
"G 	c #508496",
"H 	c #8EACB8",
"I 	c #003043",
"J 	c #002C3A",
"K 	c #427B8F",
"L 	c #D5E0E4",
"M 	c #779DAC",
"N 	c #6793A2",
"O 	c #D2DDE2",
"P 	c #467D91",
"Q 	c #99B4C0",
"R 	c #9CB6C1",
"S 	c #89AAB5",
"T 	c #004058",
"U 	c #0E5873",
"V 	c #548698",
"W 	c #CEDBE0",
"X 	c #256880",
"Y 	c #004158",
"Z 	c #003347",
"` 	c #2D6C83",
" .	c #3B778C",
"..	c #004059",
"+.	c #004660",
"@.	c #004760",
"#.	c #003243",
"$.	c #003445",
"                                                ",
"                    . + + .                     ",
"              @ # $ % & & % $ * @               ",
"            * & & & = - - = & & & *             ",
"        ; > & , ' ) ! ! ! ! ) ' , & ~ ;         ",
"        > & { ) ! ! ! ! ! ! ! ! ) { & ]         ",
"      * & { ^ ! / ( _ : : _ < [ ! } { & #       ",
"    + % , | ! 1 2 3 4 5 6 4 7 8 9 ! ) , & +     ",
"    # & ' ! / 8 0 ! a b c 9 ! d e [ ! ' & f     ",
"    g & ) ! h 3 ! ! i j j k ! ! < 7 ! l & m     ",
"  n o p ! ! _ 4 ! q r j j r s ! t u ! ! p % v   ",
"  w & x ! ! y ! z A j B B j C z ! y ! ! x & +   ",
"  + & x ! ! y ! D j E F G u j H ! y ! ! x & I   ",
"  J % p ! ! _ K L M ! ! ! ! N O P u ! ! p % v   ",
"    m & l ! < Q z ! ! ! ! ! ! z R S ! l & $     ",
"    T & U ! [ 8 d ! ! ! ! ! ! V W X ! U & Y     ",
"    Z & , ) ! 9 8 ( t ! ! ` H e  .! ) , & Z     ",
"      ..& { } ! [ 7 u e e u S X ! } { & ..      ",
"        +.& { ) ! ! ! ! ! ! ! ! ) { & @.        ",
"        #.> & , U l ! ! ! ! l U , & > #.        ",
"            T & & & p x x p & & % #             ",
"              $.Y $ % & & % $ Y $.              ",
"                    n I I n                     ",
"                                                "};
