/* XPM */
static char * basket_xpm[] = {
"24 24 11 1",
" 	c None",
".	c #4496F9",
"+	c #4C9DFC",
"@	c #005FC9",
"#	c #55A2FF",
"$	c #4A99F8",
"%	c #D1EBFF",
"&	c #CBE5F8",
"*	c #C9E2F5",
"=	c #B8D4EA",
"-	c #C6E1F6",
"                        ",
"                        ",
"   .++++++++++++++++.   ",
"  @##################@  ",
"  @##################@  ",
"  @##################@  ",
"   $$$$$$$$$$$$$$$$$$   ",
"   %%%%%%%%%%%%%%%%%%   ",
"   %%%%%%%%%%%%%%%%%%   ",
"   %%&************&%%   ",
"   %%%%%%%%%%%%%%%%%%   ",
"   %%%%%%%%%%%%%%%%%%   ",
"   %%%%%%%%%%%%%%%%%%   ",
"   %%&************&%%   ",
"   %%%%%%%%%%%%%%%%%%   ",
"   %%%%%%%%%%%%%%%%%%   ",
"   %%%%%%%%%%%%%%%%%%   ",
"   %%&************&%%   ",
"   %%%%%%%%%%%%%%%%%%   ",
"   %%%%%%%%%%%%%%%%%%   ",
"   %%%%%%%%%%%%%%%%%%   ",
"   =----------------=   ",
"                        ",
"                        "};
