/* XPM */
static char * cairo_dock_xpm[] = {
"24 24 28 1",
" 	c None",
".	c #6AB750",
"+	c #7AB367",
"@	c #6C9E5B",
"#	c #679857",
"$	c #6DA05D",
"%	c #6AB74F",
"&	c #82BF6D",
"*	c #83BC70",
"=	c #75A764",
"-	c #71A160",
";	c #76AA65",
">	c #9ADF82",
",	c #A0E689",
"'	c #E4FADF",
")	c #EEFFEB",
"!	c #AEEC9A",
"~	c #DEF5D7",
"{	c #E8FBE3",
"]	c #ECFEE9",
"^	c #E4F8DE",
"/	c #98DF80",
"(	c #DFF6D9",
"_	c #C1EFB2",
":	c #97DF80",
"<	c #76CB58",
"[	c #98DF81",
"}	c #75CB59",
"                        ",
"                        ",
"  .+++++++@##$+++++++%  ",
"  &*******=--;*******&  ",
"  >,,,,,,,,,,,,,,,,,,>  ",
"  >,,,,,,,,,,,,,,,,,,>  ",
"  >,,,,,,,,,,,,,,,,,,>  ",
"  >,,,,,,,,,,,,,,,,,,>  ",
"  >,,,,,,,,,,,,,,,,,,>  ",
"  >,,,,,,,,,,,,,,,,,,>  ",
"  >,,,,,,,,,,,,,,,,,,>  ",
"  >,,,,,,,,,,,,,,,,,,>  ",
"  >,,,,,,,,,,,,,,,,,,>  ",
"  >,,,,,,,,,,,,,,,,,,>  ",
"  >,,,,,,,,,,,,,,,,,,>  ",
"  >,,,,,,,,,,,,,,,,,,>  ",
"  >,,,,,,,,,,,,,,,,,,>  ",
"  >,,,,,,,,,,,,,,,,,,>  ",
"  >,,,')!')!')!!)',,,>  ",
"  >,,~{]^{]^{]^^]{~,,>  ",
"  /,,(____________(,,:  ",
"  </[[[[[[[[[[[[[[[[/}  ",
"                        ",
"                        "};
