/* XPM */
static char * calc_24x24_xpm[] = {
"24 24 28 1",
" 	c None",
".	c #F4F4F4",
"+	c #FCFCFC",
"@	c #F9F9F9",
"#	c #D5695D",
"$	c #D66A5E",
"%	c #CF665B",
"&	c #FDFDFD",
"*	c #FFFFFF",
"=	c #D96B5F",
"-	c #D76A5E",
";	c #B3B3B3",
">	c #999999",
",	c #808080",
"'	c #E0877D",
")	c #ECB5AF",
"!	c #DB7469",
"~	c #DD796E",
"{	c #E39087",
"]	c #DA7064",
"^	c #E9E9E9",
"/	c #EEEEEE",
"(	c #ECECEC",
"_	c #C1C1C1",
":	c #D8D8D8",
"<	c #D0D0D0",
"[	c #E2E2E2",
"}	c #CE665B",
"                        ",
"                        ",
"  .++++++++@#$$$$$$$$%  ",
"  &*********=========-  ",
"  &*********=========-  ",
"  &****;****=========-  ",
"  &****>****=========-  ",
"  &**;>,>;**=========-  ",
"  &****>****=========-  ",
"  &****;****=========-  ",
"  &*********=='))))!=-  ",
"  +*********==~{{{{]=-  ",
"  ^/////////==~{{{{]=-  ",
"  (/////////=='))))!=-  ",
"  (/////////=========-  ",
"  (/////////=========-  ",
"  (//_;;;_//=========-  ",
"  (//:<<<://=========-  ",
"  (/////////=========-  ",
"  (/////////=========-  ",
"  (/////////=========-  ",
"  [((((((((^#$$$$$$$$}  ",
"                        ",
"                        "};
