/* XPM */
static char * docky_xpm[] = {
"24 24 59 1",
" 	c None",
".	c #4667C5",
"+	c #5B70B3",
"@	c #5C70B3",
"#	c #51639D",
"$	c #4D5F97",
"%	c #52649F",
"&	c #4567C5",
"*	c #647CC5",
"=	c #6B7EBE",
"-	c #5F70A9",
";	c #5C6CA3",
">	c #6172AB",
",	c #657CC3",
"'	c #819EF9",
")	c #90A9FF",
"!	c #8BA4F7",
"~	c #8EA7FC",
"{	c #687BB9",
"]	c #6B7DBD",
"^	c #7D92DD",
"/	c #88A0F1",
"(	c #6678B5",
"_	c #89A0F2",
":	c #89A1F3",
"<	c #798ED6",
"[	c #6273AD",
"}	c #8DA6FA",
"|	c #869EEE",
"1	c #7589CF",
"2	c #7488CD",
"3	c #869DED",
"4	c #7B90DA",
"5	c #758AD0",
"6	c #879EEF",
"7	c #7387CB",
"8	c #7387CC",
"9	c #B4CAFF",
"0	c #CCDFFF",
"a	c #9EB6FF",
"b	c #ADC3FF",
"c	c #A6BDFF",
"d	c #93ABFF",
"e	c #B1C3FF",
"f	c #BFD2FF",
"g	c #C9DBFF",
"h	c #B7C9FF",
"i	c #BDCFFF",
"j	c #BACCFF",
"k	c #809EF9",
"l	c #94ACFF",
"m	c #B6C7FF",
"n	c #B7C7FF",
"o	c #93ACFF",
"p	c #819CF9",
"q	c #527AE9",
"r	c #809DF9",
"s	c #819DF9",
"t	c #5279E9",
"                        ",
"                        ",
"  .+@@@@@@#$$%@@@@@@+&  ",
"  *=======-;;>=======,  ",
"  '))))))))))))))))))'  ",
"  '))))))))))))))))))'  ",
"  '))))))))!!))))))))'  ",
"  ')))))))~{{~)))))))'  ",
"  '))))))))]]))))))))'  ",
"  '))))))))^^))))))))'  ",
"  '))))))/=((=/))))))'  ",
"  '))))))))^^))))))))'  ",
"  '))))/_))^^))/:))))'  ",
"  '))))<[})^^)}[<))))'  ",
"  '))))|123443256))))'  ",
"  '))))))_7--8_))))))'  ",
"  '))))))))_:))))))))'  ",
"  '))))))))))))))))))'  ",
"  ')))90ab0cc0ba09)))'  ",
"  ')defghigjjgihgfed)'  ",
"  k)lmnnnnnnnnnnnnmo)p  ",
"  qrssssssssssssssssrt  ",
"                        ",
"                        "};
