/* XPM */
static char * dock_xpm[] = {
"24 24 43 1",
" 	c None",
".	c #4667C5",
"+	c #5B70B3",
"@	c #5C70B3",
"#	c #51639D",
"$	c #4D5F97",
"%	c #52649F",
"&	c #4567C5",
"*	c #647CC5",
"=	c #6B7EBE",
"-	c #5F70A9",
";	c #5C6CA3",
">	c #6172AB",
",	c #657CC3",
"'	c #819EF9",
")	c #90A9FF",
"!	c #94ADFF",
"~	c #98B0FF",
"{	c #91A9FF",
"]	c #93ABFF",
"^	c #91ABFF",
"/	c #B5CBFF",
"(	c #E2ECFF",
"_	c #9EB6FF",
":	c #AEC4FF",
"<	c #E7EFFF",
"[	c #A6BDFF",
"}	c #94ACFF",
"|	c #B6C7FF",
"1	c #C0D2FF",
"2	c #DFE9FF",
"3	c #BACBFF",
"4	c #BED0FF",
"5	c #E5EDFF",
"6	c #BDCEFF",
"7	c #B1C3FF",
"8	c #B2C3FF",
"9	c #809EF9",
"0	c #819CF9",
"a	c #527AE9",
"b	c #809DF9",
"c	c #819DF9",
"d	c #5279E9",
"                        ",
"                        ",
"  .+@@@@@@#$$%@@@@@@+&  ",
"  *=======-;;>=======,  ",
"  '))))))))))))))))))'  ",
"  '))))))))))))))))))'  ",
"  '))))))))))))))))))'  ",
"  '))))))))))))))))))'  ",
"  '))))))))))))))))))'  ",
"  '))))))))))))))))))'  ",
"  '))))))))))))))))))'  ",
"  '))))))))))))))))))'  ",
"  '))))))))))))))))))'  ",
"  '))))))))))))))))))'  ",
"  '))))))))))))))))))'  ",
"  '))))))))))))))))))'  ",
"  ')))!~{]~^^~]{~!)))'  ",
"  ')))/(_:<[[<:_(/)))'  ",
"  ')}|123456654321|})'  ",
"  ')]78888888888887])'  ",
"  9))))))))))))))))))0  ",
"  abccccccccccccccccbd  ",
"                        ",
"                        "};
