/* XPM */
static char * evince_xpm[] = {
"24 24 139 2",
"  	c None",
". 	c #C02E30",
"+ 	c #D73E40",
"@ 	c #D83F40",
"# 	c #E48683",
"$ 	c #ECB9B2",
"% 	c #ECB6B0",
"& 	c #DF6C6C",
"* 	c #BE2F2F",
"= 	c #E14547",
"- 	c #E24B4D",
"; 	c #F4B8B3",
"> 	c #FFFCF2",
", 	c #F1A6A2",
"' 	c #FEF7ED",
") 	c #FFFDF3",
"! 	c #E76767",
"~ 	c #D93F41",
"{ 	c #E56060",
"] 	c #F9D7CF",
"^ 	c #FFFAF1",
"/ 	c #ED8E8C",
"( 	c #E97978",
"_ 	c #FFFCF3",
": 	c #FFFBF2",
"< 	c #E14648",
"[ 	c #ED8A89",
"} 	c #FEF2EA",
"| 	c #FDF2EA",
"1 	c #EA7C7B",
"2 	c #EF9895",
"3 	c #FCE6DE",
"4 	c #E66162",
"5 	c #F6CCC6",
"6 	c #FEFAF2",
"7 	c #FAE4DE",
"8 	c #E66666",
"9 	c #F1ABA8",
"0 	c #F8D9D2",
"a 	c #E55F60",
"b 	c #F2B1AD",
"c 	c #FEF6EE",
"d 	c #FEF9F1",
"e 	c #F4C0BB",
"f 	c #E35253",
"g 	c #F4BDB9",
"h 	c #F7CDC7",
"i 	c #DD5C5C",
"j 	c #ED8F8D",
"k 	c #F7CEC8",
"l 	c #FEF7F0",
"m 	c #FEF8F1",
"n 	c #FCEDE7",
"o 	c #ED8C8B",
"p 	c #F7CFC9",
"q 	c #F7CCC7",
"r 	c #EEC4BE",
"s 	c #FCECE6",
"t 	c #F0A6A3",
"u 	c #E35254",
"v 	c #FADED8",
"w 	c #F9D6D2",
"x 	c #EAA7A5",
"y 	c #F2ACAA",
"z 	c #EA8181",
"A 	c #E24C4C",
"B 	c #FAE5E0",
"C 	c #FDF5F0",
"D 	c #F9E0DC",
"E 	c #FCECE7",
"F 	c #FDF4EF",
"G 	c #FDF2ED",
"H 	c #E24D4E",
"I 	c #E79A9A",
"J 	c #EC8A8B",
"K 	c #E2494B",
"L 	c #FDF2EE",
"M 	c #FDF3EF",
"N 	c #E86E6F",
"O 	c #EDBFBC",
"P 	c #F9DAD6",
"Q 	c #E87171",
"R 	c #EE9493",
"S 	c #E37F7F",
"T 	c #F4BBB9",
"U 	c #FBECE9",
"V 	c #FCF0ED",
"W 	c #F0A4A4",
"X 	c #E1484A",
"Y 	c #E35354",
"Z 	c #FCF1EE",
"` 	c #F3B9B7",
" .	c #E45556",
"..	c #F1A9A8",
"+.	c #FCEFEC",
"@.	c #F6C8C5",
"#.	c #E35355",
"$.	c #E45658",
"%.	c #F9DDDA",
"&.	c #E87373",
"*.	c #FAE1E0",
"=.	c #F8D6D5",
"-.	c #E55C5E",
";.	c #E4585A",
">.	c #FCEFED",
",.	c #E55E5F",
"'.	c #F8D9D7",
").	c #F9DDDB",
"!.	c #E55B5D",
"~.	c #E55A5C",
"{.	c #FCEEEC",
"].	c #ED8E8E",
"^.	c #E45D5D",
"/.	c #F8DDDD",
"(.	c #F8D5D6",
"_.	c #E45355",
":.	c #FBEDEC",
"<.	c #F4C2C1",
"[.	c #E76A6B",
"}.	c #FAE8E7",
"|.	c #F4BDBE",
"1.	c #E45E5F",
"2.	c #FBECEB",
"3.	c #FBEBEA",
"4.	c #DB5456",
"5.	c #EE999A",
"6.	c #FBEBEB",
"7.	c #EA8485",
"8.	c #E55F61",
"9.	c #E38B8C",
"0.	c #BE2F30",
"a.	c #D94445",
"b.	c #E69E9F",
"c.	c #E48C8C",
"d.	c #DB5052",
"e.	c #E7A3A4",
"f.	c #E6A1A2",
"g.	c #C55153",
"h.	c #A01818",
"                                                ",
"                                                ",
"    . + @ @ @ @ @ @ @ @ @ # $ % $ $ $ & + *     ",
"    @ = = = = = = = = - ; > , ' ) ) ) ! = @     ",
"    ~ = = = = = = = { ] ^ / ( _ _ _ : - = ~     ",
"    ~ = = = = = < [ } | 1 = 2 : : : 3 = = ~     ",
"    ~ = = = = 4 5 6 7 8 = = 9 6 6 6 0 = = ~     ",
"    ~ = = a b c d e f = = = g d d d h = = ~     ",
"    i j k l m n o = = = = = p m m m q = = ~     ",
"    r l l s t u = = = = = = v l l l w = = ~     ",
"    x y z A = = = = = = = = B C C C D = = ~     ",
"    ~ = = = = = = = = = = = E F F F G H = ~     ",
"    I J K = = = = = = = = < L M M M M N = ~     ",
"    O L P Q = = = = = = = A L L L L L R = ~     ",
"    S T U V W X = = = = = Y Z Z Z Z Z ` = ~     ",
"    ~ =  ...+.@.#.= = = = $.V V V V V %.= ~     ",
"    ~ = = = &.*.=.-.= = = ;.>.>.>.>.>.>.-.~     ",
"    ~ = = = = ,.'.).!.= = ~.{.{.{.{.{.{.].~     ",
"    ~ = = = = = ^./.(._.= ^.:.:.:.:.:.:.<.~     ",
"    ~ = = = = = = [.}.|.< 1.2.2.2.2.2.2.3.4.    ",
"    @ = = = = = = = 5.6.7.8.6.6.6.6.6.6.6.9.    ",
"    0.+ @ @ @ @ @ @ a.b.c.d.e.e.e.e.e.e.f.g.    ",
"        h.h.h.h.h.h.h.h.h.h.h.h.h.h.h.h.        ",
"                                                "};
