/* XPM */
static char * evolution_tasks_xpm[] = {
"24 24 53 1",
" 	c None",
".	c #037BDA",
"+	c #0A0A0D",
"@	c #080B0E",
"#	c #0D4A7B",
"$	c #2A93DF",
"%	c #329BE6",
"&	c #141618",
"*	c #3E3E3E",
"=	c #636363",
"-	c #6E6E6E",
";	c #3A82B8",
">	c #46A9EE",
",	c #1A1A1B",
"'	c #4A4A4A",
")	c #C5C5C5",
"!	c #FCFCFC",
"~	c #89C1EE",
"{	c #74B7EB",
"]	c #C6C6C6",
"^	c #FFFFFF",
"/	c #D9D9D9",
"(	c #D4D4D4",
"_	c #DFDFDF",
":	c #F9F9F9",
"<	c #E4E4E4",
"[	c #FDFDFD",
"}	c #F0F0F0",
"|	c #F6F6F6",
"1	c #F8F8F8",
"2	c #FBFBFB",
"3	c #E3E3E3",
"4	c #EDEDED",
"5	c #F4F4F4",
"6	c #EEEEEE",
"7	c #E9E9E9",
"8	c #F2F2F2",
"9	c #E6E6E6",
"0	c #D0D0D0",
"a	c #E1E1E1",
"b	c #B6B6B6",
"c	c #B3B3B3",
"d	c #B8B8B8",
"e	c #5E5E5E",
"f	c #4B4B4B",
"g	c #F5F5F5",
"h	c #4F4F4F",
"i	c #898989",
"j	c #A1A1A1",
"k	c #9F9F9F",
"l	c #151517",
"m	c #323333",
"n	c #383838",
"                        ",
"           ..           ",
"    +@@@@#$%%$#@@@@+    ",
"   &*=---;>>>>;---=*&   ",
"   ,')!!!~{{{{~!!!)',   ",
"   ,']^^^^^^^^^^^^]',   ",
"   ,']^^^^/(_:<<:^]',   ",
"   ,']^[}|1:|||:^^]',   ",
"   ,']^234}54445^^]',   ",
"   ,']^:((<(666(7^]',   ",
"   ,']^[||85}8^|[^]',   ",
"   ,']^2449739^42^]',   ",
"   ,']^:(<<(_75^^^]',   ",
"   ,']^[}58|:1}}[^]',   ",
"   ,']^237945400_ab',   ",
"   ,']^:<</_6}cccdef,   ",
"   ,']^^^^^^^gccdehf,   ",
"   ,']^^^^^^^gcdehhf,   ",
"   ,']^^^^^^^gdehhhf,   ",
"   ,'ijjjjjjjkehhhhf,   ",
"   ,fhhhhhhhhhhhhhhf,   ",
"   lmnnnnnnnnnnnnnnml   ",
"                        ",
"                        "};
