/* XPM */
static char * file_manager_xpm[] = {
"24 24 34 1",
" 	c None",
".	c #D9D9D9",
"+	c #E7E7E7",
"@	c #DADADA",
"#	c #F9F9F9",
"$	c #FEFEFE",
"%	c #FFFFFF",
"&	c #F3F3F3",
"*	c #EBEFF5",
"=	c #C6D2E1",
"-	c #BBC7D7",
";	c #F2F5F8",
">	c #7BA5D8",
",	c #6BA4E7",
"'	c #2F66AA",
")	c #4C83C6",
"!	c #7AA3D4",
"~	c #7FA7D8",
"{	c #6CA5E7",
"]	c #356BAD",
"^	c #6BA3E6",
"/	c #5C8DC7",
"(	c #69A1E2",
"_	c #5A8AC3",
":	c #5684BB",
"<	c #659BDA",
"[	c #5C8DC6",
"}	c #6AA3E5",
"|	c #5988C0",
"1	c #5D8EC8",
"2	c #669CDB",
"3	c #669CDC",
"4	c #2F65A9",
"5	c #2E64A7",
"                        ",
"                        ",
"                        ",
"    .+++++@             ",
"  +#$%%%%%$##########+  ",
"  &%%%%%%%%*=========-  ",
"  &%%%%%%%;>,,,,,,,,,,,'",
" )!~~~~~~~>{,,,,,,,,,,,]",
"],,,,,,,,,,,,,,,,,,,,,,]",
"],,,,,,,,,,^^,,,,,,,,,,]",
"],,,,,,,,,^//(_,,,,,,,,]",
"],,,,,,,,^/::/<,,,,,,,,]",
"],,,,,,,^/::::[},,,,,,,]",
"],,,,,,^/::::::/^,,,,,,]",
"],,,,,,<|::::::|<,,,,,,]",
"],,,,,,,}::11::},,,,,,,]",
"],,,,,,,,::22::,,,,,,,,]",
"],,,,,,,,::33::,,,,,,,,]",
"],,,,,,,,,,,,,,,,,,,,,,]",
"],,,,,,,,,,,,,,,,,,,,,,]",
"4,,,,,,,,,,,,,,,,,,,,,,5",
"                        ",
"                        ",
"                        "};
