/* XPM */
static char * firefox_trunk_xpm[] = {
"24 24 196 2",
"  	c None",
". 	c #138FE2",
"+ 	c #153072",
"@ 	c #178BDC",
"# 	c #32B4F8",
"$ 	c #1796E8",
"% 	c #21459B",
"& 	c #274DB2",
"* 	c #2A54C0",
"= 	c #2A54C4",
"- 	c #2954BF",
"; 	c #268CE0",
"> 	c #3BBFFF",
", 	c #30AFF4",
"' 	c #138FE4",
") 	c #178EE6",
"! 	c #214196",
"~ 	c #2953BE",
"{ 	c #2A55C4",
"] 	c #265AC6",
"^ 	c #30AEF5",
"/ 	c #33B3F9",
"( 	c #30B1F8",
"_ 	c #1D9AF2",
": 	c #1C92EC",
"< 	c #2347A4",
"[ 	c #2A55C3",
"} 	c #275BC7",
"| 	c #2573D4",
"1 	c #255FC9",
"2 	c #2463CC",
"3 	c #36BAFC",
"4 	c #239DEA",
"5 	c #1F99F6",
"6 	c #219CF6",
"7 	c #237AD8",
"8 	c #247CD9",
"9 	c #2178D8",
"0 	c #2CA5F0",
"a 	c #2282DC",
"b 	c #2A56C5",
"c 	c #265BC7",
"d 	c #31AFF7",
"e 	c #35B5FB",
"f 	c #168FE0",
"g 	c #229DF5",
"h 	c #3ABEFF",
"i 	c #34B5FB",
"j 	c #2368D1",
"k 	c #248BE1",
"l 	c #219CFA",
"m 	c #1A8EEC",
"n 	c #1471C3",
"o 	c #31AFF6",
"p 	c #35B8FE",
"q 	c #1E97F6",
"r 	c #2193F0",
"s 	c #2085E5",
"t 	c #275DCA",
"u 	c #2BA0EE",
"v 	c #2BA9FC",
"w 	c #0C7FF5",
"x 	c #1284E5",
"y 	c #2189D7",
"z 	c #39BDFF",
"A 	c #1D98F8",
"B 	c #1E98F8",
"C 	c #2183E3",
"D 	c #2469CF",
"E 	c #30ACF4",
"F 	c #2DADFC",
"G 	c #0E82F6",
"H 	c #1384F1",
"I 	c #2BA4EE",
"J 	c #27A0F4",
"K 	c #2370D6",
"L 	c #2273D4",
"M 	c #36B9FC",
"N 	c #28A5FB",
"O 	c #1186F6",
"P 	c #1084F6",
"Q 	c #279DEB",
"R 	c #35B5F9",
"S 	c #2498E9",
"T 	c #2692E7",
"U 	c #2AA7FB",
"V 	c #249FFA",
"W 	c #148AF7",
"X 	c #1287F7",
"Y 	c #148BE9",
"Z 	c #289EEA",
"` 	c #36B9FE",
" .	c #239EF9",
"..	c #2081E1",
"+.	c #2360CA",
"@.	c #2190EE",
"#.	c #1E97F9",
"$.	c #1E9AF9",
"%.	c #178EF8",
"&.	c #148BF7",
"*.	c #148EF0",
"=.	c #279AE8",
"-.	c #2BAAFB",
";.	c #1D97F8",
">.	c #1F94F2",
",.	c #2859C8",
"'.	c #2759C6",
").	c #226FD5",
"!.	c #265DCA",
"~.	c #2962CD",
"{.	c #1F99F9",
"].	c #1C96F9",
"^.	c #1A92F8",
"/.	c #178FF8",
"(.	c #158FF0",
"_.	c #2691E1",
":.	c #2EAFFC",
"<.	c #23A0F9",
"[.	c #1F98F7",
"}.	c #1F95F2",
"|.	c #1F99F8",
"1.	c #2565CE",
"2.	c #265FCA",
"3.	c #2780E2",
"4.	c #24A0FA",
"5.	c #229DFA",
"6.	c #1F9AF9",
"7.	c #1D96F9",
"8.	c #1A93F8",
"9.	c #178EEF",
"0.	c #2080D1",
"a.	c #3ABDFF",
"b.	c #31B2FD",
"c.	c #2FAFFC",
"d.	c #32B2FB",
"e.	c #2491E5",
"f.	c #226CD2",
"g.	c #2956C5",
"h.	c #2384DF",
"i.	c #2AA3F6",
"j.	c #27A4FB",
"k.	c #25A1FA",
"l.	c #209AF9",
"m.	c #176DBC",
"n.	c #34B2F7",
"o.	c #3ABEFE",
"p.	c #2096E7",
"q.	c #1F7BD9",
"r.	c #226BD0",
"s.	c #2277D7",
"t.	c #33B5FA",
"u.	c #2EACFC",
"v.	c #2AA8FC",
"w.	c #25A1FB",
"x.	c #239EFA",
"y.	c #219AF3",
"z.	c #2288DB",
"A.	c #3BBEFF",
"B.	c #2CA3F0",
"C.	c #268AE1",
"D.	c #2585DE",
"E.	c #2897E9",
"F.	c #37B9FE",
"G.	c #32B3FD",
"H.	c #30AFFD",
"I.	c #2DACFC",
"J.	c #26A2FB",
"K.	c #1C96F0",
"L.	c #1769BE",
"M.	c #2CA2EE",
"N.	c #3ABFFF",
"O.	c #37BAFE",
"P.	c #35B7FE",
"Q.	c #30B0FD",
"R.	c #249DF0",
"S.	c #1A72C4",
"T.	c #31ABF3",
"U.	c #38BBFE",
"V.	c #33B4FD",
"W.	c #30B1FD",
"X.	c #2AA3F2",
"Y.	c #1B76C7",
"Z.	c #2BA3EF",
"`.	c #36B8FE",
" +	c #289FEB",
".+	c #2189DA",
"++	c #30AFF5",
"@+	c #38BBFC",
"#+	c #2FA8EF",
"$+	c #1C92DE",
"%+	c #1C81D3",
"&+	c #248BDA",
"*+	c #2591E1",
"=+	c #2591E0",
"-+	c #238BDB",
";+	c #1D84D4",
"                                                ",
"                              .                 ",
"                      + +   @ # $               ",
"                % & * = = - ; > , ' )           ",
"            ! ~ { { { { { ] ^ > > / (           ",
"      _ : < [ { } | 1 { { 2 3 > > > > 4         ",
"      5 6 7 8 9 0 a b { { c d > > > > e f       ",
"      g h > > > i j { { { { k > > > > l m       ",
"    n o > > > > p q r s { { t u > > > v w x     ",
"    y > > > > > z A B C { { { D E > > F G H     ",
"    I > > > > > > J K { { { { { L M > N O P     ",
"    Q > > > > > R S { { { { { { [ T U V W X Y   ",
"    Z > > > `  ...+.[ { { { { { { @.#.$.%.&.*.  ",
"    =.> > > -.;.>.,.{ '.).!.{ { ~.l {.].^./.(.  ",
"    _.> > > :.<.;.[.}.|.;.[.1.2.3.4.5.6.7.8.9.  ",
"    0.> > > > a.b.F c.d.e.f.g.h.i.j.k.5.l.;.    ",
"    m.n.> > > > o.p.q.r.g.g.s.t.u.v.N w.x.y.    ",
"      z.> > > > > A.B.C.D.E.F.G.H.I.v N J.K.    ",
"      L.M.> > > > > > > > N.O.P.G.Q.F v R.      ",
"        S.T.> > > > > > > > h U.P.V.W.X.        ",
"          Y.Z.> > > > > > > > > U.`. +          ",
"              .+++> > > > > > @+#+$+            ",
"                  %+&+*+=+-+;+                  ",
"                                                "};
