/* XPM */
static char * gimp_24x24_xpm[] = {
"24 24 97 2",
"  	c None",
". 	c #463B2D",
"+ 	c #504434",
"@ 	c #504435",
"# 	c #473C2E",
"$ 	c #544737",
"% 	c #5B4D3C",
"& 	c #3A3226",
"* 	c #3C3024",
"= 	c #544838",
"- 	c #544736",
"; 	c #5C4E3C",
"> 	c #5A4D3A",
", 	c #483D2E",
"' 	c #40382A",
") 	c #403729",
"! 	c #483E2E",
"~ 	c #594B3A",
"{ 	c #534635",
"] 	c #524535",
"^ 	c #514535",
"/ 	c #504433",
"( 	c #4F4333",
"_ 	c #4D4131",
": 	c #4C4131",
"< 	c #483C2D",
"[ 	c #443A2B",
"} 	c #A7A096",
"| 	c #E1DEDB",
"1 	c #BDB7AF",
"2 	c #605241",
"3 	c #615442",
"4 	c #BEB9B2",
"5 	c #A49C92",
"6 	c #44392C",
"7 	c #403526",
"8 	c #7E7365",
"9 	c #C0C0C0",
"0 	c #F4F4F4",
"a 	c #BCBCBC",
"b 	c #9F978C",
"c 	c #A39B91",
"d 	c #BABABA",
"e 	c #F3F3F3",
"f 	c #C2C2C2",
"g 	c #7B6F61",
"h 	c #3E3428",
"i 	c #5A4D3C",
"j 	c #857A6D",
"k 	c #5B5B5B",
"l 	c #8D8D8D",
"m 	c #424242",
"n 	c #A49D93",
"o 	c #A59F95",
"p 	c #434343",
"q 	c #8C8C8C",
"r 	c #5E5E5E",
"s 	c #827769",
"t 	c #4D4232",
"u 	c #5D4F3D",
"v 	c #7C7975",
"w 	c #3A3939",
"x 	c #6B6967",
"y 	c #665847",
"z 	c #675A49",
"A 	c #696765",
"B 	c #7E7A75",
"C 	c #4C4031",
"D 	c #3B3627",
"E 	c #5A4D3B",
"F 	c #3B3324",
"G 	c #41382A",
"H 	c #5C4D3C",
"I 	c #5B4E3B",
"J 	c #40372A",
"K 	c #433929",
"L 	c #42382A",
"M 	c #43392B",
"N 	c #5C4E3B",
"O 	c #41372A",
"P 	c #3D3427",
"Q 	c #5A4C3A",
"R 	c #443C32",
"S 	c #36312C",
"T 	c #36322C",
"U 	c #5A4C3B",
"V 	c #3F362A",
"W 	c #363223",
"X 	c #2F2B26",
"Y 	c #252525",
"Z 	c #2F2B25",
"` 	c #382F22",
" .	c #0A0A0A",
"..	c #1C1C1C",
"+.	c #232323",
"@.	c #1B1B1B",
"#.	c #0B0B0B",
"                                                ",
"                                                ",
"                                                ",
"    . +                                 @ #     ",
"    $ % &                             * % =     ",
"    - ; > , ' ) ) ) ) ) ) ) ) ) ) ' ! ~ ; {     ",
"    ] ; ; ; ; ; ; ; ; ; ; ; ; ; ; ; ; ; ; ^     ",
"    / ; ; ; ; ; ; ; ; ; ; ; ; ; ; ; ; ; ; (     ",
"    _ ; ; ; ; ; ; ; ; ; ; ; ; ; ; ; ; ; ; :     ",
"    , ; ; ; ; ; ; ; ; ; ; ; ; ; ; ; ; ; ; <     ",
"    [ ; ; ; } | 1 2 ; ; ; ; 3 4 | 5 ; ; ; 6     ",
"    7 ; ; 8 9 0 a b ; ; ; ; c d e f g ; ; h     ",
"      i ; j k l m n ; ; ; ; o p q r s ; ~       ",
"      t ; u v w x y ; ; ; ; z A w B u ; C       ",
"      D E ; ; ; ; ; ; ; ; ; ; ; ; ; ; i F       ",
"        G H ; ; ; ; ; ; ; ; ; ; ; ; I J         ",
"          K I ; ; ; ; ; ; ; ; ; ; I L           ",
"            M N ; ; ; ; ; ; ; ; I O             ",
"              P Q E R S T R % U V               ",
"                W X Y Y Y Y Z `                 ",
"                   ...+.+.@.#.                  ",
"                                                ",
"                                                ",
"                                                "};
