/* XPM */
static char * gnome_paint_xpm[] = {
"24 24 55 1",
" 	c None",
".	c #ECECEC",
"+	c #FAFAFA",
"@	c #FEFEFE",
"#	c #FFFFFF",
"$	c #FBFBFB",
"%	c #F7F7F7",
"&	c #F6F6F6",
"*	c #EDEDED",
"=	c #BDBDBD",
"-	c #4E4E4E",
";	c #E9E9E9",
">	c #B3B3B3",
",	c #353535",
"'	c #5F5F5F",
")	c #F9F9F9",
"!	c #AAAAAA",
"~	c #575757",
"{	c #F1F1F1",
"]	c #A0A0A0",
"^	c #333333",
"/	c #505050",
"(	c #EBEBEB",
"_	c #919191",
":	c #494949",
"<	c #E5E5E5",
"[	c #848484",
"}	c #454545",
"|	c #E0E0E0",
"1	c #FCFCFC",
"2	c #FFFCFA",
"3	c #FFD69D",
"4	c #E5BC73",
"5	c #363636",
"6	c #404040",
"7	c #D9D9D9",
"8	c #E6E6E6",
"9	c #D0D0D0",
"0	c #FFCAA4",
"a	c #FFC83D",
"b	c #FFD13D",
"c	c #C89860",
"d	c #FDFDFD",
"e	c #FFC194",
"f	c #FF9B3D",
"g	c #FFB077",
"h	c #F4F4F4",
"i	c #D1D1D1",
"j	c #FFFDFC",
"k	c #FFB078",
"l	c #FF964A",
"m	c #FFA768",
"n	c #FFEEE1",
"o	c #F5F5F5",
"p	c #E7E7E7",
"                        ",
"                        ",
"        .+@##@$.        ",
"      .##########.      ",
"     %############&     ",
"    &##############%    ",
"   *################.   ",
"   ############=-;###   ",
"  .###########>,')###.  ",
"  +##########!,~{####)  ",
"  @#########]^/(#####@  ",
"  ########@_^:<#######  ",
"  #######@[^}|####1@##  ",
"  @####234567####8 9##  ",
"  +####0abc7#####   d#  ",
"  .####effg######hi.#1  ",
"   ###jklmn##########<  ",
"   .############o.o)p   ",
"    %##########8        ",
"     &########)         ",
"      .#######<         ",
"        .+@##%          ",
"                        ",
"                        "};
