/* XPM */
static char * gparted_xpm[] = {
"24 24 92 2",
"  	c None",
". 	c #C1C2C5",
"+ 	c #D7D9DD",
"@ 	c #E1E3E7",
"# 	c #DADBDF",
"$ 	c #DFE1E4",
"% 	c #DADCE1",
"& 	c #DEE0E4",
"* 	c #DBDEE1",
"= 	c #969AA2",
"- 	c #606571",
"; 	c #606470",
"> 	c #5F6470",
", 	c #D7DADE",
"' 	c #EDEFF3",
") 	c #757A85",
"! 	c #808490",
"~ 	c #7E8290",
"{ 	c #7D818F",
"] 	c #616676",
"^ 	c #4C5263",
"/ 	c #484F5F",
"( 	c #B6BAC0",
"_ 	c #878B98",
": 	c #7B808D",
"< 	c #6C727F",
"[ 	c #696E7D",
"} 	c #626777",
"| 	c #686E7B",
"1 	c #8A8E97",
"2 	c #535866",
"3 	c #545966",
"4 	c #535865",
"5 	c #555A67",
"6 	c #555A68",
"7 	c #565B68",
"8 	c #D0D3D8",
"9 	c #E0E2E6",
"0 	c #DBDCE1",
"a 	c #ECEEF2",
"b 	c #DADDE0",
"c 	c #CDCED1",
"d 	c #DDDFE2",
"e 	c #DADCE0",
"f 	c #ECEEF1",
"g 	c #D8D9DE",
"h 	c #CECFD2",
"i 	c #DCDEE2",
"j 	c #DFE2E5",
"k 	c #E0E2E7",
"l 	c #DDDEE3",
"m 	c #D8DADE",
"n 	c #DCDFE3",
"o 	c #E8EAEF",
"p 	c #E3E5EA",
"q 	c #DFE1E5",
"r 	c #DEDFE3",
"s 	c #DDDEE1",
"t 	c #F8F8F9",
"u 	c #E9E9EB",
"v 	c #DBDEE2",
"w 	c #EAEBF0",
"x 	c #E9ECEF",
"y 	c #E0E2E4",
"z 	c #FDFEFE",
"A 	c #F5F5F6",
"B 	c #EAECEF",
"C 	c #DFE1E6",
"D 	c #E2E3E8",
"E 	c #E4E7EB",
"F 	c #EAEBED",
"G 	c #FFFFFF",
"H 	c #FBFBFC",
"I 	c #DBDDDF",
"J 	c #DEDEE3",
"K 	c #F5F6F6",
"L 	c #FEFEFE",
"M 	c #E0E2E5",
"N 	c #E9EAEF",
"O 	c #DBDDE1",
"P 	c #DCDFE2",
"Q 	c #FCFCFD",
"R 	c #E3E4E7",
"S 	c #DEE0E5",
"T 	c #E1E3E5",
"U 	c #E9EAEC",
"V 	c #E9EBED",
"W 	c #DCDEE3",
"X 	c #DEE0E3",
"Y 	c #E6E7EA",
"Z 	c #DDDFE3",
"` 	c #DDE0E3",
"                                                ",
"                                                ",
"        . + @ @ @ @ @ @ @ @ @ @ @ @ + .         ",
"        # @ @ @ @ @ @ @ @ $ % & & & * #         ",
"        # @ = - - - - - ; > , ' ' ' % #         ",
"        # @ ) ! ~ { ~ ] ^ / ( ' ' ' % #         ",
"        # @ ) ! _ : < ^ ^ / ( ' ' ' % #         ",
"        # @ ) ! _ ~ [ } _ | ( ' ' ' % #         ",
"        # @ 1 2 3 4 5 6 6 7 8 ' ' ' % #         ",
"        # @ @ 9 0 a ' ' ' ' ' ' ' ' % #         ",
"        # @ 9 b a ' ' ' ' ' ' ' ' ' % #         ",
"        c d e f ' ' ' ' ' ' ' ' ' ' g h         ",
"        h i j ' ' ' k l l k ' ' ' ' m h         ",
"        # n o ' ' p q * r & p ' ' ' % #         ",
"        # 0 a ' ' q s t u 9 q ' ' a e #         ",
"        # v w ' x y z A v 9 @ ' ' B * #         ",
"        # C D E F G H I J l a ' ' @ C #         ",
"        # @ m K G L M N N ' ' ' ' O @ #         ",
"        # P Q G G R a ' ' ' ' ' S j @ #         ",
"        # T G G U V ' ' ' ' a W X @ @ #         ",
"        # d u Y i O Z & & ` O 9 @ @ @ #         ",
"        . + @ @ @ @ @ @ @ @ @ @ @ @ + .         ",
"                                                ",
"                                                "};
