/* XPM */
static char * help_browser_xpm[] = {
"24 24 90 1",
" 	c None",
".	c #22799F",
"+	c #2C83AA",
"@	c #2A85AB",
"#	c #3494BF",
"$	c #3BA1D0",
"%	c #3EA7D7",
"&	c #3FA7D7",
"*	c #3BA0D0",
"=	c #3393BE",
"-	c #2A83AB",
";	c #3394BF",
">	c #3EA6D7",
",	c #3EA6D6",
"'	c #2A82A9",
")	c #399DCB",
"!	c #3EA5D4",
"~	c #3B9CC9",
"{	c #3895C0",
"]	c #3793BD",
"^	c #399DCA",
"/	c #2A84AB",
"(	c #368FB9",
"_	c #879FB6",
":	c #D7C4CA",
"<	c #EDD6D8",
"[	c #D7C3C9",
"}	c #3B9DCA",
"|	c #3A9DCB",
"1	c #3998C4",
"2	c #4B8BAF",
"3	c #CC767A",
"4	c #FFAEA9",
"5	c #FFFFFF",
"6	c #FFADA8",
"7	c #CB777A",
"8	c #4A8BAE",
"9	c #3A99C4",
"0	c #E9726E",
"a	c #FF6E65",
"b	c #FF7168",
"c	c #FFE9E7",
"d	c #FFFEFE",
"e	c #E8716F",
"f	c #2A83A9",
"g	c #CD767A",
"h	c #D87475",
"i	c #7991AB",
"j	c #4293BA",
"k	c #7A92AB",
"l	c #C9777B",
"m	c #3493BE",
"n	c #879FB5",
"o	c #3E8CB4",
"p	c #368EB7",
"q	c #3791BB",
"r	c #869FB6",
"s	c #3BA0CF",
"t	c #227BA0",
"u	c #7A91AA",
"v	c #D6C4CA",
"w	c #3EA7D6",
"x	c #237BA1",
"y	c #2B84A8",
"z	c #3792BC",
"A	c #4293B9",
"B	c #ECD6D7",
"C	c #2B82AB",
"D	c #EDD5D8",
"E	c #4595BA",
"F	c #4593B9",
"G	c #ECD5D7",
"H	c #2880A8",
"I	c #227CA2",
"J	c #3C9DCA",
"K	c #D6C3CA",
"L	c #3FA7D6",
"M	c #24779E",
"N	c #3BA1CF",
"O	c #D97474",
"P	c #C9767C",
"Q	c #3493BF",
"R	c #2B83A9",
"S	c #E7726F",
"T	c #4A8BAF",
"U	c #2B84AE",
"V	c #2882AA",
"W	c #2B84A9",
"X	c #23799F",
"Y	c #2C81AA",
"                        ",
"          .++.          ",
"       @#$%&&%*=-       ",
"      ;>&&&&&&&&,#      ",
"    ')&&!~{]]{~!&&^/    ",
"    ^&&~(_:<<[_(}&&|    ",
"   ;&&123455556789&&#   ",
"  @,&~20abcddcbae8}&,f  ",
"  #&!(gaahijjkhaal(!&m  ",
"  *&~n6bhopqqpohb6r}&s  ",
" t%&{:5cip~&&}puc5v{&wx ",
" y&&z<5djq&&&&qAd5B]&&C ",
" C&&]D5dEq&&&&qFd5G]&&H ",
" Iw&{:5ckp}&&Jpuc5K{&LM ",
"  N&~_4bhopqqpoOb6r}&s  ",
"  m&!(7aahkjjuOaaP(!&Q  ",
"  R,&}8eabcddcbaST}&>U  ",
"   =&&98l455554PT9&&=   ",
"    ^&&}(rK<<Kr(}&&^    ",
"    /^&&!}{]]{}!&&^V    ",
"      =,&&&&&&&&,;      ",
"       Wmsw&&wsm+       ",
"          XYYX          ",
"                        "};
