/* XPM */
static char * internet_web_browser_24x24_xpm[] = {
"24 24 173 2",
"  	c None",
". 	c #215A8F",
"+ 	c #27649F",
"@ 	c #2B6AAE",
"# 	c #2B69B1",
"$ 	c #2F6CA5",
"% 	c #427E7F",
"& 	c #538B5C",
"* 	c #508B64",
"= 	c #286590",
"- 	c #3274B9",
"; 	c #4088D9",
"> 	c #4894E4",
", 	c #3071CB",
"' 	c #3377CE",
") 	c #5BACF6",
"! 	c #4B8CB1",
"~ 	c #649D53",
"{ 	c #76B251",
"] 	c #52906B",
"^ 	c #2764A5",
"/ 	c #4F9EE8",
"( 	c #57A8F3",
"_ 	c #5DB1FA",
": 	c #4F9CEB",
"< 	c #377BD2",
"[ 	c #51A0ED",
"} 	c #5AADF7",
"| 	c #5CB0F9",
"1 	c #60B4FD",
"2 	c #417EA8",
"3 	c #76B24D",
"4 	c #92D249",
"5 	c #64A15F",
"6 	c #2C6AAD",
"7 	c #56A7F1",
"8 	c #4D9BE9",
"9 	c #4B97E7",
"0 	c #60B5FD",
"a 	c #5EB2FB",
"b 	c #59ABF6",
"c 	c #53A3EF",
"d 	c #4F9DEB",
"e 	c #428ADC",
"f 	c #4A8272",
"g 	c #91D249",
"h 	c #96D649",
"i 	c #6DA959",
"j 	c #2562A2",
"k 	c #3071C9",
"l 	c #4088DC",
"m 	c #3477CF",
"n 	c #3274CD",
"o 	c #54A5F1",
"p 	c #5DB2FA",
"q 	c #387DD4",
"r 	c #326BA6",
"s 	c #81BD47",
"t 	c #97D84A",
"u 	c #639F63",
"v 	c #225E92",
"w 	c #2E6FC6",
"x 	c #357AD1",
"y 	c #55A6F2",
"z 	c #5BAEF8",
"A 	c #377CD2",
"B 	c #367AD2",
"C 	c #3070C3",
"D 	c #6FA951",
"E 	c #4E8B71",
"F 	c #2966B0",
"G 	c #3B81D6",
"H 	c #4791E3",
"I 	c #5FB5FC",
"J 	c #4D99E2",
"K 	c #75B24E",
"L 	c #73AF58",
"M 	c #20588F",
"N 	c #2E6EC4",
"O 	c #5AACF6",
"P 	c #3174CC",
"Q 	c #4E96BA",
"R 	c #88C747",
"S 	c #90D149",
"T 	c #498477",
"U 	c #25619E",
"V 	c #428BDE",
"W 	c #58ABF5",
"X 	c #56A7F2",
"Y 	c #55A5F2",
"Z 	c #3173CC",
"` 	c #2E6EC6",
" .	c #62A06C",
"..	c #5A9468",
"+.	c #2B69AB",
"@.	c #4C99E8",
"#.	c #54A4F0",
"$.	c #438DE0",
"%.	c #2F70C3",
"&.	c #55957E",
"*.	c #8FCE48",
"=.	c #66A15F",
"-.	c #4993CF",
";.	c #458EE1",
">.	c #3F87DB",
",.	c #59ACF6",
"'.	c #5BADF1",
").	c #56A6E6",
"!.	c #3F82B8",
"~.	c #488894",
"{.	c #6AA863",
"].	c #6FAB5A",
"^.	c #4E99D5",
"/.	c #3072CB",
"(.	c #3578D0",
"_.	c #5AABE9",
":.	c #5DA090",
"<.	c #74B25F",
"[.	c #82C149",
"}.	c #89C947",
"|.	c #6CA85A",
"1.	c #4891C8",
"2.	c #438CDF",
"3.	c #3373B7",
"4.	c #6CAB62",
"5.	c #93D449",
"6.	c #649F5E",
"7.	c #3E84B2",
"8.	c #2E6FC5",
"9.	c #619F6A",
"0.	c #558E64",
"a.	c #307096",
"b.	c #5CAFF4",
"c.	c #3B7AA3",
"d.	c #8BCC49",
"e.	c #407A6C",
"f.	c #4D9AD5",
"g.	c #508D7E",
"h.	c #6FAA57",
"i.	c #34739B",
"j.	c #5DB1F6",
"k.	c #55A6F1",
"l.	c #548F71",
"m.	c #457E69",
"n.	c #448ABD",
"o.	c #5FB4FB",
"p.	c #4B8578",
"q.	c #96D74A",
"r.	c #5C9760",
"s.	c #4993C9",
"t.	c #5AADF6",
"u.	c #39779F",
"v.	c #88C749",
"w.	c #67A358",
"x.	c #4189BB",
"y.	c #59AAEE",
"z.	c #599366",
"A.	c #94D54A",
"B.	c #5D985E",
"C.	c #327194",
"D.	c #4083AE",
"E.	c #5B955D",
"F.	c #8FCF48",
"G.	c #73AF53",
"H.	c #4B8367",
"I.	c #29607D",
"J.	c #447A6A",
"K.	c #639D59",
"L.	c #74B051",
"M.	c #75B051",
"N.	c #6AA556",
"O.	c #5B965F",
"P.	c #4A8266",
"                                                ",
"                . + @ # $ % & *                 ",
"            = - ; > , , ' ) ! ~ { ]             ",
"          ^ / ( _ : < [ } | 1 2 3 4 5           ",
"        6 7 8 9 0 a b 0 0 c d e f g h i         ",
"      j k l m n o 0 0 0 0 p [ q r s t h u       ",
"    v w , , x y _ 0 0 0 0 z A B C D t t 4 E     ",
"    F , , G } 0 0 0 0 0 0 H H I J K t t t L     ",
"  M N , A O 0 0 0 0 0 0 0 : m P Q R t t t S T   ",
"  U V W X 0 0 0 0 0 0 0 Y Z , `  .h t t t t ..  ",
"  +.@.#.0 0 0 0 0 0 0 0 $., %.&.*.t t t t t =.  ",
"  -.;.>.0 ,.0 0 0 0 '.).!.~.{.S t t t t t t ].  ",
"  ^.0 W > /.(.b _.:.<.[.}.4 t t t t t t t t |.  ",
"  1.0 0 2., , 3.4.5.t t t t t t t t t t t t 6.  ",
"  7.0 0 < , 8.9.h t t t t t t t t t t t t t 0.  ",
"  a.b.0 > , c.d.t t t t t t t t t t t t t S e.  ",
"    f.0 I $.g.t t t t t t t t t t t t t t h.    ",
"    i.j.0 k.l.t t t t t t t t t t t t t g m.    ",
"      n.o.z p.q.t t t t t t t t t t t h r.      ",
"        s.t.u.v.t t t t t t t t t t h w.        ",
"          x.y.z.A.t t t t t t t t 4 B.          ",
"            C.D.E.F.t t t t t g G.H.            ",
"                I.J.K.L.M.N.O.P.                ",
"                                                "};
