/* XPM */
static char * keyring_manager_xpm[] = {
"24 24 70 1",
" 	c None",
".	c #303B46",
"+	c #353F4A",
"@	c #343F4A",
"#	c #374450",
"$	c #3C4957",
"%	c #3E4B5A",
"&	c #394551",
"*	c #374452",
"=	c #3E4A59",
"-	c #3E4B59",
";	c #324249",
">	c #3B4855",
",	c #424F5D",
"'	c #535F6C",
")	c #606B77",
"!	c #66707C",
"~	c #3A4756",
"{	c #33404A",
"]	c #3B4755",
"^	c #6C7681",
"/	c #6E7883",
"(	c #6B7581",
"_	c #3B4956",
":	c #384451",
"<	c #5B6673",
"[	c #707A84",
"}	c #BEC2C7",
"|	c #BDC2C7",
"1	c #525E6B",
"2	c #3E4A5A",
"3	c #35404B",
"4	c #394351",
"5	c #707A85",
"6	c #B2B8BD",
"7	c #FFFFFF",
"8	c #B2B7BD",
"9	c #394451",
"0	c #717B85",
"a	c #D7DADD",
"b	c #D6D9DC",
"c	c #3C4858",
"d	c #2F3A45",
"e	c #A8AEB5",
"f	c #A7ADB4",
"g	c #303944",
"h	c #D0D4D7",
"i	c #CFD3D6",
"j	c #35404C",
"k	c #D3D6D9",
"l	c #D2D5D9",
"m	c #65707C",
"n	c #323D49",
"o	c #303B43",
"p	c #ADB3B9",
"q	c #ACB2B8",
"r	c #313A46",
"s	c #727C86",
"t	c #DFE1E3",
"u	c #DDE0E2",
"v	c #737C87",
"w	c #B3B8BE",
"x	c #DCDFE1",
"y	c #DCDEE1",
"z	c #343C4A",
"A	c #5A6572",
"B	c #3B4955",
"C	c #374451",
"D	c #353E4A",
"E	c #313C45",
"                        ",
"          .++.          ",
"       @#$%%%%$&@       ",
"      *=%%%%%%%%-#      ",
"    ;>%%,')!!)',%%~{    ",
"    ]%%'^//////('%%_    ",
"   :%%<////[[////<%%#   ",
"  @-%'/////}|/////1%23  ",
"  4%,(///567785///(,%9  ",
"  $%'///0a7777b0///'%c  ",
" d%%)///e777777f///)%%g ",
" @%%!///h777777i///!%%j ",
" j%%!///k777777l///m%%n ",
" o%%)///p777777q///)%2r ",
"  $%'///st7777us///1%c  ",
"  &%,(///vwxy6v///(,%&  ",
"  @-%'////////////1%=z  ",
"   #%%<//////////A%%&   ",
"    ]%%1(//////(1%%B    ",
"    {~%%,')!!)1,%%]{    ",
"      C-%%%%%%%%-9      ",
"       @Cc%%%%c&D       ",
"          E++E          ",
"                        "};
