/* XPM */
static char * panel_xpm[] = {
"24 24 26 1",
" 	c None",
".	c #B2B2B2",
"+	c #F6F6F6",
"@	c #F9F9F9",
"#	c #B4B4B4",
"$	c #CBCBCB",
"%	c #C6C6C6",
"&	c #F2F2F2",
"*	c #B6B6B6",
"=	c #DDDDDD",
"-	c #B8B8B8",
";	c #E6E6E6",
">	c #DADADA",
",	c #E5E5E5",
"'	c #E3E3E3",
")	c #D9D9D9",
"!	c #E7E7E7",
"~	c #DCDCDC",
"{	c #D6D6D6",
"]	c #CECECE",
"^	c #E1E1E1",
"/	c #FAFAFA",
"(	c #DEDEDE",
"_	c #D0D0D0",
":	c #C4C4C4",
"<	c #E2E2E2",
"                        ",
"                        ",
"                        ",
" .+@@@@@@@@@@@@@@@@@@+# ",
" $@@@@@@@@@@@@@@@@@@@@$ ",
" $@@@@@@@@@@@@@@@@@@@@$ ",
" $@@@@@@@@@@@@@@@@@@@@$ ",
" $@@@@@@@@@@@@@@@@@@@@$ ",
" $@@@@@@@@@@@@@@@@@@@@$ ",
" $@@@@@@@@@@@@@@@@@@@@$ ",
" $@@@@@@@@@@@@@@@@@@@@$ ",
" $@@@@@@@@@@@@@@@@@@@@$ ",
" $@@@@@@@@@@@@@@@@@@@@$ ",
" $@@@@@@@@@@@@@@@@@@@@$ ",
" $@@@@@@@@@@@@@@@@@@@@$ ",
" $@@@@@@@@@@@@@@@@@@@@$ ",
" %&&&&&&&&&&&&&&&&&&&&% ",
" *====================* ",
" -;>,')!););~;;{]]]]{;- ",
" -;>+^)/);(@);;_::::_;- ",
"  <'^;'=';^=,;;;;;;;;<  ",
"                        ",
"                        ",
"                        "};
