/* XPM */
static char * preferences_system_time_xpm[] = {
"24 24 43 1",
" 	c None",
".	c #BDBDBD",
"+	c #BCBCBC",
"@	c #DCDCDC",
"#	c #EDEDED",
"$	c #F8F8F8",
"%	c #F9F9F9",
"&	c #BEBEBE",
"*	c #DEDEDE",
"=	c #F6F6F6",
"-	c #E9E9E9",
";	c #CFCFCF",
">	c #EBEBEB",
",	c #C5C5C5",
"'	c #EFEFEF",
")	c #CECECE",
"!	c #E8E8E8",
"~	c #BBBBBB",
"{	c #DDDDDD",
"]	c #D6D6D6",
"^	c #E0E0E0",
"/	c #D8D8D8",
"(	c #F3F3F3",
"_	c #F7E4E0",
":	c #E6E6E6",
"<	c #D1D1D1",
"[	c #CDCDCD",
"}	c #CCCCCC",
"|	c #D5B8B2",
"1	c #C3C3C3",
"2	c #D1C7C5",
"3	c #E8D4CF",
"4	c #F5D3CB",
"5	c #F7F7F7",
"6	c #F7DFDA",
"7	c #F8EDEA",
"8	c #ECECEC",
"9	c #F5D4CC",
"0	c #F9F7F7",
"a	c #F9F6F5",
"b	c #F6D8D1",
"c	c #F7DFD9",
"d	c #BABABA",
"                        ",
"           ..           ",
"       +@#$%%$#@&       ",
"      *=%%%%%%%%=@      ",
"     -%%%%%%%%%%%%-     ",
"    -%%%%%%%%%%%%;%>    ",
"   *%%%%%%%%%%%%,'%%@   ",
"  +=%%%%%%%%%%%)!%%%=~  ",
"  {%%%%%%%%%%%]^%%%%%@  ",
"  #%%%%%%%%%%*/%%%%%%#  ",
"  $%%%($%%%_:<%%%%%%%$  ",
" &%%%%#[}}}|1%%%%%%%%%. ",
" .%%%%%%%%%23%%%%%%%%%+ ",
"  $%%%%%%%%%4%%%%%%%%5  ",
"  #%%%%%%%%%67%%%%%%%8  ",
"  @%%%%%%%%%%4%%%%%%%@  ",
"  &=%%%%%%%%%90%%%%%=~  ",
"   @%%%%%%%%%ab%%%%%@   ",
"    -%%%%%%%%%c%%%%-    ",
"     -%%%%%%%%%%%%-     ",
"      @=%%%%%%%%=@      ",
"       ~@#$%%58@d       ",
"           ++           ",
"                        "};
