/* XPM */
static char * preferences_system_windows_xpm[] = {
"24 24 33 1",
" 	c None",
".	c #BCBDC0",
"+	c #D6D6D7",
"@	c #BCBDBF",
"#	c #C8C9CA",
"$	c #E4E4E4",
"%	c #B8B9BB",
"&	c #C2C2C2",
"*	c #EEEEEE",
"=	c #B4B6B8",
"-	c #9FA1A5",
";	c #BABBBE",
">	c #D5D6D7",
",	c #E8E8E8",
"'	c #DADADB",
")	c #D0D1D2",
"!	c #D8D8D9",
"~	c #CCCCCD",
"{	c #D9D9D9",
"]	c #C9CACB",
"^	c #D2D2D4",
"/	c #F2F2F2",
"(	c #E4E4E5",
"_	c #D4D5D6",
":	c #E6E6E7",
"<	c #D1D2D3",
"[	c #F1F1F1",
"}	c #D1D2D4",
"|	c #C8C9CB",
"1	c #989A9F",
"2	c #B9BCBE",
"3	c #E6E6E6",
"4	c #B8BBBD",
"                        ",
"                        ",
"       .++++++++++++++@ ",
"       #$$$$$$$$$$$$$$# ",
"       #$$$$$$$$$$$$$$# ",
"       %&&&&&&&&&&&&&&% ",
"       @**************@ ",
"       @**************@ ",
"  ====-;**************@ ",
" >,,,,')**************@ ",
" !,,,,')**************@ ",
" !,,,,')**************@ ",
" ~{{{{~]**************@ ",
" ^////(_**************@ ",
" ^////:<**************= ",
" ^////[}||||||||1       ",
" ^//////////////^       ",
" ^//////////////^       ",
" ^//////////////^       ",
" ^//////////////^       ",
" ^//////////////^       ",
" 2333333333333334       ",
"                        ",
"                        "};
