/* XPM */
static char * preferences_desktop_accessibility_zoom_xpm[] = {
"24 24 190 2",
"  	c None",
". 	c #2E70C9",
"+ 	c #3174CE",
"@ 	c #3C85DA",
"# 	c #59AEF8",
"$ 	c #5AB0FA",
"% 	c #3B84D8",
"& 	c #4896E8",
"* 	c #4896E7",
"= 	c #56A9F0",
"- 	c #549AD8",
"; 	c #548CC0",
"> 	c #5488B8",
", 	c #5499D5",
"' 	c #56A8EE",
") 	c #617792",
"! 	c #6D768A",
"~ 	c #717B8F",
"{ 	c #737D91",
"] 	c #5486B4",
"^ 	c #56A7EF",
"/ 	c #549FDE",
"( 	c #5D7796",
"_ 	c #707A8F",
": 	c #737D92",
"< 	c #758297",
"[ 	c #7788A1",
"} 	c #5E7794",
"| 	c #549EDE",
"1 	c #54A0E2",
"2 	c #617590",
"3 	c #747F92",
"4 	c #7D9DBF",
"5 	c #8DBEEB",
"6 	c #94CCFB",
"7 	c #94CCFC",
"8 	c #8EBFEB",
"9 	c #7F9FC1",
"0 	c #747E93",
"a 	c #62758F",
"b 	c #55A0E2",
"c 	c #58ABF3",
"d 	c #5A7A9B",
"e 	c #748196",
"f 	c #88B7E2",
"g 	c #97CEFC",
"h 	c #A0D1FC",
"i 	c #A3D3FC",
"j 	c #A1D2FC",
"k 	c #98CEFC",
"l 	c #8AB8E3",
"m 	c #748198",
"n 	c #5B7998",
"o 	c #4691DF",
"p 	c #5490C6",
"q 	c #6E798C",
"r 	c #85B2DC",
"s 	c #96CDFC",
"t 	c #A4D3FC",
"u 	c #97CDFC",
"v 	c #88B4DF",
"w 	c #6F798D",
"x 	c #487BB3",
"y 	c #59AFF8",
"z 	c #5B7B9E",
"A 	c #7992AF",
"B 	c #9ACFFC",
"C 	c #9BCFFC",
"D 	c #7B94B3",
"E 	c #567294",
"F 	c #55A6EB",
"G 	c #66768D",
"H 	c #84AFDA",
"I 	c #86B2DC",
"J 	c #67748A",
"K 	c #6B7588",
"L 	c #8ABDEB",
"M 	c #8DC1ED",
"N 	c #6C7589",
"O 	c #549CDB",
"P 	c #6C7689",
"Q 	c #8BC0EF",
"R 	c #95CCFC",
"S 	c #8FC3F2",
"T 	c #53A3E6",
"U 	c #6A7488",
"V 	c #94BEE5",
"W 	c #A7D5FC",
"X 	c #B0D9FC",
"Y 	c #99CEFC",
"Z 	c #AFD9FC",
"` 	c #ABD7FC",
" .	c #8BBAE7",
"..	c #7EBCFB",
"+.	c #B8D6FC",
"@.	c #B7D3F7",
"#.	c #617894",
"$.	c #B7BECA",
"%.	c #9CCFFC",
"&.	c #FBFDFF",
"*.	c #F7FAFE",
"=.	c #F9FCFE",
"-.	c #D7EBFE",
";.	c #C4E3FD",
">.	c #FBFCFE",
",.	c #FAFCFE",
"'.	c #FCFDFE",
").	c #8FACCB",
"!.	c #5E738D",
"~.	c #96C7FB",
"{.	c #ECF5FE",
"].	c #F0F8FE",
"^.	c #7A93AC",
"/.	c #727C91",
"(.	c #7A8498",
"_.	c #8EC5F4",
":.	c #F7FBFE",
"<.	c #FAFAFA",
"[.	c #FBFBFB",
"}.	c #DEEFFE",
"|.	c #CAE6FD",
"1.	c #FCFCFC",
"2.	c #F4F5F7",
"3.	c #79849A",
"4.	c #4F73A0",
"5.	c #87C5FB",
"6.	c #F3F7FB",
"7.	c #F7F7F7",
"8.	c #D2DDE6",
"9.	c #69778D",
"0.	c #7F95B1",
"a.	c #AED7FA",
"b.	c #FBFDFE",
"c.	c #FDFDFD",
"d.	c #E2F1FE",
"e.	c #A8D5FC",
"f.	c #D3EAFE",
"g.	c #FEFEFE",
"h.	c #A0A7B5",
"i.	c #67758D",
"j.	c #4488CF",
"k.	c #CBE6FD",
"l.	c #FAFBFD",
"m.	c #F8F9FB",
"n.	c #F1F7FD",
"o.	c #95A8BE",
"p.	c #8C98AD",
"q.	c #D9E5F0",
"r.	c #EBF6FE",
"s.	c #E0F0FE",
"t.	c #DBEDFE",
"u.	c #E2E9F1",
"v.	c #96A0B0",
"w.	c #6E798D",
"x.	c #5489BA",
"y.	c #4895E5",
"z.	c #4796E7",
"A.	c #C3E2FD",
"B.	c #D9ECFE",
"C.	c #D3E9FE",
"D.	c #CBE3FA",
"E.	c #90A1B3",
"F.	c #95A2B5",
"G.	c #B2C1D2",
"H.	c #BBCADB",
"I.	c #B2C1D3",
"J.	c #96A3B7",
"K.	c #758093",
"L.	c #899CB1",
"M.	c #59ADF6",
"N.	c #4794E6",
"O.	c #3378D1",
"P.	c #50A2EF",
"Q.	c #A6CBF3",
"R.	c #A9CDF3",
"S.	c #A7CBF0",
"T.	c #86A0BD",
"U.	c #6D7B8F",
"V.	c #6E7A90",
"W.	c #86A0BC",
"X.	c #A4C9F0",
"Y.	c #3379D2",
"Z.	c #225FBE",
"`.	c #1D4F9E",
" +	c #3F577E",
".+	c #52617B",
"++	c #5C6981",
"@+	c #626D83",
"#+	c #3E557D",
"$+	c #20519C",
"                                                ",
"                                                ",
"    . + + + + + + + + + + + + + + + + + + .     ",
"  @ # $ $ $ $ $ $ $ $ $ $ $ $ $ $ $ $ $ $ # %   ",
"  & $ $ $ $ $ $ $ $ $ $ $ $ $ $ $ $ $ $ $ $ &   ",
"  * $ $ $ $ $ $ $ $ $ = - ; > ; , = $ $ $ $ *   ",
"  * $ $ $ $ $ $ $ ' > ) ! ~ { ~ ! ) ] ^ $ $ *   ",
"  * $ $ $ $ $ $ / ( _ : : < [ < : : ~ } | $ *   ",
"  * $ $ $ $ $ 1 2 { 3 4 5 6 7 6 8 9 0 { a b *   ",
"  * $ $ $ $ c d { e f 7 g h i j k 7 l m { n o   ",
"  * $ $ $ $ p q : r 7 s i t t t i u 7 v : w x   ",
"  * $ $ $ y z : A 7 7 B t t t t t C 7 7 D : E   ",
"  * $ $ $ F G : H 7 7 g t t t t t g 7 7 I : J   ",
"  * $ $ $ 1 K : L 7 7 7 C i t i C 7 7 7 M : N   ",
"  * $ $ $ O P : Q 7 7 7 7 R u R 7 7 7 7 S : !   ",
"  * $ $ $ T U : V 7 7 W X X Y 7 u Z X `  .: U   ",
"  * $ ..+.@.#.: $.7 %.&.*.=.-.7 ;.>.,.'.).: !.  ",
"  * $ ~.{.].^./.(._.h :.<.[.}.7 |.1.<.2.3./.4.  ",
"  * $ 5.6.7.8.9.: 0.a.b.1.c.d.e.f.g.<.h.: i.j.  ",
"  * $ k.l.m.n.o.w : p.q.r.r.s.t.}.u.v.: w.x.y.  ",
"  z.$ A.B.t.C.D.E.q : 0 F.G.H.I.J.K.: q L.M.N.  ",
"  O.P.Q.R.R.R.R.S.T.U.~ : : : : : ~ V.W.X.P.Y.  ",
"      Z.Z.Z.Z.Z.Z.Z.`. +.+++@+++.+#+$+Z.Z.      ",
"                                                "};
