/* XPM */
static char * preferences_desktop_accessibility_pointing_xpm[] = {
"24 24 68 1",
" 	c None",
".	c #FFFFFF",
"+	c #E5E5E5",
"@	c #F7F7F7",
"#	c #A2A2A2",
"$	c #939393",
"%	c #ECECEC",
"&	c #9F9F9F",
"*	c #353535",
"=	c #929292",
"-	c #9E9E9E",
";	c #272727",
">	c #2F2F2F",
",	c #909090",
"'	c #9C9C9C",
")	c #242424",
"!	c #2D2D2D",
"~	c #8E8E8E",
"{	c #9B9B9B",
"]	c #222222",
"^	c #2B2B2B",
"/	c #9A9A9A",
"(	c #1F1F1F",
"_	c #282828",
":	c #8D8D8D",
"<	c #999999",
"[	c #1D1D1D",
"}	c #262626",
"|	c #8C8C8C",
"1	c #989898",
"2	c #1A1A1A",
"3	c #252525",
"4	c #8A8A8A",
"5	c #979797",
"6	c #181818",
"7	c #2C2C2C",
"8	c #444444",
"9	c #4D4D4D",
"0	c #B1B1B1",
"a	c #EDEDED",
"b	c #959595",
"c	c #151515",
"d	c #474747",
"e	c #DADADA",
"f	c #D9D9D9",
"g	c #131313",
"h	c #DDDDDD",
"i	c #212121",
"j	c #CCCCCC",
"k	c #161616",
"l	c #C8C8C8",
"m	c #7A7A7A",
"n	c #101010",
"o	c #6E6E6E",
"p	c #CACACA",
"q	c #B9B9B9",
"r	c #0F0F0F",
"s	c #E4E4E4",
"t	c #E7E7E7",
"u	c #D6D6D6",
"v	c #4C4C4C",
"w	c #0B0B0B",
"x	c #A4A4A4",
"y	c #FBFBFB",
"z	c #B5B5B5",
"A	c #080808",
"B	c #707070",
"C	c #BCBCBC",
"                        ",
"                        ",
"       .                ",
"       +@               ",
"       #$%              ",
"       &*=%             ",
"       -;>,%            ",
"       '))!~%           ",
"       {]]]^~%          ",
"       /((((_:%         ",
"       <[[[[[}|%        ",
"       122222234%       ",
"       5666678890a      ",
"       bcc)cd@eeff      ",
"       bg;higj          ",
"       $klhmnop         ",
"       =#q ercs         ",
"       tu  .vwbx        ",
"       y    zABC        ",
"            @js         ",
"                        ",
"                        ",
"                        ",
"                        "};
