/* XPM */
static char * printer_xpm[] = {
"24 24 32 1",
" 	c None",
".	c #F0F2F5",
"+	c #FAFAFA",
"@	c #2D333E",
"#	c #2F3240",
"$	c #545866",
"%	c #B1B2B7",
"&	c #373B48",
"*	c #4A4F61",
"=	c #4A5061",
"-	c #383D49",
";	c #4C5263",
">	c #6681A5",
",	c #515B70",
"'	c #5A6C87",
")	c #4E5668",
"!	c #464D5D",
"~	c #4A5060",
"{	c #595F6E",
"]	c #61687A",
"^	c #F1F3F6",
"/	c #E9EBF1",
"(	c #ECEEF3",
"_	c #333A46",
":	c #3D4150",
"<	c #5A606F",
"[	c #F9F9F9",
"}	c #ECEFF4",
"|	c #F0F1F5",
"1	c #EBEDF2",
"2	c #EBEDF3",
"3	c #F9F9FA",
"                        ",
"                        ",
"                        ",
"     ..............     ",
"     ++++++++++++++     ",
"     ++++++++++++++     ",
"     ++++++++++++++     ",
" @##$%%%%%%%%%%%%%%$##@ ",
"&*====================*&",
"-;;;;;;;;;;;;;;;;;;;;;;-",
"-;;;;;;;;;;;;;;;;;;>,;;-",
"-;;;;;;;;;;;;;;;;;;');;-",
"-;;;;;;;;;;;;;;;;;;;;;;-",
"-;;;;;;;;;;;;;;;;;;;;;;-",
"-;;;;;;;;;;;;;;;;;;;;;;-",
"-;;;!~~~~~~~~~~~~~~!;;;-",
"-;;;{++++++++++++++{;;;-",
"-;;;]++++++++^/(//+];;;-",
"_:::<+++[/}/((|12/+<:::_",
"     ++++3//(((}(/+     ",
"     ++++++++++++++     ",
"                        ",
"                        ",
"                        "};
