/* XPM */
static char * system_software_update_xpm[] = {
"24 24 80 1",
" 	c None",
".	c #CC5320",
"+	c #D55D26",
"@	c #D35824",
"#	c #E47434",
"$	c #F1863E",
"%	c #FA9145",
"&	c #FB9246",
"*	c #D35B24",
"=	c #E57334",
"-	c #F88F44",
";	c #F98F44",
">	c #E37432",
",	c #EE813C",
"'	c #EE823C",
")	c #EE813B",
"!	c #FB954A",
"~	c #FDBD8D",
"{	c #FEE0C6",
"]	c #FFF2E3",
"^	c #FEE1C7",
"/	c #FB9549",
"(	c #E27232",
"_	c #FB9D58",
":	c #FEE4CC",
"<	c #FFF6E9",
"[	c #FFF4E6",
"}	c #FEE6CE",
"|	c #FEE5CF",
"1	c #FFF5E7",
"2	c #FCB680",
"3	c #D45C26",
"4	c #E47534",
"5	c #FED1AD",
"6	c #FB9B55",
"7	c #FDCDA5",
"8	c #FDBE8E",
"9	c #FCB57F",
"0	c #E57433",
"a	c #FED3B1",
"b	c #FCA05C",
"c	c #FCB179",
"d	c #FDBC8B",
"e	c #F0843D",
"f	c #CF5620",
"g	c #FEE2C7",
"h	c #FFF5E8",
"i	c #FB9E59",
"j	c #FEE0C5",
"k	c #CB521D",
"l	c #D25E25",
"m	c #FEE8D2",
"n	c #FFF0E1",
"o	c #FEE7D0",
"p	c #FEE6CF",
"q	c #FFF1E1",
"r	c #D25D26",
"s	c #C95320",
"t	c #FEE1C8",
"u	c #FFF4E5",
"v	c #FB9C57",
"w	c #FFF6E8",
"x	c #CA531E",
"y	c #FDBD8C",
"z	c #FED4B2",
"A	c #E27434",
"B	c #FDBE8D",
"C	c #FED1AE",
"D	c #FEE3CA",
"E	c #D25C25",
"F	c #F88E44",
"G	c #D25A23",
"H	c #FB944A",
"I	c #FFF1DF",
"J	c #E27333",
"K	c #ED813A",
"L	c #ED803B",
"M	c #E47533",
"N	c #CB511D",
"O	c #D45D26",
"                        ",
"          .++.          ",
"       @#$%&&%$#*       ",
"      =-&&&&&&&&;>      ",
"     ,&&&&&&&&&&&&'     ",
"    )&&&&&&&&&&&&&&,    ",
"   =&&&&!~{]]^~/&&&&(   ",
"  @-&&&_:<[}|1<2&&&&;3  ",
"  4&&&!:<56&&78&9/&&&0  ",
"  $&&&~<a&&&&b&c<d&&&e  ",
" f%&&&gh6&&&&&&i[j&&&%k ",
" l&&&&]|&&&&&&&&mn&&&&+ ",
" +&&&&]o&&&&&&&&pq&&&&r ",
" s%&&&tui&&&&&&vwj&&&%x ",
"  $&&&y<c&b&&&&z<d&&&e  ",
"  A&&&/9&B7&&vC<D/&&&0  ",
"  E;&&&&9<1p|1<D_&&&FG  ",
"   >&&&&HdjI]jd/&&&&J   ",
"    )&&&&&&&&&&&&&&K    ",
"     '&&&&&&&&&&&&L     ",
"      (;&&&&&&&&FJ      ",
"       GMe%&&%e0G       ",
"          NOON          ",
"                        "};
