/* XPM */
static char * reload_xpm[] = {
"24 24 60 1",
" 	c None",
".	c #ECECEC",
"+	c #FAFAFA",
"@	c #FEFEFE",
"#	c #FFFFFF",
"$	c #F7F7F7",
"%	c #F6F6F6",
"&	c #E0ECF8",
"*	c #C6DBF3",
"=	c #C4DAF2",
"-	c #E1ECF8",
";	c #FEFFFF",
">	c #EDEDED",
",	c #C8DDF3",
"'	c #69A1DE",
")	c #4C8FD8",
"!	c #CADEF4",
"~	c #AACAEC",
"{	c #4D8FD8",
"]	c #6FA5E0",
"^	c #99BFE9",
"/	c #669FDE",
"(	c #4D90D8",
"_	c #BAD4F0",
":	c #C9DDF3",
"<	c #5695DA",
"[	c #C8DCF3",
"}	c #A7C8EC",
"|	c #C7F2F6",
"1	c #D5F5F8",
"2	c #C1D8F2",
"3	c #F2F7FC",
"4	c #E9FAFB",
"5	c #6EDCE7",
"6	c #86E2EB",
"7	c #6DA4DF",
"8	c #87E2EB",
"9	c #6DDCE7",
"0	c #E7F9FB",
"a	c #98BEE9",
"b	c #A7EAF1",
"c	c #CFF4F7",
"d	c #94BCE8",
"e	c #AAEBF1",
"f	c #E2EDF9",
"g	c #6CA3DF",
"h	c #FBFBFB",
"i	c #6BA2DF",
"j	c #E4EEF9",
"k	c #F5FDFD",
"l	c #CCF3F7",
"m	c #CCDFF4",
"n	c #B7EEF3",
"o	c #D0F4F7",
"p	c #75DEE8",
"q	c #82E1EA",
"r	c #ABEBF1",
"s	c #88E3EC",
"t	c #BAEFF4",
"u	c #D1F4F7",
"                        ",
"                        ",
"        .+@##@+.        ",
"      .##########.      ",
"     $############$     ",
"    %#####&*=-;####$    ",
"   >####,'))))'!####.   ",
"   ####~{)]^^/(_#####   ",
"  .###:{<[###}_#|1###.  ",
"  +###')2####3#456###+  ",
"  @##&)7#######;890##@  ",
"  ###=)a########b9c###  ",
"  ###=)d########e9c###  ",
"  @##f)g;#######890##@  ",
"  h###i(j#k####l96###+  ",
"  .###m_#|n###op51###.  ",
"   #####|5qrrs95t####   ",
"   .####16999961####.   ",
"    %#####0cu0#####%    ",
"     %############%     ",
"      .#########@.      ",
"        .+@##@+.        ",
"                        ",
"                        "};
