/* XPM */
static char * system_shutdown_xpm[] = {
"24 24 63 1",
" 	c None",
".	c #F54739",
"+	c #F44335",
"@	c #F24637",
"#	c #F34436",
"$	c #F1463A",
"%	c #F14B42",
"&	c #F04F4A",
"*	c #EF524F",
"=	c #EF5350",
"-	c #F24B42",
";	c #F54638",
">	c #F14940",
",	c #EF514F",
"'	c #EF524E",
")	c #F24A43",
"!	c #F14537",
"~	c #F04E48",
"{	c #F14E48",
"]	c #F14439",
"^	c #F14D47",
"/	c #F14A42",
"(	c #F59492",
"_	c #F05C59",
":	c #F14B43",
"<	c #F1463B",
"[	c #F2716E",
"}	c #FFFCFC",
"|	c #F16966",
"1	c #F34539",
"2	c #F44336",
"3	c #EF5451",
"4	c #FBD8D7",
"5	c #FFFFFF",
"6	c #F3443A",
"7	c #F04F49",
"8	c #F69A98",
"9	c #F16461",
"0	c #FEF4F4",
"a	c #F37D7B",
"b	c #F16A67",
"c	c #EF5552",
"d	c #F44236",
"e	c #FAC4C3",
"f	c #F37976",
"g	c #F24538",
"h	c #F37977",
"i	c #F44436",
"j	c #F34337",
"k	c #F34339",
"l	c #F69997",
"m	c #F24A42",
"n	c #FCDBDA",
"o	c #F34437",
"p	c #F27371",
"q	c #F3463A",
"r	c #F59291",
"s	c #F14942",
"t	c #F14E47",
"u	c #F14539",
"v	c #F34438",
"w	c #F34537",
"x	c #F24738",
"                        ",
"         .+@@+@#        ",
"      $.%&*==*&-;       ",
"     >%,========');     ",
"    !~============{]    ",
"   .^=============={/   ",
"   %========(_======:<  ",
"  .'=======[}|======,1  ",
" 2%=======345|=======-  ",
" 67=======855|=======&1 ",
" +*======9055abc=====*d ",
" 6=======e55555f======g ",
" g======h55555e=======@ ",
" i*=====cba5509======'j ",
" k&=======|55l=======7@ ",
"  m=======|5n3=======%o ",
"  k'======|}p=======,q  ",
"  <)======_r========s   ",
"   /t=============={q   ",
"    ]{============^u    ",
"     v:'========'s/     ",
"       v-7*==*7mg<      ",
"        wxixxig         ",
"                        "};
