/* XPM */
static char * system_search_24x24_xpm[] = {
"24 24 65 1",
" 	c None",
".	c #ECECEC",
"+	c #FAFAFA",
"@	c #FEFEFE",
"#	c #FFFFFF",
"$	c #EFF5FB",
"%	c #DBE8F7",
"&	c #F7F7F7",
"*	c #F9FBFE",
"=	c #AFCCEE",
"-	c #6CA1DF",
";	c #4D8DD8",
">	c #B0CCEE",
",	c #FAFCFE",
"'	c #F6F6F6",
")	c #E1ECF8",
"!	c #669DDE",
"~	c #679EDE",
"{	c #E3EDF9",
"]	c #EDEDED",
"^	c #5794DA",
"/	c #4E8ED8",
"(	c #619ADC",
"_	c #70A3E0",
":	c #78A8E1",
"<	c #6099DC",
"[	c #5391D9",
"}	c #A5C6EB",
"|	c #659DDD",
"1	c #5290D9",
"2	c #71A4E0",
"3	c #7AAAE2",
"4	c #76A7E1",
"5	c #A2C3EB",
"6	c #7BAAE2",
"7	c #87B2E5",
"8	c #91B9E7",
"9	c #7FADE3",
"0	c #B8D1EF",
"a	c #B1CDEE",
"b	c #6BA0DF",
"c	c #9BBFE9",
"d	c #9FC1EA",
"e	c #C4D9F2",
"f	c #80ADE3",
"g	c #6DA2DF",
"h	c #9FC2EA",
"i	c #A2C4EB",
"j	c #C9DDF3",
"k	c #F0F5FC",
"l	c #F5F8FD",
"m	c #F4F8FD",
"n	c #77A8E1",
"o	c #DDE9F8",
"p	c #F0F6FC",
"q	c #6FA2DF",
"r	c #B2CEEE",
"s	c #689EDE",
"t	c #FBFCFE",
"u	c #E2ECF9",
"v	c #5894DA",
"w	c #E2EDF9",
"x	c #6EA2DF",
"y	c #B2CDEE",
"z	c #DCE9F7",
"                        ",
"                        ",
"        .+@##@+.        ",
"      .###$%%$###.      ",
"     &#*=-;;;;->,#&     ",
"    '#)!;;;;;;;;~{#&    ",
"   ]#)^;/(_::_</[}{#.   ",
"   #*|;1233333345[~,#   ",
"  .#=;/2367887904/;a#.  ",
"  +#b;(368cccdef3<;g#+  ",
"  @$;;_37cchijd73_;;k@  ",
"  #%;;:38cdl*5c83:;;%#  ",
"  #%;;:38cdlmdc83n;;o#  ",
"  @$;;_37ccddcc73_;;p@  ",
"  +#-;<368cccc833<;q#+  ",
"  .#>;/2337887332/;r#.  ",
"   #,~;1233333321;st#   ",
"   .#u^;/<_::_</;vw#.   ",
"    '#us;;;;;;;;sw#&    ",
"     '#,ag;;;;xyt#'     ",
"      .###kzzp###.      ",
"        .+@##@+.        ",
"                        ",
"                        "};
