/* XPM */
static char * system_software_update_xpm[] = {
"24 24 48 1",
" 	c None",
".	c #E17032",
"+	c #F38B44",
"@	c #F38C44",
"#	c #E06F32",
"$	c #F48C44",
"%	c #FC974B",
"&	c #F58D45",
"*	c #FC9A4F",
"=	c #FDC191",
"-	c #FEE2CA",
";	c #FFF2E5",
">	c #FFF2E4",
",	c #FEE1C7",
"'	c #FDBF8F",
")	c #FEC69B",
"!	c #FCA25D",
"~	c #FEE6CF",
"{	c #FFF6EB",
"]	c #FEE3CA",
"^	c #FECEA7",
"/	c #FECCA4",
"(	c #FEE4CD",
"_	c #FC9A50",
":	c #FDB47D",
"<	c #FDB57D",
"[	c #FFF3E7",
"}	c #FDBC8A",
"|	c #FDC497",
"1	c #FCA561",
"2	c #FEC9A0",
"3	c #FDC496",
"4	c #FCA15D",
"5	c #FDB67F",
"6	c #FDB57F",
"7	c #FDBD8C",
"8	c #FFF4E7",
"9	c #FEE2C8",
"0	c #FC994F",
"a	c #FEE2C9",
"b	c #FECFA8",
"c	c #FEE4CC",
"d	c #FCA15B",
"e	c #FEE0C7",
"f	c #FFF0DF",
"g	c #FDBD8B",
"h	c #E06F33",
"i	c #C94B1B",
"                        ",
"                        ",
"  .+@@@@@@@@@@@@@@@@+#  ",
"  $%%%%%%%%%%%%%%%%%%$  ",
"  &%%%%%%%%%%%%%%%%%%&  ",
"  &%%%%%%%%%%%%%%%%%%&  ",
"  &%%%%%*=-;>,'*%)%%%&  ",
"  &%%%%!~{]^/-{(/{%%%&  ",
"  &%%%_~>:%%%%<[{{%%%&  ",
"  &%%%={:%%%%%){{{%%%&  ",
"  &%%%}|%%%%%12222%%%&  ",
"  &%%%%%%%%%%%%%%%%%%&  ",
"  &%%%%%%%%%%%%%%%%%%&  ",
"  &%%%33334%%%%%'5%%%&  ",
"  &%%%{{{)%%%%%6{7%%%&  ",
"  &%%%{{86%%%%6;90%%%&  ",
"  &%%%{/a{]/bc{9d%%%%&  ",
"  &%%%)%07effeg0%%%%%&  ",
"  &%%%%%%%%%%%%%%%%%%&  ",
"  &%%%%%%%%%%%%%%%%%%&  ",
"  $%%%%%%%%%%%%%%%%%%+  ",
"  #+@@@@@@@@@@@@@@@@+h  ",
"    iiiiiiiiiiiiiiii    ",
"                        "};
