/* XPM */
static char * system_help_xpm[] = {
"24 24 90 1",
" 	c None",
".	c #2768C5",
"+	c #337BD4",
"@	c #3E89DC",
"#	c #4390E3",
"$	c #2869C6",
"%	c #4491E6",
"&	c #54A6F5",
"*	c #58ADF9",
"=	c #4592E5",
"-	c #2E6ECA",
";	c #3982D6",
">	c #54A8F5",
",	c #3880D8",
"'	c #3E89DE",
")	c #57ABF8",
"!	c #63B4FA",
"~	c #59ADF9",
"{	c #3881D8",
"]	c #6CB7F9",
"^	c #C0E0FD",
"/	c #F1F8FE",
"(	c #FFFFFF",
"_	c #F3F9FE",
":	c #C1E1FD",
"<	c #6BB6F9",
"[	c #3982D8",
"}	c #2C6CC7",
"|	c #6DB7F9",
"1	c #F2F9FE",
"2	c #FAFDFF",
"3	c #9ACDFB",
"4	c #69B6F9",
"5	c #7DC0FA",
"6	c #D6EBFD",
"7	c #ECF6FF",
"8	c #67B5FA",
"9	c #2D6DC8",
"0	c #A4D2FC",
"a	c #D5EAFD",
"b	c #5EB0F9",
"c	c #F6FAFE",
"d	c #9DCFFB",
"e	c #2968C5",
"f	c #80C1FB",
"g	c #FDFEFF",
"h	c #D1E8FD",
"i	c #5CAFF9",
"j	c #98CCFB",
"k	c #54A7F5",
"l	c #66B5FA",
"m	c #5FB0F9",
"n	c #A0D0FC",
"o	c #F0F8FE",
"p	c #61B3FA",
"q	c #337AD3",
"r	c #3E88DE",
"s	c #63B3FA",
"t	c #F8FBFF",
"u	c #7FC1FB",
"v	c #3E87DC",
"w	c #BADEFC",
"x	c #7ABEFA",
"y	c #4491E3",
"z	c #6DB8F9",
"A	c #FBFDFF",
"B	c #78BDFA",
"C	c #4490E4",
"D	c #3E88DC",
"E	c #9CCEFB",
"F	c #CFE7FD",
"G	c #3D87DC",
"H	c #ACD7FC",
"I	c #B2DAFC",
"J	c #61B1FA",
"K	c #2769C4",
"L	c #4491E4",
"M	c #5DAFF9",
"N	c #2D6EC8",
"O	c #7EC0FA",
"P	c #F9FCFF",
"Q	c #F4F9FE",
"R	c #73BAFA",
"S	c #2B6CC8",
"T	c #3982D7",
"U	c #9ECFFC",
"V	c #8AC6FB",
"W	c #5AAEF9",
"X	c #90C8FB",
"Y	c #3980D7",
"                        ",
"        .+@##@+.        ",
"      $%&******&=-      ",
"     ;>**********>,     ",
"    ')*****!!~****)'    ",
"   {)***]^/((_:<***)[   ",
"  }>***|123456(78***>9  ",
"  %****0(a***bc(d****%  ",
" e&****fgh***ic(j****k. ",
" +******lm***n(op*****q ",
" r**********sotu******v ",
" #**********wox*******y ",
" y*********zAB********C ",
" D*********EF*********G ",
" +*********HI*********q ",
" .&********Js********&K ",
"  L********bM********%  ",
"  N>******OPQR******kS  ",
"   T)*****U((V*****)[   ",
"    ')****WjX*****)'    ",
"     Y>**********>{     ",
"      $%&******&%}      ",
"        .qG##Gq.        ",
"                        "};
