/* XPM */
static char * system_lock_screen_xpm[] = {
"24 24 83 1",
" 	c None",
".	c #855EC3",
"+	c #815BC2",
"@	c #805AC4",
"#	c #8059C4",
"$	c #7E57C2",
"%	c #7E58C3",
"&	c #845FC5",
"*	c #8966C7",
"=	c #906ECB",
"-	c #9473CC",
";	c #9575CD",
">	c #8965C8",
",	c #845DC4",
"'	c #865EC5",
")	c #9373CC",
"!	c #9373CD",
"~	c #8A65C7",
"{	c #865DC6",
"]	c #845FC4",
"^	c #8D6BCA",
"/	c #8E6BC9",
"(	c #8660C5",
"_	c #855EC5",
":	c #8D6BC9",
"<	c #865EC6",
"[	c #8964C7",
"}	c #845EC5",
"|	c #9A7BCF",
"1	c #BFACE1",
"2	c #BFABE1",
"3	c #855EC4",
"4	c #8966C8",
"5	c #9777CE",
"6	c #E9E3F5",
"7	c #E9E2F5",
"8	c #8965C7",
"9	c #7F57C0",
"0	c #8F6DCA",
"a	c #A990D7",
"b	c #F8F5FB",
"c	c #9778CE",
"d	c #F8F6FC",
"e	c #7E58C1",
"f	c #B098DA",
"g	c #F2EEF9",
"h	c #9474CD",
"i	c #815AC4",
"j	c #7E5BC3",
"k	c #AD94D8",
"l	c #EAE4F5",
"m	c #FCFAFD",
"n	c #E3DAF2",
"o	c #805AC2",
"p	c #805BC2",
"q	c #BDA9E0",
"r	c #FFFFFF",
"s	c #F7F5FB",
"t	c #805CC3",
"u	c #B59FDD",
"v	c #835FC6",
"w	c #D7CAEB",
"x	c #7D57C2",
"y	c #8865C7",
"z	c #825EC4",
"A	c #9372CC",
"B	c #A387D4",
"C	c #CDBEE7",
"D	c #CEBFE8",
"E	c #845EC4",
"F	c #8866C7",
"G	c #865DC5",
"H	c #8E6AC8",
"I	c #855FC5",
"J	c #855DC6",
"K	c #815EC5",
"L	c #8F6ECA",
"M	c #8864C6",
"N	c #8360C5",
"O	c #7D58C1",
"P	c #815AC3",
"Q	c #815BC3",
"R	c #805CC2",
"                        ",
"         .+@#$%         ",
"       &*=-;;-=>,       ",
"     '>);;;;;;;;!~{     ",
"    ]^;;;;;;;;;;;;/(    ",
"   _:;;;;;;;;;;;;;;/<   ",
"   >;;;;;;;;;;;;;;;;[   ",
"  }!;;;;;;|12|;;;;;;)3  ",
"  4;;;;;;567675;;;;;;8  ",
" 90;;;;;;abccda;;;;;;0, ",
" e-;;;;;;fg;;gf;;;;;;hi ",
" j;;;;;;klmnnmlk;;;;;;o ",
" p;;;;;;qrrssrrq;;;;;;# ",
" t!;;;;;qrruurrq;;;;;-$ ",
" v=;;;;;qrrwwrrq;;;;;0x ",
"  [;;;;;qrrrrrrq;;;;;y  ",
"  zA;;;;BCDDDDCB;;;;)E  ",
"   ~;;;;;;;;;;;;;;;;F   ",
"   GH;;;;;;;;;;;;;;/&   ",
"    (/;;;;;;;;;;;;/I    ",
"     J[!;;;;;;;;AFG     ",
"       K8Lh;;hLMN       ",
"         OePQRz         ",
"                        "};
