/* XPM */
static char * terminix_xpm[] = {
"24 24 31 1",
" 	c None",
".	c #1D1D1D",
"+	c #313131",
"@	c #2C2C2C",
"#	c #1B1B1B",
"$	c #292929",
"%	c #424242",
"&	c #383838",
"*	c #252525",
"=	c #444444",
"-	c #3A3A3A",
";	c #A3A3A3",
">	c #B4B4B4",
",	c #4A4A4A",
"'	c #535353",
")	c #BFBFBF",
"!	c #7D7D7D",
"~	c #7C7C7C",
"{	c #D9D9D9",
"]	c #D2D2D2",
"^	c #A4A4A4",
"/	c #ABABAB",
"(	c #515151",
"_	c #C0C0C0",
":	c #6C6C6C",
"<	c #8B8B8B",
"[	c #BBBBBB",
"}	c #696969",
"|	c #3C3C3C",
"1	c #B8B8B8",
"2	c #A6A6A6",
"                        ",
"                        ",
"                        ",
" .++++++++++@@@@@@@@@@# ",
" $%%%%%%%%%%&&&&&&&&&&* ",
" $%%%=%%%%%%&&-&&&&&&&* ",
" $%%%;>,%%%%&&')!&&&&&* ",
" $%%%%~{%%%%&&&&]!&&&&* ",
" $%%%^/=%%%%&&(_:&&&&&* ",
" $%%%%<[[}%%&&&|>12&&&* ",
" $%%%%%%%%%%&&&&&&&&&&* ",
" $%%%%%%%%%%&&&&&&&&&&* ",
" $%%%%%%%%%%&&&&&&&&&&* ",
" $%%%%%%%%%%&&&&&&&&&&* ",
" $%%%%%%%%%%&&&&&&&&&&* ",
" $%%%%%%%%%%&&&&&&&&&&* ",
" $%%%%%%%%%%&&&&&&&&&&* ",
" $%%%%%%%%%%&&&&&&&&&&* ",
" $%%%%%%%%%%&&&&&&&&&&* ",
" $%%%%%%%%%%&&&&&&&&&&* ",
" .++++++++++@@@@@@@@@@# ",
"                        ",
"                        ",
"                        "};
