/* XPM */
static char * text_editor_xpm[] = {
"24 24 114 2",
"  	c None",
". 	c #D1CFCD",
"+ 	c #E9E9E8",
"@ 	c #EBE3E2",
"# 	c #E4E7EA",
"$ 	c #D8D6D6",
"% 	c #F3F3F3",
"& 	c #F4E8E8",
"* 	c #EBEFF5",
"= 	c #D5D5D7",
"- 	c #EEF0F4",
"; 	c #EFE6EA",
"> 	c #E7ECF6",
", 	c #D7D5D7",
"' 	c #E4DEE2",
") 	c #DEE0E4",
"! 	c #DDDFE3",
"~ 	c #DCDEE2",
"{ 	c #E1E3E7",
"] 	c #DBDDE1",
"^ 	c #EBEDF1",
"/ 	c #E3DDE1",
"( 	c #DFE1E5",
"_ 	c #EAECF0",
": 	c #BEC4D0",
"< 	c #828FA1",
"[ 	c #E5DEE2",
"} 	c #BCC1CC",
"| 	c #6E8DAE",
"1 	c #7DACD0",
"2 	c #5A7392",
"3 	c #E9DFDF",
"4 	c #E0E0E0",
"5 	c #E3E3E3",
"6 	c #E6E6E6",
"7 	c #C4C4C4",
"8 	c #606061",
"9 	c #4D5053",
"0 	c #6685A3",
"a 	c #77A2C6",
"b 	c #E6DEE0",
"c 	c #E0E2E5",
"d 	c #DCDDE0",
"e 	c #E6E7EB",
"f 	c #C7C8CC",
"g 	c #484849",
"h 	c #414141",
"i 	c #595959",
"j 	c #4C5158",
"k 	c #5B7695",
"l 	c #D4D6DA",
"m 	c #E9EDF5",
"n 	c #EBE4EB",
"o 	c #C3C6CD",
"p 	c #48494A",
"q 	c #333333",
"r 	c #454545",
"s 	c #686768",
"t 	c #E1DBDF",
"u 	c #DADCE0",
"v 	c #D8DADE",
"w 	c #D7D9DD",
"x 	c #B8BABD",
"y 	c #454546",
"z 	c #848586",
"A 	c #D6D8DC",
"B 	c #B7B9BD",
"C 	c #7B7E82",
"D 	c #E3DCE0",
"E 	c #BDBEC2",
"F 	c #494949",
"G 	c #7E7E80",
"H 	c #E7DDDD",
"I 	c #DCDCDC",
"J 	c #E1E1E1",
"K 	c #D3D1C8",
"L 	c #696755",
"M 	c #848484",
"N 	c #EBE2E5",
"O 	c #E5E7EA",
"P 	c #E7E9EC",
"Q 	c #E9E5C0",
"R 	c #F2EDC4",
"S 	c #908D6D",
"T 	c #818283",
"U 	c #E8EAEE",
"V 	c #E0E4ED",
"W 	c #E5DDDF",
"X 	c #DCDEE1",
"Y 	c #DFE0E4",
"Z 	c #DFDFDA",
"` 	c #EEEABC",
" .	c #F5F1D0",
"..	c #EAE6B4",
"+.	c #818282",
"@.	c #E4E5E9",
"#.	c #D8DCE3",
"$.	c #DFD9DD",
"%.	c #D2D4D8",
"&.	c #95937C",
"*.	c #D0CCA7",
"=.	c #E3DFB8",
"-.	c #D8D6C0",
";.	c #DED8DC",
">.	c #D1D3D7",
",.	c #969680",
"'.	c #C5C6C1",
").	c #D3D5D9",
"!.	c #D9DBDF",
"~.	c #E5DBDB",
"{.	c #D9D9D9",
"].	c #DDDDDD",
"^.	c #DEDEDE",
"/.	c #DFDFDF",
"                                                ",
"                                                ",
"      . + + @ + + + + + + + + + + + # + .       ",
"      $ % % & % % % % % % % % % % % * % $       ",
"      $ % % & % % % % % % % % % % % * % $       ",
"      = - - ; - - - - - - - - - - - > - ,       ",
"      = - - ' ) ! ~ { ) ] ] ) ] ) ^ > - ,       ",
"      = - - / ] ) ( ) ! ~ ! ] _ - - > : <       ",
"      = - - [ ! ( ! ( ! ( ( ( ! _ - } | 1 2     ",
"      $ % % 3 4 5 4 4 5 5 4 5 4 6 7 8 9 0 a     ",
"      = - - b c d d e - - - - - f g h i j k     ",
"      l m m n m m m m m m m m o p q q r s       ",
"      = - - t ] u v ) ~ w w x y q q q z ,       ",
"      = - - t A u A u u A B y q q q C - ,       ",
"      = - - D u ~ u u ~ E F q q q G > - ,       ",
"      $ % % H I J J 4 K L q q q M % * % $       ",
"      = - - N O P O P Q R S q T U O V - ,       ",
"      = - - W X Y d Z `  ...+.- @.d #.- ,       ",
"      = - - $.%.v u &.*.=.-.%.v v - > - ,       ",
"      = - - ;.>.w A ,.'.l ).!.).w ).> - ,       ",
"      $ % % ~.{.].^./.% % % % % % % * % $       ",
"      . + + @ + + + + + + + + + + + # + .       ",
"                                                ",
"                                                "};
