/* XPM */
static char * theme_config_xpm[] = {
"24 24 73 1",
" 	c None",
".	c #EAEAEA",
"+	c #F0F0F0",
"@	c #D1D1D1",
"#	c #D3D3D3",
"$	c #FFFFFF",
"%	c #CFCFCF",
"&	c #DADADA",
"*	c #FAFAFA",
"=	c #EBEBEB",
"-	c #E1E1E1",
";	c #FCFCFC",
">	c #FDFDFD",
",	c #FEFEFE",
"'	c #F9F9F9",
")	c #F2F2F2",
"!	c #F7F7F7",
"~	c #FEFEFF",
"{	c #CFE4FF",
"]	c #CBE1FF",
"^	c #FBFDFF",
"/	c #FCFDFF",
"(	c #A1CAFF",
"_	c #77B1FF",
":	c #A7CDFF",
"<	c #FFF2EF",
"[	c #FFB8A7",
"}	c #FFC2B3",
"|	c #FCF9FB",
"1	c #87BBFF",
"2	c #FAF2A4",
"3	c #FFF69A",
"4	c #FFEED3",
"5	c #FF896D",
"6	c #FF7858",
"7	c #FE7758",
"8	c #C796A5",
"9	c #70B1FB",
"0	c #63B1F4",
"a	c #8FD8E8",
"b	c #F7FFFA",
"c	c #FCF28D",
"d	c #FFEF75",
"e	c #FFC659",
"f	c #E76B58",
"g	c #BE7C89",
"h	c #6FB1FA",
"i	c #5DB1F1",
"j	c #72D0DF",
"k	c #95FFC5",
"l	c #C3FFDE",
"m	c #F9DAD4",
"n	c #FDEA86",
"o	c #FFD555",
"p	c #FFC151",
"q	c #DB665B",
"r	c #929DD3",
"s	c #D1CDAA",
"t	c #FC927B",
"u	c #F5BE6E",
"v	c #FCC164",
"w	c #FAA771",
"x	c #DF8C84",
"y	c #C9858B",
"z	c #B0A0BE",
"A	c #90BEF6",
"B	c #7AC7E7",
"C	c #82D1E2",
"D	c #A8F9CD",
"E	c #AAF9CD",
"F	c #B1E7BC",
"G	c #F09D83",
"H	c #EF9A88",
"                        ",
"                        ",
"                        ",
"     .+@        #+.     ",
"    +$$$%      %$$$+    ",
"   &$$$$$*=--=*$$$$$&   ",
"   $$$$$$$$$$$$$$$$$$   ",
"  ;$$$$$$$$$$$$$$$$$$>  ",
"  ,$$$$$$$$$$$$$$$$$$,  ",
"   '$$$$$$$$$$$$$$$$*   ",
"    +$$$$$$$$$$$$$$)    ",
"     *$$$$$$$$$$$$*     ",
"     !$$$$$$$$$$$$!     ",
"     !$$$$$$$$$$$$!     ",
"     !$$$$$$$~{]^$!     ",
"     !$$$$$$/(__:$!     ",
"     !$$<[}|(___1$!     ",
"     2345678__90ab!     ",
"     cde67fg_hijklm     ",
"     nop7fqrhijkkst     ",
"     uvwxyzABCDEFGH     ",
"                        ",
"                        ",
"                        "};
