/* XPM */
static char * tomboy_xpm[] = {
"24 24 17 1",
" 	c None",
".	c #E8911F",
"+	c #E99522",
"@	c #E8901F",
"#	c #F19525",
"$	c #FFA444",
"%	c #F2972A",
"&	c #ED9728",
"*	c #F89E32",
"=	c #E9B23E",
"-	c #FFC859",
";	c #F8C357",
">	c #F5C056",
",	c #E5AF39",
"'	c #DCA62E",
")	c #DCA930",
"!	c #DCA62D",
"                        ",
"   .++++++++++++++++@   ",
"  #$$$$$$$$$$$$$$$$$$#  ",
"  %$$$$$$$$$$$$$$$$$$%  ",
"  %$$$$$$$$$$$$$$$$$$%  ",
"  %$$$$$$$$$$$$$$$$$$%  ",
"  &******************&  ",
"  =------------------=  ",
"  =------------------=  ",
"  =--;>>>>>>>>>>>>;--=  ",
"  =------------------=  ",
"  =------------------=  ",
"  =------------------=  ",
"  =--;>>>>>>>>>>>>;--=  ",
"  =------------------=  ",
"  =------------------=  ",
"  =------------------=  ",
"  =--;>>>>>>>>>>>>;--=  ",
"  =------------------=  ",
"  =------------------=  ",
"  =------------------=  ",
"  ,------------------,  ",
"   '))))))))))))))))!   ",
"                        "};
