/* XPM */
static char * userinfo_xpm[] = {
"24 24 77 1",
" 	c None",
".	c #4886DD",
"+	c #4F8DDE",
"@	c #4E8FDF",
"#	c #5F99E4",
"$	c #6BA1E7",
"%	c #70A5E9",
"&	c #71A5E8",
"*	c #5F98E3",
"=	c #4E8DDD",
"-	c #4984DF",
";	c #6098E4",
">	c #70A5E8",
",	c #71A4E8",
"'	c #4784E3",
")	c #4B8DE1",
"!	c #689FE6",
"~	c #689EE6",
"{	c #4C8CE0",
"]	c #4A86E3",
"^	c #679EE6",
"/	c #699EE7",
"(	c #4A90E3",
"_	c #5F98E4",
":	c #A4C5F0",
"<	c #F6F9FD",
"[	c #8FB8ED",
"}	c #C2D9F5",
"|	c #FEFEFF",
"1	c #92BAED",
"2	c #70A4E7",
"3	c #508BE1",
"4	c #75A8E9",
"5	c #81AFEB",
"6	c #79AAE9",
"7	c #77A9E9",
"8	c #6BA0E6",
"9	c #4787DD",
"0	c #74A7E8",
"a	c #B2CEF3",
"b	c #F7FAFE",
"c	c #C0D7F5",
"d	c #4587E0",
"e	c #4F8CDF",
"f	c #C9DDF6",
"g	c #E3EDFA",
"h	c #FFFFFF",
"i	c #AECCF2",
"j	c #4E8CDE",
"k	c #7AABE9",
"l	c #D1E2F8",
"m	c #88B4EC",
"n	c #518CDF",
"o	c #4489DD",
"p	c #72A5E8",
"q	c #F2F7FD",
"r	c #F1F6FD",
"s	c #4784DF",
"t	c #87B3EC",
"u	c #CDDFF7",
"v	c #A8C8F1",
"w	c #AAC9F1",
"x	c #76A8E9",
"y	c #508BDE",
"z	c #CADDF6",
"A	c #CCDFF7",
"B	c #C3D9F5",
"C	c #72A6E8",
"D	c #518EDF",
"E	c #E6EFFB",
"F	c #9FC2EF",
"G	c #5E98E3",
"H	c #4887E2",
"I	c #4D8EE0",
"J	c #70A4E8",
"K	c #4882DD",
"L	c #4686DC",
"                        ",
"          .++.          ",
"       @#$%&&%$*=       ",
"     -;>&&&&&&&&,#'     ",
"    )!&&&&&&&&&&&&~{    ",
"   ]^&&&&&&&&&&&&&&/(   ",
"   _&&&&&&&&:<[&&&&&#   ",
"  @,&&&&&&&&}|1&&&&&23  ",
"  #&&&&&&&&&45&&&&&&&#  ",
"  $&&&&&&&&&67&&&&&&&8  ",
" 9%&&&&&&&0abc&&&&&&&>d ",
" e&&&&&&&5fghi&&&&&&&&j ",
" j&&&&&&&k0lhm&&&&&&&&n ",
" o>&&&&&&&pqr&&&&&&&&>s ",
"  $&&&&&&&thu&&&&&&&&8  ",
"  *&&&&&&&vhwx&&&&&&&_  ",
"  y,&&&&&&zhABC&&&&&>D  ",
"   *&&&&&&}EF&&&&&&&G   ",
"   H^&&&&&&&&&&&&&&!H   ",
"    {^&&&&&&&&&&&&!I    ",
"     H*,&&&&&&&&J_K     ",
"       jG8>&&>8G+       ",
"          L++L          ",
"                        "};
