/* XPM */
static char * utilities_log_viewer_xpm[] = {
"24 24 88 1",
" 	c None",
".	c #2AB65F",
"+	c #2EBC63",
"@	c #30BB64",
"#	c #3AC56D",
"$	c #42CD73",
"%	c #46D077",
"&	c #46D177",
"*	c #42CD74",
"=	c #3AC66D",
"-	c #2EBB62",
";	c #2EBC60",
">	c #39C56C",
",	c #45D076",
"'	c #48D279",
")	c #4CD27B",
"!	c #45D176",
"~	c #2FBB62",
"{	c #2DBD62",
"]	c #3FCC72",
"^	c #47D178",
"/	c #52D480",
"(	c #5CD788",
"_	c #62D88B",
":	c #3FCB71",
"<	c #2EBD63",
"[	c #2DBD5F",
"}	c #3FCB72",
"|	c #4AD27A",
"1	c #5ED789",
"2	c #5DD788",
"3	c #41CC72",
"4	c #38C66C",
"5	c #60D78A",
"6	c #79DE9C",
"7	c #A1E8BA",
"8	c #A0E7B9",
"9	c #76DD9A",
"0	c #46D076",
"a	c #2EBF65",
"b	c #3AC56C",
"c	c #A4E9BC",
"d	c #FCFEFD",
"e	c #ECFAF1",
"f	c #EEFBF2",
"g	c #F9FEFB",
"h	c #9AE6B4",
"i	c #3AC66C",
"j	c #7EDFA0",
"k	c #FDFEFD",
"l	c #A3E8BB",
"m	c #63D88B",
"n	c #ACEBC2",
"o	c #F9FDFA",
"p	c #75DD99",
"q	c #41CD73",
"r	c #27BA5B",
"s	c #E5F8EB",
"t	c #EEFBF3",
"u	c #9FE7B8",
"v	c #28B85B",
"w	c #2FBC63",
"x	c #B1ECC6",
"y	c #E1F8E9",
"z	c #2DBF62",
"A	c #82E0A3",
"B	c #FEFFFF",
"C	c #99E6B3",
"D	c #FBFEFC",
"E	c #78DD9B",
"F	c #4BD27B",
"G	c #30BE62",
"H	c #27B95C",
"I	c #A4E8BC",
"J	c #FEFFFE",
"K	c #FFFFFF",
"L	c #E4F8EB",
"M	c #A2E8BA",
"N	c #29B75D",
"O	c #83E0A3",
"P	c #B0EBC5",
"Q	c #AAEAC0",
"R	c #7CDF9F",
"S	c #91E4AE",
"T	c #39C66C",
"U	c #2FBE65",
"V	c #30BA5F",
"W	c #28B75F",
"                        ",
"          .++.          ",
"       @#$%&&%*=-       ",
"     ;>,&&'))'&&!#~     ",
"    {]&^/(____(/^&:<    ",
"   [}&|1________2|&3~   ",
"   4&|5__________5|&#   ",
"  @!^1_____6789___2^0a  ",
"  b&/_____cdefgh___/&i  ",
"  *&2____jkl_mnop__(&q  ",
" r%'_____ns___mtu___'0v ",
" w&)_____xy____e7___)&z ",
" z&)_____ABC__lDE___F&G ",
" H0'_____IJKyLdM____'&N ",
"  *&(___lJlOPQR____(&q  ",
"  =&/__SJl_________/&T  ",
"  w!^2_9S_________2^,U  ",
"   #&|5__________5|&T   ",
"   ~}&|2________2|&3V   ",
"    <:&^/(____(/^&}<    ",
"     ;b!&&'FF'&&!>V     ",
"       -#q0&&0qT{       ",
"          W++W          ",
"                        "};
