/* XPM */
static char * utilities_terminal_xpm[] = {
"24 24 31 1",
" 	c None",
".	c #070707",
"+	c #090909",
"@	c #111111",
"#	c #272727",
"$	c #282828",
"%	c #333333",
"&	c #777777",
"*	c #B3B3B3",
"=	c #404040",
"-	c #8F8F8F",
";	c #DDDDDD",
">	c #A9A9A9",
",	c #ACACAC",
"'	c #ADADAD",
")	c #BCBCBC",
"!	c #3F3F3F",
"~	c #E9E9E9",
"{	c #818181",
"]	c #3B3B3B",
"^	c #626262",
"/	c #F5F5F5",
"(	c #D4D4D4",
"_	c #989898",
":	c #6A6A6A",
"<	c #9E9E9E",
"[	c #515151",
"}	c #6E6E6E",
"|	c #424242",
"1	c #A5A5A5",
"2	c #080808",
"                        ",
"   .++++++++++++++++.   ",
"  @#$$$$$$$$$$$$$$$$#@  ",
" .$%%%%%%%%%%%%%%%%%%$. ",
" .$%%%%%%%%%%%%%%%%%%$. ",
" .$%%%%%%%%%%%%%%%%%%$. ",
" .$%%%&*=%%%%%%%%%%%%$. ",
" .$%%-;>,%%%%%%%%%%%%$. ",
" .$%%')!%%%%%%%%%%%%%$. ",
" .$%%!>~{%%%%%%%%%%%%$. ",
" .$%%]%^/%%%%%%%%%%%%$. ",
" .$%%'(;_%%%%%%%%%%%%$. ",
" .$%%%:<%%[}}}|%%%%%%$. ",
" .$%%%%%%%}111[%%%%%%$. ",
" .$%%%%%%%%%%%%%%%%%%$. ",
" .$%%%%%%%%%%%%%%%%%%$. ",
" .$%%%%%%%%%%%%%%%%%%$. ",
" .$%%%%%%%%%%%%%%%%%%$. ",
" .$%%%%%%%%%%%%%%%%%%$. ",
" .$%%%%%%%%%%%%%%%%%%$. ",
" .$%%%%%%%%%%%%%%%%%%#. ",
"  @#$$$$$$$$$$$$$$$$#@  ",
"   .2222222222222222.   ",
"                        "};
