/* XPM */
static char * virtualbox_xpm[] = {
"24 24 64 1",
" 	c None",
".	c #1461C7",
"+	c #1565CE",
"@	c #1461C6",
"#	c #217BF3",
"$	c #1460C6",
"%	c #1563CB",
"&	c #2079EF",
"*	c #2879E5",
"=	c #2A7AE6",
"-	c #2778E3",
";	c #5EA0F6",
">	c #2879E4",
",	c #61A2F6",
"'	c #B3D2FB",
")	c #68A6F7",
"!	c #7AB0F8",
"~	c #72ACF7",
"{	c #FEFEFF",
"]	c #8DBCF9",
"^	c #BBD7FB",
"/	c #AACDFA",
"(	c #C6DDFC",
"_	c #3B85E6",
":	c #D4E6FD",
"<	c #D7E8FD",
"[	c #A8CCFA",
"}	c #B2D2FB",
"|	c #EDF5FE",
"1	c #64A4F6",
"2	c #D9E9FD",
"3	c #67A6F7",
"4	c #62A2F6",
"5	c #D6E7FD",
"6	c #D5E6FD",
"7	c #B9D6FB",
"8	c #BFD9FB",
"9	c #C2DBFC",
"0	c #7AB1F8",
"a	c #CCE1FC",
"b	c #70ABF7",
"c	c #69A6F7",
"d	c #F9FBFF",
"e	c #86B7F8",
"f	c #8ABAF8",
"g	c #C4DCFC",
"h	c #A0C7FA",
"i	c #B4D3FB",
"j	c #B1D1FB",
"k	c #5FA1F6",
"l	c #60A1F6",
"m	c #E5F0FE",
"n	c #FCFDFF",
"o	c #8FBDF9",
"p	c #AFD0FB",
"q	c #6DA9F7",
"r	c #E4EFFD",
"s	c #6AA7F7",
"t	c #9CC5F9",
"u	c #61A1F6",
"v	c #2777E3",
"w	c #2978E2",
"x	c #1460C7",
"y	c #1462C7",
"                        ",
"                        ",
"   .++++++++++++++++@   ",
"  @##################$  ",
"  %#&*============*&#%  ",
"  %#-;;;;;;;;;;;;;;-#%  ",
"  %#>;;;;;;;;,;;;;;>#%  ",
"  %#>;;;;;;;;';;;;;>#%  ",
"  %#>;;;;)!;~{~;;;;>#%  ",
"  %#>;;;;]^;/(/;;;;>#%  ",
"  %#_:<[;}|1232;;;;>#%  ",
"  %#>;45;6/78;90;;;>#%  ",
"  %#>;;ab6cde;f'g6:_#%  ",
"  %#>;;h8i;jk;lmg;;>#%  ",
"  %#>;;~no;l;;;pq;;>#%  ",
"  %#>;;;rs;;;;;k;;;>#%  ",
"  %#>;;;t;;;;;;;;;;>#%  ",
"  %#>;;;u;;;;;;;;;;>#%  ",
"  %#-;;;;;;;;;;;;;;-#%  ",
"  %#&vwwwwwwwwwwwwv&#%  ",
"  $##################x  ",
"   @++++++++++++++++y   ",
"                        ",
"                        "};
