/* XPM */
static char * wine_winetricks_xpm[] = {
"24 24 68 1",
" 	c None",
".	c #1D84D6",
"+	c #1F8CE3",
"@	c #1D85D6",
"#	c #1F8DE4",
"$	c #2196F3",
"%	c #2C9BF4",
"&	c #4EABF5",
"*	c #72BCF7",
"=	c #96CDF9",
"-	c #329EF4",
";	c #2397F3",
">	c #3DA3F5",
",	c #5EB3F6",
"'	c #7FC2F8",
")	c #9DD0FA",
"!	c #5CB2F6",
"~	c #E6F3FE",
"{	c #FFFFFF",
"]	c #3EA4F5",
"^	c #F9FCFF",
"/	c #6DBAF7",
"(	c #A6D5FA",
"_	c #A3D3FA",
":	c #3CA3F4",
"<	c #FBDCDC",
"[	c #F37272",
"}	c #E65158",
"|	c #E45058",
"1	c #C0596F",
"2	c #4487D3",
"3	c #F7AAAA",
"4	c #FA5454",
"5	c #FF5555",
"6	c #F55154",
"7	c #786D9D",
"8	c #FBDDDD",
"9	c #F55153",
"0	c #905775",
"a	c #45A7F5",
"b	c #67B7F7",
"c	c #88C7F9",
"d	c #A4D4FA",
"e	c #5DB2F6",
"f	c #ECF6FE",
"g	c #FF6D6D",
"h	c #FFA1A1",
"i	c #E6484C",
"j	c #E65056",
"k	c #FF8686",
"l	c #FF9494",
"m	c #FFF0F0",
"n	c #FFE7E7",
"o	c #F14B4C",
"p	c #E55056",
"q	c #BF596F",
"r	c #FFA0A0",
"s	c #FF6C6C",
"t	c #F45154",
"u	c #8F5574",
"v	c #786C9D",
"w	c #786894",
"x	c #8B5777",
"y	c #E5484B",
"z	c #F04B4C",
"A	c #F04B4B",
"B	c #E4494D",
"C	c #895576",
"                        ",
"                        ",
"  .++++++++++++++++++@  ",
"  #$$$$$$$$$$$$$$$$$$#  ",
"  #$$$$$$$$$$$$$$$$$$#  ",
"  #$$$$$$$$$$$$$$$$$$#  ",
"  #$$$$$$$$$$%&*=-$$$#  ",
"  #$$$;>,')!~{{{{>$$$#  ",
"  #$$$]{{{^/{{{{{>$$$#  ",
"  #$$$>{{{^/{{{{{>$$$#  ",
"  #$$$>{{{^/{{{{{>$$$#  ",
"  #$$$-(((_&(((((-$$$#  ",
"  #$$$-(((_&(((((-$$$#  ",
"  #$$$:{{{^/{{{<[}|12#  ",
"  #$$$:{{{^/{{34555567  ",
"  #$$$:{{{^/{8455555590 ",
"  #$$$;abcdef[5555ghg5i ",
"  #$$$$$$$$$$j5kllm{n5o ",
"  #$$$$$$$$$$p5kllm{n5o ",
"  #$$$$$$$$$$q5555grs5i ",
"  #$$$$$$$$$$26555555tu ",
"  @+++++++++++v955556w  ",
"               xyzABC   ",
"                        "};
