/* XPM */
static char * icewm_xpm[] = {
"32 20 7 1",
" 	c None",
".	c #F4ABA4",
"+	c #EB8953",
"@	c #85BEF8",
"#	c #6AA8E9",
"$	c #98BA8B",
"%	c #62B342",
"                                ",
"                                ",
"        .++.  @##@  @##@        ",
"        ++++  ####  ####        ",
"        ++++  ####  ####        ",
"        .++.  @##@  @##@        ",
"                                ",
"                                ",
"        $%%$  .++.  @##@        ",
"        %%%%  ++++  ####        ",
"        %%%%  ++++  ####        ",
"        $%%$  .++.  @##@        ",
"                                ",
"                                ",
"        $%%$  $%%$  .++.        ",
"        %%%%  %%%%  ++++        ",
"        %%%%  %%%%  ++++        ",
"        $%%$  $%%$  .++.        ",
"                                ",
"                                "};
