/* XPM */
static char * icewm2_xpm[] = {
"50 20 35 1",
" 	c None",
".	c #2B2E32",
"+	c #FFFFFF",
"@	c #838383",
"#	c #888888",
"$	c #868686",
"%	c #6D6D6D",
"&	c #F2F2F2",
"*	c #707070",
"=	c #6B6B6B",
"-	c #B3B3B3",
";	c #585858",
">	c #7F7F7F",
",	c #808080",
"'	c #6F6F6F",
")	c #474B55",
"!	c #6E6E6E",
"~	c #686868",
"{	c #C2C2C2",
"]	c #8C8C8C",
"^	c #242424",
"/	c #CFCFCF",
"(	c #424242",
"_	c #8F8F8F",
":	c #818181",
"<	c #F3F3F3",
"[	c #727272",
"}	c #606060",
"|	c #666666",
"1	c #676767",
"2	c #BFBFBF",
"3	c #5F5F5F",
"4	c #C0C0C0",
"5	c #E6E6E6",
"6	c #6C6C6C",
"..................................................",
"..................................................",
"..................................................",
"..................................................",
"..................................................",
"......+++.....+++.................................",
"......+++@...@+++.................................",
"......++#+...+$++...%&++*...++=++-;..++...++......",
"......++.+>.,+.++..'++)++!..+++.~+{..++...++......",
"......++.]+^+@.++..{+)))+/..++...++..++...++......",
"......++.(+++..++..+++++++..++...++..++...++......",
"......++.._+:..++..<+.......++...++..++...++......",
"......++.......++..[++..}+..++...++..{+|.+++......",
"......++.......++...12+++3..++...++..;4+56++......",
"..................................................",
"..................................................",
"..................................................",
"..................................................",
"..................................................",
".................................................."};
